0
SECTION
2
HEADER
9
$INSUNITS
70
4
9
$ACADVER
1
AC1014
9
$HANDSEED
5
FFFF
0
ENDSEC
0
SECTION
2
TABLES
0
TABLE
2
VPORT
5
8
100
AcDbSymbolTable
0
ENDTAB
0
TABLE
2
LTYPE
5
5
100
AcDbSymbolTable
0
LTYPE
5
14
100
AcDbSymbolTableRecord
100
AcDbLinetypeTableRecord
2
BYBLOCK
70
0
0
LTYPE
5
15
100
AcDbSymbolTableRecord
100
AcDbLinetypeTableRecord
2
BYLAYER
70
0
0
ENDTAB
0
TABLE
2
LAYER
5
2
100
AcDbSymbolTable
70
2
0
LAYER
5
50
100
AcDbSymbolTableRecord
100
AcDbLayerTableRecord
2
0
70
0
6
CONTINUOUS
0
ENDTAB
0
TABLE
2
STYLE
5
3
100
AcDbSymbolTable
70
1
0
STYLE
5
11
100
AcDbSymbolTableRecord
100
AcDbTextStyleTableRecord
2
STANDARD
70
0
0
ENDTAB
0
TABLE
2
VIEW
5
6
100
AcDbSymbolTable
70
0
0
ENDTAB
0
TABLE
2
UCS
5
7
100
AcDbSymbolTable
70
0
0
ENDTAB
0
TABLE
2
APPID
5
9
100
AcDbSymbolTable
70
2
0
APPID
5
12
100
AcDbSymbolTableRecord
100
AcDbRegAppTableRecord
2
ACAD
70
0
0
ENDTAB
0
TABLE
2
DIMSTYLE
5
A
100
AcDbSymbolTable
70
1
0
ENDTAB
0
TABLE
2
BLOCK_RECORD
5
1
100
AcDbSymbolTable
70
1
0
BLOCK_RECORD
5
1F
100
AcDbSymbolTableRecord
100
AcDbBlockTableRecord
2
*MODEL_SPACE
0
BLOCK_RECORD
5
1B
100
AcDbSymbolTableRecord
100
AcDbBlockTableRecord
2
*PAPER_SPACE
0
ENDTAB
0
ENDSEC
0
SECTION
2
BLOCKS
0
BLOCK
5
20
100
AcDbEntity
100
AcDbBlockBegin
2
*MODEL_SPACE
0
ENDBLK
5
21
100
AcDbEntity
100
AcDbBlockEnd
0
BLOCK
5
1C
100
AcDbEntity
100
AcDbBlockBegin
2
*PAPER_SPACE
0
ENDBLK
5
1D
100
AcDbEntity
100
AcDbBlockEnd
0
ENDSEC
0
SECTION
2
ENTITIES
0
LWPOLYLINE
5
100
100
AcDbEntity
8
0
100
AcDbPolyline
90
20
70
1
43
0.0
10
139.69999999999999
20
-53.949999195337313
10
136.52500000000001
20
-53.949999195337313
10
136.52500000000001
20
-104.77500000000001
10
90.300000000000011
20
-104.77500000000001
10
90.300000000000011
20
-107.95000000000002
10
-89.699999999999989
20
-107.95000000000002
10
-89.699999999999989
20
-104.77500000000001
10
-136.52499999999998
20
-104.77500000000003
10
-136.52499999999998
20
-53.949999195337313
10
-139.69999999999999
20
-53.949999195337313
10
-139.69999999999999
20
54.050002413988096
10
-136.52499999999998
20
54.050002413988096
10
-136.52500000000001
20
104.77500000000003
10
-89.699999999999989
20
104.77500000000003
10
-89.699999999999989
20
107.95000000000002
10
90.300000000000011
20
107.95000000000002
10
90.300000000000011
20
104.77500000000003
10
136.52500000000001
20
104.77500000000003
10
136.52500000000001
20
54.050002413988096
10
139.69999999999999
20
54.050002413988096
0
CIRCLE
5
101
100
AcDbEntity
8
0
100
AcDbCircle
10
55.300000000000011
20
-12.950000000000017
30
0
40
9.2500000000000071
210
0
220
0
230
1
0
CIRCLE
5
102
100
AcDbEntity
8
0
100
AcDbCircle
10
5.3000000000000114
20
-82.950000000000017
30
0
40
9.2500000000000071
210
0
220
0
230
1
0
CIRCLE
5
103
100
AcDbEntity
8
0
100
AcDbCircle
10
55.300000000000011
20
-97.950000000000017
30
0
40
2.5
210
0
220
0
230
1
0
CIRCLE
5
104
100
AcDbEntity
8
0
100
AcDbCircle
10
105.30000000000001
20
-82.950000000000017
30
0
40
9.2500000000000071
210
0
220
0
230
1
0
CIRCLE
5
105
100
AcDbEntity
8
0
100
AcDbCircle
10
40.300000000000011
20
-12.950000000000017
30
0
40
2.5
210
0
220
0
230
1
0
CIRCLE
5
106
100
AcDbEntity
8
0
100
AcDbCircle
10
55.300000000000011
20
57.049999999999983
30
0
40
9.2500000000000071
210
0
220
0
230
1
0
CIRCLE
5
107
100
AcDbEntity
8
0
100
AcDbCircle
10
105.30000000000001
20
-12.950000000000017
30
0
40
9.2500000000000071
210
0
220
0
230
1
0
CIRCLE
5
108
100
AcDbEntity
8
0
100
AcDbCircle
10
5.3000000000000114
20
-97.950000000000017
30
0
40
2.5
210
0
220
0
230
1
0
LWPOLYLINE
5
109
100
AcDbEntity
8
0
100
AcDbPolyline
90
4
70
1
43
0.0
10
-9.6999999999999886
20
82.049999999999983
10
20.300000000000011
20
82.049999999999983
10
20.300000000000011
20
92.049999999999983
10
-9.6999999999999886
20
92.049999999999983
0
LWPOLYLINE
5
110
100
AcDbEntity
8
0
100
AcDbPolyline
90
4
70
1
43
0.0
10
40.300000000000011
20
82.049999999999983
10
70.300000000000011
20
82.049999999999983
10
70.300000000000011
20
92.049999999999983
10
40.300000000000011
20
92.049999999999983
0
LWPOLYLINE
5
111
100
AcDbEntity
8
0
100
AcDbPolyline
90
4
70
1
43
0.0
10
-9.6999999999999886
20
12.049999999999983
10
20.300000000000011
20
12.049999999999983
10
20.300000000000011
20
22.049999999999983
10
-9.6999999999999886
20
22.049999999999983
0
CIRCLE
5
112
100
AcDbEntity
8
0
100
AcDbCircle
10
105.30000000000001
20
57.049999999999983
30
0
40
9.2500000000000071
210
0
220
0
230
1
0
LWPOLYLINE
5
113
100
AcDbEntity
8
0
100
AcDbPolyline
90
4
70
1
43
0.0
10
90.300000000000011
20
12.049999999999983
10
120.30000000000001
20
12.049999999999983
10
120.30000000000001
20
22.049999999999983
10
90.300000000000011
20
22.049999999999983
0
LWPOLYLINE
5
114
100
AcDbEntity
8
0
100
AcDbPolyline
90
4
70
1
43
0.0
10
40.300000000000011
20
12.049999999999983
10
70.300000000000011
20
12.049999999999983
10
70.300000000000011
20
22.049999999999983
10
40.300000000000011
20
22.049999999999983
0
CIRCLE
5
115
100
AcDbEntity
8
0
100
AcDbCircle
10
90.300000000000011
20
-12.950000000000017
30
0
40
2.5
210
0
220
0
230
1
0
CIRCLE
5
116
100
AcDbEntity
8
0
100
AcDbCircle
10
-77.199999999999989
20
0
30
0
40
13.500000000000005
210
0
220
0
230
1
0
CIRCLE
5
117
100
AcDbEntity
8
0
100
AcDbCircle
10
55.300000000000011
20
42.049999999999983
30
0
40
2.5
210
0
220
0
230
1
0
CIRCLE
5
118
100
AcDbEntity
8
0
100
AcDbCircle
10
40.300000000000011
20
-82.950000000000017
30
0
40
2.5
210
0
220
0
230
1
0
CIRCLE
5
119
100
AcDbEntity
8
0
100
AcDbCircle
10
90.300000000000011
20
-82.950000000000017
30
0
40
2.5
210
0
220
0
230
1
0
CIRCLE
5
120
100
AcDbEntity
8
0
100
AcDbCircle
10
40.300000000000011
20
57.049999999999983
30
0
40
2.5000000000000355
210
0
220
0
230
1
0
CIRCLE
5
121
100
AcDbEntity
8
0
100
AcDbCircle
10
105.30000000000001
20
-97.950000000000017
30
0
40
2.5
210
0
220
0
230
1
0
LWPOLYLINE
5
122
100
AcDbEntity
8
0
100
AcDbPolyline
90
4
70
1
43
0.0
10
-9.6999999999999886
20
-57.950000000000017
10
20.300000000000011
20
-57.950000000000017
10
20.300000000000011
20
-47.950000000000017
10
-9.6999999999999886
20
-47.950000000000017
0
CIRCLE
5
123
100
AcDbEntity
8
0
100
AcDbCircle
10
5.3000000000000114
20
-27.950000000000017
30
0
40
2.5
210
0
220
0
230
1
0
CIRCLE
5
124
100
AcDbEntity
8
0
100
AcDbCircle
10
-9.6999999999999886
20
-82.950000000000017
30
0
40
2.5
210
0
220
0
230
1
0
CIRCLE
5
125
100
AcDbEntity
8
0
100
AcDbCircle
10
90.300000000000011
20
57.049999999999983
30
0
40
2.5
210
0
220
0
230
1
0
LWPOLYLINE
5
126
100
AcDbEntity
8
0
100
AcDbPolyline
90
4
70
1
43
0.0
10
40.300000000000011
20
-57.950000000000017
10
70.300000000000011
20
-57.950000000000017
10
70.300000000000011
20
-47.950000000000017
10
40.300000000000011
20
-47.950000000000017
0
CIRCLE
5
127
100
AcDbEntity
8
0
100
AcDbCircle
10
105.30000000000001
20
-27.950000000000017
30
0
40
2.5
210
0
220
0
230
1
0
CIRCLE
5
128
100
AcDbEntity
8
0
100
AcDbCircle
10
55.300000000000011
20
-82.950000000000017
30
0
40
9.2500000000000071
210
0
220
0
230
1
0
CIRCLE
5
129
100
AcDbEntity
8
0
100
AcDbCircle
10
105.30000000000001
20
42.049999999999983
30
0
40
2.5
210
0
220
0
230
1
0
CIRCLE
5
130
100
AcDbEntity
8
0
100
AcDbCircle
10
-9.6999999999999886
20
57.049999999999983
30
0
40
2.5
210
0
220
0
230
1
0
CIRCLE
5
131
100
AcDbEntity
8
0
100
AcDbCircle
10
5.3000000000000114
20
42.049999999999983
30
0
40
2.5
210
0
220
0
230
1
0
CIRCLE
5
132
100
AcDbEntity
8
0
100
AcDbCircle
10
5.3000000000000114
20
-12.950000000000017
30
0
40
9.2500000000000071
210
0
220
0
230
1
0
CIRCLE
5
133
100
AcDbEntity
8
0
100
AcDbCircle
10
-9.6999999999999886
20
-12.950000000000017
30
0
40
2.5000000000000178
210
0
220
0
230
1
0
LWPOLYLINE
5
134
100
AcDbEntity
8
0
100
AcDbPolyline
90
4
70
1
43
0.0
10
90.300000000000011
20
82.049999999999983
10
120.30000000000001
20
82.049999999999983
10
120.30000000000001
20
92.049999999999983
10
90.300000000000011
20
92.049999999999983
0
CIRCLE
5
135
100
AcDbEntity
8
0
100
AcDbCircle
10
55.300000000000011
20
-27.950000000000017
30
0
40
2.5
210
0
220
0
230
1
0
LWPOLYLINE
5
136
100
AcDbEntity
8
0
100
AcDbPolyline
90
4
70
1
43
0.0
10
90.300000000000011
20
-57.950000000000017
10
120.30000000000001
20
-57.950000000000017
10
120.30000000000001
20
-47.950000000000017
10
90.300000000000011
20
-47.950000000000017
0
CIRCLE
5
137
100
AcDbEntity
8
0
100
AcDbCircle
10
5.3000000000000114
20
57.049999999999983
30
0
40
9.2500000000000071
210
0
220
0
230
1
0
ENDSEC
0
SECTION
2
OBJECTS
0
DICTIONARY
5
C
100
AcDbDictionary
3
ACAD_GROUP
350
D
3
ACAD_MLINESTYLE
350
17
0
DICTIONARY
5
D
100
AcDbDictionary
0
DICTIONARY
5
1A
330
C
100
AcDbDictionary
0
DICTIONARY
5
17
100
AcDbDictionary
0
ENDSEC
0
EOF
