  0
SECTION
  2
HEADER
  9
$ACADVER
  1
AC1009
  9
$FILLMODE
 70
1
  9
$EXTMIN
 10
0.0000
 20
-0.1000
 30
0.0000
  9
$EXTMAX
 10
149.6196
 20
95.0099
 30
0.0000
  0
ENDSEC
  0
SECTION
  2
TABLES
  0
TABLE
  2
LTYPE
 70
1
  0
LTYPE
  2
CONTINUOUS
 70
64
  3
Solid line
 72
65
 73
0
 40
0
  0
ENDTAB
  0
TABLE
  2
LAYER
 70
255
  0
LAYER
  2
1
 70
64
 62
12
  6
CONTINUOUS
  0
LAYER
  2
2
 70
64
 62
4
  6
CONTINUOUS
  0
LAYER
  2
3
 70
64
 62
6
  6
CONTINUOUS
  0
LAYER
  2
15
 70
64
 62
40
  6
CONTINUOUS
  0
LAYER
  2
16
 70
64
 62
132
  6
CONTINUOUS
  0
LAYER
  2
17
 70
64
 62
110
  6
CONTINUOUS
  0
LAYER
  2
18
 70
64
 62
110
  6
CONTINUOUS
  0
LAYER
  2
19
 70
64
 62
53
  6
CONTINUOUS
  0
LAYER
  2
20
 70
64
 62
53
  6
CONTINUOUS
  0
LAYER
  2
21
 70
64
 62
253
  6
CONTINUOUS
  0
LAYER
  2
22
 70
64
 62
253
  6
CONTINUOUS
  0
LAYER
  2
23
 70
64
 62
53
  6
CONTINUOUS
  0
LAYER
  2
24
 70
64
 62
53
  6
CONTINUOUS
  0
LAYER
  2
25
 70
64
 62
253
  6
CONTINUOUS
  0
LAYER
  2
26
 70
64
 62
253
  6
CONTINUOUS
  0
LAYER
  2
27
 70
64
 62
253
  6
CONTINUOUS
  0
LAYER
  2
28
 70
64
 62
253
  6
CONTINUOUS
  0
LAYER
  2
29
 70
64
 62
153
  6
CONTINUOUS
  0
LAYER
  2
30
 70
64
 62
253
  6
CONTINUOUS
  0
LAYER
  2
31
 70
64
 62
253
  6
CONTINUOUS
  0
LAYER
  2
32
 70
64
 62
253
  6
CONTINUOUS
  0
LAYER
  2
33
 70
64
 62
53
  6
CONTINUOUS
  0
LAYER
  2
34
 70
64
 62
53
  6
CONTINUOUS
  0
LAYER
  2
35
 70
64
 62
253
  6
CONTINUOUS
  0
LAYER
  2
36
 70
64
 62
253
  6
CONTINUOUS
  0
LAYER
  2
37
 70
64
 62
253
  6
CONTINUOUS
  0
LAYER
  2
38
 70
64
 62
253
  6
CONTINUOUS
  0
LAYER
  2
39
 70
64
 62
12
  6
CONTINUOUS
  0
LAYER
  2
40
 70
64
 62
132
  6
CONTINUOUS
  0
LAYER
  2
41
 70
64
 62
12
  6
CONTINUOUS
  0
LAYER
  2
42
 70
64
 62
132
  6
CONTINUOUS
  0
LAYER
  2
43
 70
64
 62
110
  6
CONTINUOUS
  0
LAYER
  2
44
 70
64
 62
253
  6
CONTINUOUS
  0
LAYER
  2
45
 70
64
 62
253
  6
CONTINUOUS
  0
LAYER
  2
46
 70
64
 62
140
  6
CONTINUOUS
  0
LAYER
  2
47
 70
64
 62
253
  6
CONTINUOUS
  0
LAYER
  2
48
 70
64
 62
253
  6
CONTINUOUS
  0
LAYER
  2
49
 70
64
 62
253
  6
CONTINUOUS
  0
LAYER
  2
51
 70
64
 62
253
  6
CONTINUOUS
  0
LAYER
  2
52
 70
64
 62
253
  6
CONTINUOUS
  0
LAYER
  2
58
 70
64
 62
40
  6
CONTINUOUS
  0
LAYER
  2
101
 70
64
 62
1
  6
CONTINUOUS
  0
LAYER
  2
102
 70
64
 62
253
  6
CONTINUOUS
  0
LAYER
  2
103
 70
64
 62
253
  6
CONTINUOUS
  0
LAYER
  2
104
 70
64
 62
41
  6
CONTINUOUS
  0
LAYER
  2
105
 70
64
 62
253
  6
CONTINUOUS
  0
LAYER
  2
106
 70
64
 62
253
  6
CONTINUOUS
  0
LAYER
  2
107
 70
64
 62
253
  6
CONTINUOUS
  0
LAYER
  2
108
 70
64
 62
40
  6
CONTINUOUS
  0
LAYER
  2
109
 70
64
 62
253
  6
CONTINUOUS
  0
LAYER
  2
110
 70
64
 62
253
  6
CONTINUOUS
  0
LAYER
  2
111
 70
64
 62
253
  6
CONTINUOUS
  0
LAYER
  2
112
 70
64
 62
12
  6
CONTINUOUS
  0
LAYER
  2
114
 70
64
 62
151
  6
CONTINUOUS
  0
LAYER
  2
115
 70
64
 62
143
  6
CONTINUOUS
  0
LAYER
  2
116
 70
64
 62
5
  6
CONTINUOUS
  0
LAYER
  2
117
 70
64
 62
53
  6
CONTINUOUS
  0
LAYER
  2
119
 70
64
 62
253
  6
CONTINUOUS
  0
LAYER
  2
120
 70
64
 62
253
  6
CONTINUOUS
  0
LAYER
  2
121
 70
64
 62
253
  6
CONTINUOUS
  0
LAYER
  2
122
 70
64
 62
253
  6
CONTINUOUS
  0
LAYER
  2
123
 70
64
 62
253
  6
CONTINUOUS
  0
LAYER
  2
124
 70
64
 62
253
  6
CONTINUOUS
  0
LAYER
  2
125
 70
64
 62
253
  6
CONTINUOUS
  0
LAYER
  2
126
 70
64
 62
253
  6
CONTINUOUS
  0
LAYER
  2
127
 70
64
 62
253
  6
CONTINUOUS
  0
LAYER
  2
128
 70
64
 62
253
  6
CONTINUOUS
  0
LAYER
  2
129
 70
64
 62
253
  6
CONTINUOUS
  0
LAYER
  2
130
 70
64
 62
253
  6
CONTINUOUS
  0
LAYER
  2
131
 70
64
 62
253
  6
CONTINUOUS
  0
LAYER
  2
132
 70
64
 62
253
  6
CONTINUOUS
  0
LAYER
  2
133
 70
64
 62
253
  6
CONTINUOUS
  0
LAYER
  2
136
 70
64
 62
253
  6
CONTINUOUS
  0
LAYER
  2
137
 70
64
 62
253
  6
CONTINUOUS
  0
LAYER
  2
140
 70
64
 62
183
  6
CONTINUOUS
  0
LAYER
  2
141
 70
64
 62
53
  6
CONTINUOUS
  0
LAYER
  2
142
 70
64
 62
21
  6
CONTINUOUS
  0
LAYER
  2
143
 70
64
 62
251
  6
CONTINUOUS
  0
LAYER
  2
144
 70
64
 62
253
  6
CONTINUOUS
  0
LAYER
  2
145
 70
64
 62
253
  6
CONTINUOUS
  0
LAYER
  2
146
 70
64
 62
253
  6
CONTINUOUS
  0
LAYER
  2
150
 70
64
 62
253
  6
CONTINUOUS
  0
LAYER
  2
151
 70
64
 62
253
  6
CONTINUOUS
  0
LAYER
  2
152
 70
64
 62
253
  6
CONTINUOUS
  0
LAYER
  2
199
 70
64
 62
253
  6
CONTINUOUS
  0
LAYER
  2
200
 70
64
 62
253
  6
CONTINUOUS
  0
LAYER
  2
201
 70
64
 62
253
  6
CONTINUOUS
  0
LAYER
  2
202
 70
64
 62
253
  6
CONTINUOUS
  0
LAYER
  2
203
 70
64
 62
253
  6
CONTINUOUS
  0
LAYER
  2
204
 70
64
 62
253
  6
CONTINUOUS
  0
LAYER
  2
205
 70
64
 62
253
  6
CONTINUOUS
  0
LAYER
  2
206
 70
64
 62
253
  6
CONTINUOUS
  0
LAYER
  2
207
 70
64
 62
253
  6
CONTINUOUS
  0
LAYER
  2
208
 70
64
 62
253
  6
CONTINUOUS
  0
LAYER
  2
209
 70
64
 62
253
  6
CONTINUOUS
  0
LAYER
  2
210
 70
64
 62
253
  6
CONTINUOUS
  0
LAYER
  2
211
 70
64
 62
253
  6
CONTINUOUS
  0
LAYER
  2
212
 70
64
 62
253
  6
CONTINUOUS
  0
LAYER
  2
213
 70
64
 62
253
  6
CONTINUOUS
  0
LAYER
  2
214
 70
64
 62
253
  6
CONTINUOUS
  0
LAYER
  2
215
 70
64
 62
253
  6
CONTINUOUS
  0
LAYER
  2
216
 70
64
 62
253
  6
CONTINUOUS
  0
LAYER
  2
225
 70
64
 62
253
  6
CONTINUOUS
  0
LAYER
  2
226
 70
64
 62
253
  6
CONTINUOUS
  0
LAYER
  2
227
 70
64
 62
253
  6
CONTINUOUS
  0
LAYER
  2
228
 70
64
 62
253
  6
CONTINUOUS
  0
LAYER
  2
229
 70
64
 62
253
  6
CONTINUOUS
  0
LAYER
  2
230
 70
64
 62
253
  6
CONTINUOUS
  0
LAYER
  2
231
 70
64
 62
253
  6
CONTINUOUS
  0
LAYER
  2
232
 70
64
 62
253
  6
CONTINUOUS
  0
LAYER
  2
233
 70
64
 62
253
  6
CONTINUOUS
  0
LAYER
  2
248
 70
64
 62
253
  6
CONTINUOUS
  0
LAYER
  2
249
 70
64
 62
253
  6
CONTINUOUS
  0
LAYER
  2
252
 70
64
 62
6
  6
CONTINUOUS
  0
LAYER
  2
254
 70
64
 62
253
  6
CONTINUOUS
  0
LAYER
  2
255
 70
64
 62
253
  6
CONTINUOUS
  0
ENDTAB
  0
ENDSEC
  0
SECTION
  2
BLOCKS
  0
BLOCK
  8
0
  2
RECT
 70
64
 10
0.0000
 20
0.0000
 30
0.0000
  3
RECT
  0
SOLID
  8
0
 10
-0.5000
 20
-0.5000
 30
0.0000
 11
0.5000
 21
-0.5000
 31
0.0000
 12
-0.5000
 22
0.5000
 32
0.0000
 13
0.5000
 23
0.5000
 33
0.0000
  0
ENDBLK
  8
0
  0
BLOCK
  8
0
  2
PIE
 70
64
 10
0.0000
 20
0.0000
 30
0.0000
  3
PIE
  0
POLYLINE
  8
0
 66
1
 10
0.0000
 20
0.0000
 30
0.0000
 40
0.5000
 41
0.5000
 70
0
  0
VERTEX
  8
0
 10
0.0000
 20
-0.2500
 30
0.0000
 42
1.0000
  0
VERTEX
  8
0
 10
0.0000
 20
0.2500
 30
0.0000
 42
1.0000
  0
VERTEX
  8
0
 10
0.0000
 20
-0.2500
 30
0.0000
  0
SEQEND
  8
0
  0
ENDBLK
  8
0
  0
BLOCK
  8
0
  2
OCTAGONP
 70
64
 10
0.0000
 20
0.0000
 30
0.0000
  3
OCTAGONP
  0
POLYLINE
  8
0
 66
1
 10
0.0000
 20
0.0000
 30
0.0000
 40
0.5000
 41
0.5000
 70
0
  0
VERTEX
  8
0
 10
-0.2500
 20
-0.1036
 30
0.0000
  0
VERTEX
  8
0
 10
-0.2500
 20
0.1036
 30
0.0000
  0
VERTEX
  8
0
 10
-0.1036
 20
0.2500
 30
0.0000
  0
VERTEX
  8
0
 10
0.1036
 20
0.2500
 30
0.0000
  0
VERTEX
  8
0
 10
0.2500
 20
0.1036
 30
0.0000
  0
VERTEX
  8
0
 10
0.2500
 20
-0.1036
 30
0.0000
  0
VERTEX
  8
0
 10
0.1036
 20
-0.2500
 30
0.0000
  0
VERTEX
  8
0
 10
-0.1036
 20
-0.2500
 30
0.0000
  0
VERTEX
  8
0
 10
-0.2500
 20
-0.1036
 30
0.0000
  0
VERTEX
  8
0
 10
-0.2500
 20
0.1036
 30
0.0000
  0
SEQEND
  8
0
  0
ENDBLK
  8
0
  0
BLOCK
  8
0
  2
SQUAREP
 70
64
 10
0.0000
 20
0.0000
 30
0.0000
  3
SQUAREP
  0
SOLID
  8
0
 10
-0.5000
 20
-0.5000
 30
0.0000
 11
0.5000
 21
-0.5000
 31
0.0000
 12
-0.5000
 22
0.5000
 32
0.0000
 13
0.5000
 23
0.5000
 33
0.0000
  0
ENDBLK
  8
0
  0
BLOCK
  8
0
  2
ROUNDP
 70
64
 10
0.0000
 20
0.0000
 30
0.0000
  3
ROUNDP
  0
POLYLINE
  8
0
 66
1
 10
0.0000
 20
0.0000
 30
0.0000
 40
0.5000
 41
0.5000
 70
0
  0
VERTEX
  8
0
 10
0.0000
 20
-0.2500
 30
0.0000
 42
1.0000
  0
VERTEX
  8
0
 10
0.0000
 20
0.2500
 30
0.0000
 42
1.0000
  0
VERTEX
  8
0
 10
0.0000
 20
-0.2500
 30
0.0000
  0
SEQEND
  8
0
  0
ENDBLK
  8
0
  0
BLOCK
  8
0
  2
ANNULUSP
 70
64
 10
0.0000
 20
0.0000
 30
0.0000
  3
ANNULUSP
  0
POLYLINE
  8
0
 66
1
 10
0.0000
 20
0.0000
 30
0.0000
 40
0.5000
 41
0.5000
 70
0
  0
VERTEX
  8
0
 10
0.0000
 20
-0.2500
 30
0.0000
 42
1.0000
  0
VERTEX
  8
0
 10
0.0000
 20
0.2500
 30
0.0000
 42
1.0000
  0
VERTEX
  8
0
 10
0.0000
 20
-0.2500
 30
0.0000
  0
SEQEND
  8
0
  0
ENDBLK
  8
0
  0
BLOCK
  8
0
  2
THERMALP
 70
64
 10
0.0000
 20
0.0000
 30
0.0000
  3
THERMALP
  0
POLYLINE
  8
0
 66
1
 10
0.0000
 20
0.0000
 30
0.0000
 40
0.1000
 41
0.1000
 70
0
  0
VERTEX
  8
0
 10
-0.2379
 20
0.4500
 30
0.0000
  0
VERTEX
  8
0
 10
0.2379
 20
0.4500
 30
0.0000
  0
SEQEND
  8
0
  0
POLYLINE
  8
0
 66
1
 10
0.0000
 20
0.0000
 30
0.0000
 40
0.0500
 41
0.0500
 70
0
  0
VERTEX
  8
0
 10
0.2379
 20
0.4250
 30
0.0000
 42
1.0000
  0
VERTEX
  8
0
 10
0.2379
 20
0.4750
 30
0.0000
  0
SEQEND
  8
0
  0
POLYLINE
  8
0
 66
1
 10
0.0000
 20
0.0000
 30
0.0000
 40
0.0500
 41
0.0500
 70
0
  0
VERTEX
  8
0
 10
-0.2379
 20
0.4750
 30
0.0000
 42
1.0000
  0
VERTEX
  8
0
 10
-0.2379
 20
0.4250
 30
0.0000
  0
SEQEND
  8
0
  0
POLYLINE
  8
0
 66
1
 10
0.0000
 20
0.0000
 30
0.0000
 40
0.1000
 41
0.1000
 70
0
  0
VERTEX
  8
0
 10
0.4500
 20
0.2379
 30
0.0000
  0
VERTEX
  8
0
 10
0.4500
 20
-0.2379
 30
0.0000
  0
SEQEND
  8
0
  0
POLYLINE
  8
0
 66
1
 10
0.0000
 20
0.0000
 30
0.0000
 40
0.0500
 41
0.0500
 70
0
  0
VERTEX
  8
0
 10
0.4250
 20
-0.2379
 30
0.0000
 42
1.0000
  0
VERTEX
  8
0
 10
0.4750
 20
-0.2379
 30
0.0000
  0
SEQEND
  8
0
  0
POLYLINE
  8
0
 66
1
 10
0.0000
 20
0.0000
 30
0.0000
 40
0.0500
 41
0.0500
 70
0
  0
VERTEX
  8
0
 10
0.4750
 20
0.2379
 30
0.0000
 42
1.0000
  0
VERTEX
  8
0
 10
0.4250
 20
0.2379
 30
0.0000
  0
SEQEND
  8
0
  0
POLYLINE
  8
0
 66
1
 10
0.0000
 20
0.0000
 30
0.0000
 40
0.1000
 41
0.1000
 70
0
  0
VERTEX
  8
0
 10
0.2379
 20
-0.4500
 30
0.0000
  0
VERTEX
  8
0
 10
-0.2379
 20
-0.4500
 30
0.0000
  0
SEQEND
  8
0
  0
POLYLINE
  8
0
 66
1
 10
0.0000
 20
0.0000
 30
0.0000
 40
0.0500
 41
0.0500
 70
0
  0
VERTEX
  8
0
 10
-0.2379
 20
-0.4250
 30
0.0000
 42
1.0000
  0
VERTEX
  8
0
 10
-0.2379
 20
-0.4750
 30
0.0000
  0
SEQEND
  8
0
  0
POLYLINE
  8
0
 66
1
 10
0.0000
 20
0.0000
 30
0.0000
 40
0.0500
 41
0.0500
 70
0
  0
VERTEX
  8
0
 10
0.2379
 20
-0.4750
 30
0.0000
 42
1.0000
  0
VERTEX
  8
0
 10
0.2379
 20
-0.4250
 30
0.0000
  0
SEQEND
  8
0
  0
POLYLINE
  8
0
 66
1
 10
0.0000
 20
0.0000
 30
0.0000
 40
0.1000
 41
0.1000
 70
0
  0
VERTEX
  8
0
 10
-0.4500
 20
-0.2379
 30
0.0000
  0
VERTEX
  8
0
 10
-0.4500
 20
0.2379
 30
0.0000
  0
SEQEND
  8
0
  0
POLYLINE
  8
0
 66
1
 10
0.0000
 20
0.0000
 30
0.0000
 40
0.0500
 41
0.0500
 70
0
  0
VERTEX
  8
0
 10
-0.4250
 20
0.2379
 30
0.0000
 42
1.0000
  0
VERTEX
  8
0
 10
-0.4750
 20
0.2379
 30
0.0000
  0
SEQEND
  8
0
  0
POLYLINE
  8
0
 66
1
 10
0.0000
 20
0.0000
 30
0.0000
 40
0.0500
 41
0.0500
 70
0
  0
VERTEX
  8
0
 10
-0.4750
 20
-0.2379
 30
0.0000
 42
1.0000
  0
VERTEX
  8
0
 10
-0.4250
 20
-0.2379
 30
0.0000
  0
SEQEND
  8
0
  0
ENDBLK
  8
0
  0
BLOCK
  8
0
  2
OCTAGONV
 70
64
 10
0.0000
 20
0.0000
 30
0.0000
  3
OCTAGONV
  0
POLYLINE
  8
0
 66
1
 10
0.0000
 20
0.0000
 30
0.0000
 40
0.5000
 41
0.5000
 70
0
  0
VERTEX
  8
0
 10
-0.2500
 20
-0.1036
 30
0.0000
  0
VERTEX
  8
0
 10
-0.2500
 20
0.1036
 30
0.0000
  0
VERTEX
  8
0
 10
-0.1036
 20
0.2500
 30
0.0000
  0
VERTEX
  8
0
 10
0.1036
 20
0.2500
 30
0.0000
  0
VERTEX
  8
0
 10
0.2500
 20
0.1036
 30
0.0000
  0
VERTEX
  8
0
 10
0.2500
 20
-0.1036
 30
0.0000
  0
VERTEX
  8
0
 10
0.1036
 20
-0.2500
 30
0.0000
  0
VERTEX
  8
0
 10
-0.1036
 20
-0.2500
 30
0.0000
  0
VERTEX
  8
0
 10
-0.2500
 20
-0.1036
 30
0.0000
  0
VERTEX
  8
0
 10
-0.2500
 20
0.1036
 30
0.0000
  0
SEQEND
  8
0
  0
ENDBLK
  8
0
  0
BLOCK
  8
0
  2
SQUAREV
 70
64
 10
0.0000
 20
0.0000
 30
0.0000
  3
SQUAREV
  0
SOLID
  8
0
 10
-0.5000
 20
-0.5000
 30
0.0000
 11
0.5000
 21
-0.5000
 31
0.0000
 12
-0.5000
 22
0.5000
 32
0.0000
 13
0.5000
 23
0.5000
 33
0.0000
  0
ENDBLK
  8
0
  0
BLOCK
  8
0
  2
ROUNDV
 70
64
 10
0.0000
 20
0.0000
 30
0.0000
  3
ROUNDV
  0
POLYLINE
  8
0
 66
1
 10
0.0000
 20
0.0000
 30
0.0000
 40
0.5000
 41
0.5000
 70
0
  0
VERTEX
  8
0
 10
0.0000
 20
-0.2500
 30
0.0000
 42
1.0000
  0
VERTEX
  8
0
 10
0.0000
 20
0.2500
 30
0.0000
 42
1.0000
  0
VERTEX
  8
0
 10
0.0000
 20
-0.2500
 30
0.0000
  0
SEQEND
  8
0
  0
ENDBLK
  8
0
  0
BLOCK
  8
0
  2
ANNULUSV
 70
64
 10
0.0000
 20
0.0000
 30
0.0000
  3
ANNULUSV
  0
POLYLINE
  8
0
 66
1
 10
0.0000
 20
0.0000
 30
0.0000
 40
0.5000
 41
0.5000
 70
0
  0
VERTEX
  8
0
 10
0.0000
 20
-0.2500
 30
0.0000
 42
1.0000
  0
VERTEX
  8
0
 10
0.0000
 20
0.2500
 30
0.0000
 42
1.0000
  0
VERTEX
  8
0
 10
0.0000
 20
-0.2500
 30
0.0000
  0
SEQEND
  8
0
  0
ENDBLK
  8
0
  0
BLOCK
  8
0
  2
THERMALV
 70
64
 10
0.0000
 20
0.0000
 30
0.0000
  3
THERMALV
  0
POLYLINE
  8
0
 66
1
 10
0.0000
 20
0.0000
 30
0.0000
 40
0.1000
 41
0.1000
 70
0
  0
VERTEX
  8
0
 10
-0.2379
 20
0.4500
 30
0.0000
  0
VERTEX
  8
0
 10
0.2379
 20
0.4500
 30
0.0000
  0
SEQEND
  8
0
  0
POLYLINE
  8
0
 66
1
 10
0.0000
 20
0.0000
 30
0.0000
 40
0.0500
 41
0.0500
 70
0
  0
VERTEX
  8
0
 10
0.2379
 20
0.4250
 30
0.0000
 42
1.0000
  0
VERTEX
  8
0
 10
0.2379
 20
0.4750
 30
0.0000
  0
SEQEND
  8
0
  0
POLYLINE
  8
0
 66
1
 10
0.0000
 20
0.0000
 30
0.0000
 40
0.0500
 41
0.0500
 70
0
  0
VERTEX
  8
0
 10
-0.2379
 20
0.4750
 30
0.0000
 42
1.0000
  0
VERTEX
  8
0
 10
-0.2379
 20
0.4250
 30
0.0000
  0
SEQEND
  8
0
  0
POLYLINE
  8
0
 66
1
 10
0.0000
 20
0.0000
 30
0.0000
 40
0.1000
 41
0.1000
 70
0
  0
VERTEX
  8
0
 10
0.4500
 20
0.2379
 30
0.0000
  0
VERTEX
  8
0
 10
0.4500
 20
-0.2379
 30
0.0000
  0
SEQEND
  8
0
  0
POLYLINE
  8
0
 66
1
 10
0.0000
 20
0.0000
 30
0.0000
 40
0.0500
 41
0.0500
 70
0
  0
VERTEX
  8
0
 10
0.4250
 20
-0.2379
 30
0.0000
 42
1.0000
  0
VERTEX
  8
0
 10
0.4750
 20
-0.2379
 30
0.0000
  0
SEQEND
  8
0
  0
POLYLINE
  8
0
 66
1
 10
0.0000
 20
0.0000
 30
0.0000
 40
0.0500
 41
0.0500
 70
0
  0
VERTEX
  8
0
 10
0.4750
 20
0.2379
 30
0.0000
 42
1.0000
  0
VERTEX
  8
0
 10
0.4250
 20
0.2379
 30
0.0000
  0
SEQEND
  8
0
  0
POLYLINE
  8
0
 66
1
 10
0.0000
 20
0.0000
 30
0.0000
 40
0.1000
 41
0.1000
 70
0
  0
VERTEX
  8
0
 10
0.2379
 20
-0.4500
 30
0.0000
  0
VERTEX
  8
0
 10
-0.2379
 20
-0.4500
 30
0.0000
  0
SEQEND
  8
0
  0
POLYLINE
  8
0
 66
1
 10
0.0000
 20
0.0000
 30
0.0000
 40
0.0500
 41
0.0500
 70
0
  0
VERTEX
  8
0
 10
-0.2379
 20
-0.4250
 30
0.0000
 42
1.0000
  0
VERTEX
  8
0
 10
-0.2379
 20
-0.4750
 30
0.0000
  0
SEQEND
  8
0
  0
POLYLINE
  8
0
 66
1
 10
0.0000
 20
0.0000
 30
0.0000
 40
0.0500
 41
0.0500
 70
0
  0
VERTEX
  8
0
 10
0.2379
 20
-0.4750
 30
0.0000
 42
1.0000
  0
VERTEX
  8
0
 10
0.2379
 20
-0.4250
 30
0.0000
  0
SEQEND
  8
0
  0
POLYLINE
  8
0
 66
1
 10
0.0000
 20
0.0000
 30
0.0000
 40
0.1000
 41
0.1000
 70
0
  0
VERTEX
  8
0
 10
-0.4500
 20
-0.2379
 30
0.0000
  0
VERTEX
  8
0
 10
-0.4500
 20
0.2379
 30
0.0000
  0
SEQEND
  8
0
  0
POLYLINE
  8
0
 66
1
 10
0.0000
 20
0.0000
 30
0.0000
 40
0.0500
 41
0.0500
 70
0
  0
VERTEX
  8
0
 10
-0.4250
 20
0.2379
 30
0.0000
 42
1.0000
  0
VERTEX
  8
0
 10
-0.4750
 20
0.2379
 30
0.0000
  0
SEQEND
  8
0
  0
POLYLINE
  8
0
 66
1
 10
0.0000
 20
0.0000
 30
0.0000
 40
0.0500
 41
0.0500
 70
0
  0
VERTEX
  8
0
 10
-0.4750
 20
-0.2379
 30
0.0000
 42
1.0000
  0
VERTEX
  8
0
 10
-0.4250
 20
-0.2379
 30
0.0000
  0
SEQEND
  8
0
  0
ENDBLK
  8
0
  0
ENDSEC
  0
SECTION
  2
ENTITIES
  0
LINE
  8
20
 10
91.3001
 20
94.9001
 30
0.0000
 11
2.0001
 21
95.0099
 31
0.0000
  0
ARC
  8
20
 10
2.0080
 20
93.0019
 30
0.0000
 40
2.0080
 50
90.2231
 51
179.7731
  0
LINE
  8
20
 10
0.0000
 20
93.0099
 30
0.0000
 11
0.0000
 21
2.0000
 31
0.0000
  0
ARC
  8
20
 10
2.0000
 20
2.0000
 30
0.0000
 40
2.0000
 50
180.0000
 51
270.0000
  0
LINE
  8
20
 10
2.0000
 20
0.0000
 30
0.0000
 11
91.3000
 21
-0.1000
 31
0.0000
  0
ARC
  8
20
 10
91.3000
 20
1.9000
 30
0.0000
 40
2.0000
 50
270.0000
 51
0.0000
  0
LINE
  8
20
 10
93.3000
 20
1.9000
 30
0.0000
 11
93.3000
 21
92.9001
 31
0.0000
  0
ARC
  8
20
 10
91.3000
 20
92.9001
 30
0.0000
 40
2.0000
 50
0.0000
 51
89.9962
  0
POINT
  8
23
 10
144.0000
 20
6.0000
 30
0.0000
  0
POLYLINE
  8
51
 66
1
 10
0.0000
 20
0.0000
 30
0.0000
 40
0.1270
 41
0.1270
 70
0
  0
VERTEX
  8
51
 10
142.1669
 20
9.1750
 30
0.0000
  0
VERTEX
  8
51
 10
145.8331
 20
9.1750
 30
0.0000
  0
SEQEND
  8
0
  0
POLYLINE
  8
51
 66
1
 10
0.0000
 20
0.0000
 30
0.0000
 40
0.0635
 41
0.0635
 70
0
  0
VERTEX
  8
51
 10
145.8331
 20
9.1433
 30
0.0000
 42
1.0000
  0
VERTEX
  8
51
 10
145.8331
 20
9.2068
 30
0.0000
  0
SEQEND
  8
0
  0
POLYLINE
  8
51
 66
1
 10
0.0000
 20
0.0000
 30
0.0000
 40
0.0635
 41
0.0635
 70
0
  0
VERTEX
  8
51
 10
142.1669
 20
9.2068
 30
0.0000
 42
1.0000
  0
VERTEX
  8
51
 10
142.1669
 20
9.1433
 30
0.0000
  0
SEQEND
  8
0
  0
POLYLINE
  8
51
 66
1
 10
0.0000
 20
0.0000
 30
0.0000
 40
0.1270
 41
0.1270
 70
0
  0
VERTEX
  8
51
 10
145.8331
 20
9.1750
 30
0.0000
  0
VERTEX
  8
51
 10
147.6662
 20
6.0000
 30
0.0000
  0
SEQEND
  8
0
  0
POLYLINE
  8
51
 66
1
 10
0.0000
 20
0.0000
 30
0.0000
 40
0.0635
 41
0.0635
 70
0
  0
VERTEX
  8
51
 10
147.6387
 20
5.9841
 30
0.0000
 42
1.0000
  0
VERTEX
  8
51
 10
147.6937
 20
6.0159
 30
0.0000
  0
SEQEND
  8
0
  0
POLYLINE
  8
51
 66
1
 10
0.0000
 20
0.0000
 30
0.0000
 40
0.0635
 41
0.0635
 70
0
  0
VERTEX
  8
51
 10
145.8606
 20
9.1909
 30
0.0000
 42
1.0000
  0
VERTEX
  8
51
 10
145.8056
 20
9.1591
 30
0.0000
  0
SEQEND
  8
0
  0
POLYLINE
  8
51
 66
1
 10
0.0000
 20
0.0000
 30
0.0000
 40
0.1270
 41
0.1270
 70
0
  0
VERTEX
  8
51
 10
147.6662
 20
6.0000
 30
0.0000
  0
VERTEX
  8
51
 10
145.8331
 20
2.8250
 30
0.0000
  0
SEQEND
  8
0
  0
POLYLINE
  8
51
 66
1
 10
0.0000
 20
0.0000
 30
0.0000
 40
0.0635
 41
0.0635
 70
0
  0
VERTEX
  8
51
 10
145.8056
 20
2.8409
 30
0.0000
 42
1.0000
  0
VERTEX
  8
51
 10
145.8606
 20
2.8091
 30
0.0000
  0
SEQEND
  8
0
  0
POLYLINE
  8
51
 66
1
 10
0.0000
 20
0.0000
 30
0.0000
 40
0.0635
 41
0.0635
 70
0
  0
VERTEX
  8
51
 10
147.6937
 20
5.9841
 30
0.0000
 42
1.0000
  0
VERTEX
  8
51
 10
147.6387
 20
6.0159
 30
0.0000
  0
SEQEND
  8
0
  0
POLYLINE
  8
51
 66
1
 10
0.0000
 20
0.0000
 30
0.0000
 40
0.1270
 41
0.1270
 70
0
  0
VERTEX
  8
51
 10
145.8331
 20
2.8250
 30
0.0000
  0
VERTEX
  8
51
 10
142.1669
 20
2.8250
 30
0.0000
  0
SEQEND
  8
0
  0
POLYLINE
  8
51
 66
1
 10
0.0000
 20
0.0000
 30
0.0000
 40
0.0635
 41
0.0635
 70
0
  0
VERTEX
  8
51
 10
142.1669
 20
2.8568
 30
0.0000
 42
1.0000
  0
VERTEX
  8
51
 10
142.1669
 20
2.7933
 30
0.0000
  0
SEQEND
  8
0
  0
POLYLINE
  8
51
 66
1
 10
0.0000
 20
0.0000
 30
0.0000
 40
0.0635
 41
0.0635
 70
0
  0
VERTEX
  8
51
 10
145.8331
 20
2.7933
 30
0.0000
 42
1.0000
  0
VERTEX
  8
51
 10
145.8331
 20
2.8568
 30
0.0000
  0
SEQEND
  8
0
  0
POLYLINE
  8
51
 66
1
 10
0.0000
 20
0.0000
 30
0.0000
 40
0.1270
 41
0.1270
 70
0
  0
VERTEX
  8
51
 10
142.1669
 20
2.8250
 30
0.0000
  0
VERTEX
  8
51
 10
140.3339
 20
6.0000
 30
0.0000
  0
SEQEND
  8
0
  0
POLYLINE
  8
51
 66
1
 10
0.0000
 20
0.0000
 30
0.0000
 40
0.0635
 41
0.0635
 70
0
  0
VERTEX
  8
51
 10
140.3614
 20
6.0159
 30
0.0000
 42
1.0000
  0
VERTEX
  8
51
 10
140.3064
 20
5.9841
 30
0.0000
  0
SEQEND
  8
0
  0
POLYLINE
  8
51
 66
1
 10
0.0000
 20
0.0000
 30
0.0000
 40
0.0635
 41
0.0635
 70
0
  0
VERTEX
  8
51
 10
142.1394
 20
2.8091
 30
0.0000
 42
1.0000
  0
VERTEX
  8
51
 10
142.1944
 20
2.8409
 30
0.0000
  0
SEQEND
  8
0
  0
POLYLINE
  8
51
 66
1
 10
0.0000
 20
0.0000
 30
0.0000
 40
0.1270
 41
0.1270
 70
0
  0
VERTEX
  8
51
 10
140.3339
 20
6.0000
 30
0.0000
  0
VERTEX
  8
51
 10
142.1669
 20
9.1750
 30
0.0000
  0
SEQEND
  8
0
  0
POLYLINE
  8
51
 66
1
 10
0.0000
 20
0.0000
 30
0.0000
 40
0.0635
 41
0.0635
 70
0
  0
VERTEX
  8
51
 10
142.1944
 20
9.1591
 30
0.0000
 42
1.0000
  0
VERTEX
  8
51
 10
142.1394
 20
9.1909
 30
0.0000
  0
SEQEND
  8
0
  0
POLYLINE
  8
51
 66
1
 10
0.0000
 20
0.0000
 30
0.0000
 40
0.0635
 41
0.0635
 70
0
  0
VERTEX
  8
51
 10
140.3064
 20
6.0159
 30
0.0000
 42
1.0000
  0
VERTEX
  8
51
 10
140.3614
 20
5.9841
 30
0.0000
  0
SEQEND
  8
0
  0
POLYLINE
  8
33
 66
1
 10
0.0000
 20
0.0000
 30
0.0000
 40
0.1270
 41
0.1270
 70
0
  0
VERTEX
  8
33
 10
142.1669
 20
9.1750
 30
0.0000
  0
VERTEX
  8
33
 10
145.8331
 20
9.1750
 30
0.0000
  0
SEQEND
  8
0
  0
POLYLINE
  8
33
 66
1
 10
0.0000
 20
0.0000
 30
0.0000
 40
0.0635
 41
0.0635
 70
0
  0
VERTEX
  8
33
 10
145.8331
 20
9.1433
 30
0.0000
 42
1.0000
  0
VERTEX
  8
33
 10
145.8331
 20
9.2068
 30
0.0000
  0
SEQEND
  8
0
  0
POLYLINE
  8
33
 66
1
 10
0.0000
 20
0.0000
 30
0.0000
 40
0.0635
 41
0.0635
 70
0
  0
VERTEX
  8
33
 10
142.1669
 20
9.2068
 30
0.0000
 42
1.0000
  0
VERTEX
  8
33
 10
142.1669
 20
9.1433
 30
0.0000
  0
SEQEND
  8
0
  0
POLYLINE
  8
33
 66
1
 10
0.0000
 20
0.0000
 30
0.0000
 40
0.1270
 41
0.1270
 70
0
  0
VERTEX
  8
33
 10
145.8331
 20
9.1750
 30
0.0000
  0
VERTEX
  8
33
 10
147.6662
 20
6.0000
 30
0.0000
  0
SEQEND
  8
0
  0
POLYLINE
  8
33
 66
1
 10
0.0000
 20
0.0000
 30
0.0000
 40
0.0635
 41
0.0635
 70
0
  0
VERTEX
  8
33
 10
147.6387
 20
5.9841
 30
0.0000
 42
1.0000
  0
VERTEX
  8
33
 10
147.6937
 20
6.0159
 30
0.0000
  0
SEQEND
  8
0
  0
POLYLINE
  8
33
 66
1
 10
0.0000
 20
0.0000
 30
0.0000
 40
0.0635
 41
0.0635
 70
0
  0
VERTEX
  8
33
 10
145.8606
 20
9.1909
 30
0.0000
 42
1.0000
  0
VERTEX
  8
33
 10
145.8056
 20
9.1591
 30
0.0000
  0
SEQEND
  8
0
  0
POLYLINE
  8
33
 66
1
 10
0.0000
 20
0.0000
 30
0.0000
 40
0.1270
 41
0.1270
 70
0
  0
VERTEX
  8
33
 10
147.6662
 20
6.0000
 30
0.0000
  0
VERTEX
  8
33
 10
145.8331
 20
2.8250
 30
0.0000
  0
SEQEND
  8
0
  0
POLYLINE
  8
33
 66
1
 10
0.0000
 20
0.0000
 30
0.0000
 40
0.0635
 41
0.0635
 70
0
  0
VERTEX
  8
33
 10
145.8056
 20
2.8409
 30
0.0000
 42
1.0000
  0
VERTEX
  8
33
 10
145.8606
 20
2.8091
 30
0.0000
  0
SEQEND
  8
0
  0
POLYLINE
  8
33
 66
1
 10
0.0000
 20
0.0000
 30
0.0000
 40
0.0635
 41
0.0635
 70
0
  0
VERTEX
  8
33
 10
147.6937
 20
5.9841
 30
0.0000
 42
1.0000
  0
VERTEX
  8
33
 10
147.6387
 20
6.0159
 30
0.0000
  0
SEQEND
  8
0
  0
POLYLINE
  8
33
 66
1
 10
0.0000
 20
0.0000
 30
0.0000
 40
0.1270
 41
0.1270
 70
0
  0
VERTEX
  8
33
 10
145.8331
 20
2.8250
 30
0.0000
  0
VERTEX
  8
33
 10
142.1669
 20
2.8250
 30
0.0000
  0
SEQEND
  8
0
  0
POLYLINE
  8
33
 66
1
 10
0.0000
 20
0.0000
 30
0.0000
 40
0.0635
 41
0.0635
 70
0
  0
VERTEX
  8
33
 10
142.1669
 20
2.8568
 30
0.0000
 42
1.0000
  0
VERTEX
  8
33
 10
142.1669
 20
2.7933
 30
0.0000
  0
SEQEND
  8
0
  0
POLYLINE
  8
33
 66
1
 10
0.0000
 20
0.0000
 30
0.0000
 40
0.0635
 41
0.0635
 70
0
  0
VERTEX
  8
33
 10
145.8331
 20
2.7933
 30
0.0000
 42
1.0000
  0
VERTEX
  8
33
 10
145.8331
 20
2.8568
 30
0.0000
  0
SEQEND
  8
0
  0
POLYLINE
  8
33
 66
1
 10
0.0000
 20
0.0000
 30
0.0000
 40
0.1270
 41
0.1270
 70
0
  0
VERTEX
  8
33
 10
142.1669
 20
2.8250
 30
0.0000
  0
VERTEX
  8
33
 10
140.3339
 20
6.0000
 30
0.0000
  0
SEQEND
  8
0
  0
POLYLINE
  8
33
 66
1
 10
0.0000
 20
0.0000
 30
0.0000
 40
0.0635
 41
0.0635
 70
0
  0
VERTEX
  8
33
 10
140.3614
 20
6.0159
 30
0.0000
 42
1.0000
  0
VERTEX
  8
33
 10
140.3064
 20
5.9841
 30
0.0000
  0
SEQEND
  8
0
  0
POLYLINE
  8
33
 66
1
 10
0.0000
 20
0.0000
 30
0.0000
 40
0.0635
 41
0.0635
 70
0
  0
VERTEX
  8
33
 10
142.1394
 20
2.8091
 30
0.0000
 42
1.0000
  0
VERTEX
  8
33
 10
142.1944
 20
2.8409
 30
0.0000
  0
SEQEND
  8
0
  0
POLYLINE
  8
33
 66
1
 10
0.0000
 20
0.0000
 30
0.0000
 40
0.1270
 41
0.1270
 70
0
  0
VERTEX
  8
33
 10
140.3339
 20
6.0000
 30
0.0000
  0
VERTEX
  8
33
 10
142.1669
 20
9.1750
 30
0.0000
  0
SEQEND
  8
0
  0
POLYLINE
  8
33
 66
1
 10
0.0000
 20
0.0000
 30
0.0000
 40
0.0635
 41
0.0635
 70
0
  0
VERTEX
  8
33
 10
142.1944
 20
9.1591
 30
0.0000
 42
1.0000
  0
VERTEX
  8
33
 10
142.1394
 20
9.1909
 30
0.0000
  0
SEQEND
  8
0
  0
POLYLINE
  8
33
 66
1
 10
0.0000
 20
0.0000
 30
0.0000
 40
0.0635
 41
0.0635
 70
0
  0
VERTEX
  8
33
 10
140.3064
 20
6.0159
 30
0.0000
 42
1.0000
  0
VERTEX
  8
33
 10
140.3614
 20
5.9841
 30
0.0000
  0
SEQEND
  8
0
  0
POLYLINE
  8
51
 66
1
 10
0.0000
 20
0.0000
 30
0.0000
 40
0.2540
 41
0.2540
 70
0
  0
VERTEX
  8
51
 10
144.0000
 20
3.1425
 30
0.0000
 42
1.0000
  0
VERTEX
  8
51
 10
144.0000
 20
8.8575
 30
0.0000
 42
1.0000
  0
VERTEX
  8
51
 10
144.0000
 20
3.1425
 30
0.0000
  0
SEQEND
  8
0
  0
POLYLINE
  8
21
 66
1
 10
0.0000
 20
0.0000
 30
0.0000
 40
0.2540
 41
0.2540
 70
0
  0
VERTEX
  8
21
 10
144.0000
 20
2.1900
 30
0.0000
 42
1.0000
  0
VERTEX
  8
21
 10
144.0000
 20
9.8100
 30
0.0000
 42
1.0000
  0
VERTEX
  8
21
 10
144.0000
 20
2.1900
 30
0.0000
  0
SEQEND
  8
0
  0
POLYLINE
  8
41
 66
1
 10
0.0000
 20
0.0000
 30
0.0000
 40
3.8100
 41
3.8100
 70
0
  0
VERTEX
  8
41
 10
144.0000
 20
4.0950
 30
0.0000
 42
1.0000
  0
VERTEX
  8
41
 10
144.0000
 20
7.9050
 30
0.0000
 42
1.0000
  0
VERTEX
  8
41
 10
144.0000
 20
4.0950
 30
0.0000
  0
SEQEND
  8
0
  0
POLYLINE
  8
42
 66
1
 10
0.0000
 20
0.0000
 30
0.0000
 40
3.8100
 41
3.8100
 70
0
  0
VERTEX
  8
42
 10
144.0000
 20
4.0950
 30
0.0000
 42
1.0000
  0
VERTEX
  8
42
 10
144.0000
 20
7.9050
 30
0.0000
 42
1.0000
  0
VERTEX
  8
42
 10
144.0000
 20
4.0950
 30
0.0000
  0
SEQEND
  8
0
  0
POLYLINE
  8
33
 66
1
 10
0.0000
 20
0.0000
 30
0.0000
 40
0.2540
 41
0.2540
 70
0
  0
VERTEX
  8
33
 10
144.0000
 20
3.1425
 30
0.0000
 42
1.0000
  0
VERTEX
  8
33
 10
144.0000
 20
8.8575
 30
0.0000
 42
1.0000
  0
VERTEX
  8
33
 10
144.0000
 20
3.1425
 30
0.0000
  0
SEQEND
  8
0
  0
CIRCLE
  8
20
 10
144.0000
 20
6.0000
 30
0.0000
 40
1.5875
  0
POLYLINE
  8
29
 66
1
 10
0.0000
 20
0.0000
 30
0.0000
 40
1.6510
 41
1.6510
 70
0
  0
VERTEX
  8
29
 10
144.0000
 20
5.1745
 30
0.0000
 42
1.0000
  0
VERTEX
  8
29
 10
144.0000
 20
6.8255
 30
0.0000
 42
1.0000
  0
VERTEX
  8
29
 10
144.0000
 20
5.1745
 30
0.0000
  0
SEQEND
  8
0
  0
POLYLINE
  8
30
 66
1
 10
0.0000
 20
0.0000
 30
0.0000
 40
1.6510
 41
1.6510
 70
0
  0
VERTEX
  8
30
 10
144.0000
 20
5.1745
 30
0.0000
 42
1.0000
  0
VERTEX
  8
30
 10
144.0000
 20
6.8255
 30
0.0000
 42
1.0000
  0
VERTEX
  8
30
 10
144.0000
 20
5.1745
 30
0.0000
  0
SEQEND
  8
0
  0
POLYLINE
  8
25
 66
1
 10
0.0000
 20
0.0000
 30
0.0000
 40
0.1016
 41
0.1016
 70
0
  0
VERTEX
  8
25
 10
146.9083
 20
8.9083
 30
0.0000
  0
VERTEX
  8
25
 10
146.9083
 20
10.0777
 30
0.0000
  0
SEQEND
  8
0
  0
POLYLINE
  8
25
 66
1
 10
0.0000
 20
0.0000
 30
0.0000
 40
0.0508
 41
0.0508
 70
0
  0
VERTEX
  8
25
 10
146.9337
 20
10.0777
 30
0.0000
 42
1.0000
  0
VERTEX
  8
25
 10
146.8829
 20
10.0777
 30
0.0000
  0
SEQEND
  8
0
  0
POLYLINE
  8
25
 66
1
 10
0.0000
 20
0.0000
 30
0.0000
 40
0.0508
 41
0.0508
 70
0
  0
VERTEX
  8
25
 10
146.8829
 20
8.9083
 30
0.0000
 42
1.0000
  0
VERTEX
  8
25
 10
146.9337
 20
8.9083
 30
0.0000
  0
SEQEND
  8
0
  0
POLYLINE
  8
25
 66
1
 10
0.0000
 20
0.0000
 30
0.0000
 40
0.1016
 41
0.1016
 70
0
  0
VERTEX
  8
25
 10
146.9083
 20
9.4930
 30
0.0000
  0
VERTEX
  8
25
 10
147.6879
 20
9.4930
 30
0.0000
  0
SEQEND
  8
0
  0
POLYLINE
  8
25
 66
1
 10
0.0000
 20
0.0000
 30
0.0000
 40
0.0508
 41
0.0508
 70
0
  0
VERTEX
  8
25
 10
147.6879
 20
9.4676
 30
0.0000
 42
1.0000
  0
VERTEX
  8
25
 10
147.6879
 20
9.5184
 30
0.0000
  0
SEQEND
  8
0
  0
POLYLINE
  8
25
 66
1
 10
0.0000
 20
0.0000
 30
0.0000
 40
0.0508
 41
0.0508
 70
0
  0
VERTEX
  8
25
 10
146.9083
 20
9.5184
 30
0.0000
 42
1.0000
  0
VERTEX
  8
25
 10
146.9083
 20
9.4676
 30
0.0000
  0
SEQEND
  8
0
  0
POLYLINE
  8
25
 66
1
 10
0.0000
 20
0.0000
 30
0.0000
 40
0.1016
 41
0.1016
 70
0
  0
VERTEX
  8
25
 10
147.6879
 20
10.0777
 30
0.0000
  0
VERTEX
  8
25
 10
147.6879
 20
8.9083
 30
0.0000
  0
SEQEND
  8
0
  0
POLYLINE
  8
25
 66
1
 10
0.0000
 20
0.0000
 30
0.0000
 40
0.0508
 41
0.0508
 70
0
  0
VERTEX
  8
25
 10
147.6625
 20
8.9083
 30
0.0000
 42
1.0000
  0
VERTEX
  8
25
 10
147.7133
 20
8.9083
 30
0.0000
  0
SEQEND
  8
0
  0
POLYLINE
  8
25
 66
1
 10
0.0000
 20
0.0000
 30
0.0000
 40
0.0508
 41
0.0508
 70
0
  0
VERTEX
  8
25
 10
147.7133
 20
10.0777
 30
0.0000
 42
1.0000
  0
VERTEX
  8
25
 10
147.6625
 20
10.0777
 30
0.0000
  0
SEQEND
  8
0
  0
POLYLINE
  8
25
 66
1
 10
0.0000
 20
0.0000
 30
0.0000
 40
0.1016
 41
0.1016
 70
0
  0
VERTEX
  8
25
 10
148.0777
 20
9.6879
 30
0.0000
  0
VERTEX
  8
25
 10
148.4675
 20
10.0777
 30
0.0000
  0
SEQEND
  8
0
  0
POLYLINE
  8
25
 66
1
 10
0.0000
 20
0.0000
 30
0.0000
 40
0.0508
 41
0.0508
 70
0
  0
VERTEX
  8
25
 10
148.4855
 20
10.0597
 30
0.0000
 42
1.0000
  0
VERTEX
  8
25
 10
148.4495
 20
10.0957
 30
0.0000
  0
SEQEND
  8
0
  0
POLYLINE
  8
25
 66
1
 10
0.0000
 20
0.0000
 30
0.0000
 40
0.0508
 41
0.0508
 70
0
  0
VERTEX
  8
25
 10
148.0597
 20
9.7059
 30
0.0000
 42
1.0000
  0
VERTEX
  8
25
 10
148.0957
 20
9.6699
 30
0.0000
  0
SEQEND
  8
0
  0
POLYLINE
  8
25
 66
1
 10
0.0000
 20
0.0000
 30
0.0000
 40
0.1016
 41
0.1016
 70
0
  0
VERTEX
  8
25
 10
148.4675
 20
10.0777
 30
0.0000
  0
VERTEX
  8
25
 10
148.4675
 20
8.9083
 30
0.0000
  0
SEQEND
  8
0
  0
POLYLINE
  8
25
 66
1
 10
0.0000
 20
0.0000
 30
0.0000
 40
0.0508
 41
0.0508
 70
0
  0
VERTEX
  8
25
 10
148.4421
 20
8.9083
 30
0.0000
 42
1.0000
  0
VERTEX
  8
25
 10
148.4929
 20
8.9083
 30
0.0000
  0
SEQEND
  8
0
  0
POLYLINE
  8
25
 66
1
 10
0.0000
 20
0.0000
 30
0.0000
 40
0.0508
 41
0.0508
 70
0
  0
VERTEX
  8
25
 10
148.4929
 20
10.0777
 30
0.0000
 42
1.0000
  0
VERTEX
  8
25
 10
148.4421
 20
10.0777
 30
0.0000
  0
SEQEND
  8
0
  0
POLYLINE
  8
25
 66
1
 10
0.0000
 20
0.0000
 30
0.0000
 40
0.1016
 41
0.1016
 70
0
  0
VERTEX
  8
25
 10
148.0777
 20
8.9083
 30
0.0000
  0
VERTEX
  8
25
 10
148.8573
 20
8.9083
 30
0.0000
  0
SEQEND
  8
0
  0
POLYLINE
  8
25
 66
1
 10
0.0000
 20
0.0000
 30
0.0000
 40
0.0508
 41
0.0508
 70
0
  0
VERTEX
  8
25
 10
148.8573
 20
8.8829
 30
0.0000
 42
1.0000
  0
VERTEX
  8
25
 10
148.8573
 20
8.9337
 30
0.0000
  0
SEQEND
  8
0
  0
POLYLINE
  8
25
 66
1
 10
0.0000
 20
0.0000
 30
0.0000
 40
0.0508
 41
0.0508
 70
0
  0
VERTEX
  8
25
 10
148.0777
 20
8.9337
 30
0.0000
 42
1.0000
  0
VERTEX
  8
25
 10
148.0777
 20
8.8829
 30
0.0000
  0
SEQEND
  8
0
  0
POLYLINE
  8
33
 66
1
 10
0.0000
 20
0.0000
 30
0.0000
 40
0.0762
 41
0.0762
 70
0
  0
VERTEX
  8
33
 10
143.0381
 20
9.5381
 30
0.0000
  0
VERTEX
  8
33
 10
143.0381
 20
9.9623
 30
0.0000
  0
SEQEND
  8
0
  0
POLYLINE
  8
33
 66
1
 10
0.0000
 20
0.0000
 30
0.0000
 40
0.0381
 41
0.0381
 70
0
  0
VERTEX
  8
33
 10
143.0572
 20
9.9623
 30
0.0000
 42
1.0000
  0
VERTEX
  8
33
 10
143.0191
 20
9.9623
 30
0.0000
  0
SEQEND
  8
0
  0
POLYLINE
  8
33
 66
1
 10
0.0000
 20
0.0000
 30
0.0000
 40
0.0381
 41
0.0381
 70
0
  0
VERTEX
  8
33
 10
143.0191
 20
9.5381
 30
0.0000
 42
1.0000
  0
VERTEX
  8
33
 10
143.0572
 20
9.5381
 30
0.0000
  0
SEQEND
  8
0
  0
POLYLINE
  8
33
 66
1
 10
0.0000
 20
0.0000
 30
0.0000
 40
0.0762
 41
0.0762
 70
0
  0
VERTEX
  8
33
 10
143.0381
 20
9.7502
 30
0.0000
  0
VERTEX
  8
33
 10
143.3209
 20
9.7502
 30
0.0000
  0
SEQEND
  8
0
  0
POLYLINE
  8
33
 66
1
 10
0.0000
 20
0.0000
 30
0.0000
 40
0.0381
 41
0.0381
 70
0
  0
VERTEX
  8
33
 10
143.3209
 20
9.7311
 30
0.0000
 42
1.0000
  0
VERTEX
  8
33
 10
143.3209
 20
9.7692
 30
0.0000
  0
SEQEND
  8
0
  0
POLYLINE
  8
33
 66
1
 10
0.0000
 20
0.0000
 30
0.0000
 40
0.0381
 41
0.0381
 70
0
  0
VERTEX
  8
33
 10
143.0381
 20
9.7692
 30
0.0000
 42
1.0000
  0
VERTEX
  8
33
 10
143.0381
 20
9.7311
 30
0.0000
  0
SEQEND
  8
0
  0
POLYLINE
  8
33
 66
1
 10
0.0000
 20
0.0000
 30
0.0000
 40
0.0762
 41
0.0762
 70
0
  0
VERTEX
  8
33
 10
143.3209
 20
9.9623
 30
0.0000
  0
VERTEX
  8
33
 10
143.3209
 20
9.5381
 30
0.0000
  0
SEQEND
  8
0
  0
POLYLINE
  8
33
 66
1
 10
0.0000
 20
0.0000
 30
0.0000
 40
0.0381
 41
0.0381
 70
0
  0
VERTEX
  8
33
 10
143.3018
 20
9.5381
 30
0.0000
 42
1.0000
  0
VERTEX
  8
33
 10
143.3399
 20
9.5381
 30
0.0000
  0
SEQEND
  8
0
  0
POLYLINE
  8
33
 66
1
 10
0.0000
 20
0.0000
 30
0.0000
 40
0.0381
 41
0.0381
 70
0
  0
VERTEX
  8
33
 10
143.3399
 20
9.9623
 30
0.0000
 42
1.0000
  0
VERTEX
  8
33
 10
143.3018
 20
9.9623
 30
0.0000
  0
SEQEND
  8
0
  0
POLYLINE
  8
33
 66
1
 10
0.0000
 20
0.0000
 30
0.0000
 40
0.0762
 41
0.0762
 70
0
  0
VERTEX
  8
33
 10
143.4985
 20
9.8209
 30
0.0000
  0
VERTEX
  8
33
 10
143.6399
 20
9.9623
 30
0.0000
  0
SEQEND
  8
0
  0
POLYLINE
  8
33
 66
1
 10
0.0000
 20
0.0000
 30
0.0000
 40
0.0381
 41
0.0381
 70
0
  0
VERTEX
  8
33
 10
143.6533
 20
9.9488
 30
0.0000
 42
1.0000
  0
VERTEX
  8
33
 10
143.6264
 20
9.9757
 30
0.0000
  0
SEQEND
  8
0
  0
POLYLINE
  8
33
 66
1
 10
0.0000
 20
0.0000
 30
0.0000
 40
0.0381
 41
0.0381
 70
0
  0
VERTEX
  8
33
 10
143.4850
 20
9.8343
 30
0.0000
 42
1.0000
  0
VERTEX
  8
33
 10
143.5120
 20
9.8074
 30
0.0000
  0
SEQEND
  8
0
  0
POLYLINE
  8
33
 66
1
 10
0.0000
 20
0.0000
 30
0.0000
 40
0.0762
 41
0.0762
 70
0
  0
VERTEX
  8
33
 10
143.6399
 20
9.9623
 30
0.0000
  0
VERTEX
  8
33
 10
143.6399
 20
9.5381
 30
0.0000
  0
SEQEND
  8
0
  0
POLYLINE
  8
33
 66
1
 10
0.0000
 20
0.0000
 30
0.0000
 40
0.0381
 41
0.0381
 70
0
  0
VERTEX
  8
33
 10
143.6208
 20
9.5381
 30
0.0000
 42
1.0000
  0
VERTEX
  8
33
 10
143.6589
 20
9.5381
 30
0.0000
  0
SEQEND
  8
0
  0
POLYLINE
  8
33
 66
1
 10
0.0000
 20
0.0000
 30
0.0000
 40
0.0381
 41
0.0381
 70
0
  0
VERTEX
  8
33
 10
143.6589
 20
9.9623
 30
0.0000
 42
1.0000
  0
VERTEX
  8
33
 10
143.6208
 20
9.9623
 30
0.0000
  0
SEQEND
  8
0
  0
POLYLINE
  8
33
 66
1
 10
0.0000
 20
0.0000
 30
0.0000
 40
0.0762
 41
0.0762
 70
0
  0
VERTEX
  8
33
 10
143.4985
 20
9.5381
 30
0.0000
  0
VERTEX
  8
33
 10
143.7813
 20
9.5381
 30
0.0000
  0
SEQEND
  8
0
  0
POLYLINE
  8
33
 66
1
 10
0.0000
 20
0.0000
 30
0.0000
 40
0.0381
 41
0.0381
 70
0
  0
VERTEX
  8
33
 10
143.7813
 20
9.5191
 30
0.0000
 42
1.0000
  0
VERTEX
  8
33
 10
143.7813
 20
9.5572
 30
0.0000
  0
SEQEND
  8
0
  0
POLYLINE
  8
33
 66
1
 10
0.0000
 20
0.0000
 30
0.0000
 40
0.0381
 41
0.0381
 70
0
  0
VERTEX
  8
33
 10
143.4985
 20
9.5572
 30
0.0000
 42
1.0000
  0
VERTEX
  8
33
 10
143.4985
 20
9.5191
 30
0.0000
  0
SEQEND
  8
0
  0
POINT
  8
23
 10
144.0000
 20
89.0000
 30
0.0000
  0
POLYLINE
  8
51
 66
1
 10
0.0000
 20
0.0000
 30
0.0000
 40
0.1270
 41
0.1270
 70
0
  0
VERTEX
  8
51
 10
142.1669
 20
92.1750
 30
0.0000
  0
VERTEX
  8
51
 10
145.8331
 20
92.1750
 30
0.0000
  0
SEQEND
  8
0
  0
POLYLINE
  8
51
 66
1
 10
0.0000
 20
0.0000
 30
0.0000
 40
0.0635
 41
0.0635
 70
0
  0
VERTEX
  8
51
 10
145.8331
 20
92.1433
 30
0.0000
 42
1.0000
  0
VERTEX
  8
51
 10
145.8331
 20
92.2068
 30
0.0000
  0
SEQEND
  8
0
  0
POLYLINE
  8
51
 66
1
 10
0.0000
 20
0.0000
 30
0.0000
 40
0.0635
 41
0.0635
 70
0
  0
VERTEX
  8
51
 10
142.1669
 20
92.2068
 30
0.0000
 42
1.0000
  0
VERTEX
  8
51
 10
142.1669
 20
92.1433
 30
0.0000
  0
SEQEND
  8
0
  0
POLYLINE
  8
51
 66
1
 10
0.0000
 20
0.0000
 30
0.0000
 40
0.1270
 41
0.1270
 70
0
  0
VERTEX
  8
51
 10
145.8331
 20
92.1750
 30
0.0000
  0
VERTEX
  8
51
 10
147.6662
 20
89.0000
 30
0.0000
  0
SEQEND
  8
0
  0
POLYLINE
  8
51
 66
1
 10
0.0000
 20
0.0000
 30
0.0000
 40
0.0635
 41
0.0635
 70
0
  0
VERTEX
  8
51
 10
147.6387
 20
88.9841
 30
0.0000
 42
1.0000
  0
VERTEX
  8
51
 10
147.6937
 20
89.0159
 30
0.0000
  0
SEQEND
  8
0
  0
POLYLINE
  8
51
 66
1
 10
0.0000
 20
0.0000
 30
0.0000
 40
0.0635
 41
0.0635
 70
0
  0
VERTEX
  8
51
 10
145.8606
 20
92.1909
 30
0.0000
 42
1.0000
  0
VERTEX
  8
51
 10
145.8056
 20
92.1591
 30
0.0000
  0
SEQEND
  8
0
  0
POLYLINE
  8
51
 66
1
 10
0.0000
 20
0.0000
 30
0.0000
 40
0.1270
 41
0.1270
 70
0
  0
VERTEX
  8
51
 10
147.6662
 20
89.0000
 30
0.0000
  0
VERTEX
  8
51
 10
145.8331
 20
85.8250
 30
0.0000
  0
SEQEND
  8
0
  0
POLYLINE
  8
51
 66
1
 10
0.0000
 20
0.0000
 30
0.0000
 40
0.0635
 41
0.0635
 70
0
  0
VERTEX
  8
51
 10
145.8056
 20
85.8409
 30
0.0000
 42
1.0000
  0
VERTEX
  8
51
 10
145.8606
 20
85.8091
 30
0.0000
  0
SEQEND
  8
0
  0
POLYLINE
  8
51
 66
1
 10
0.0000
 20
0.0000
 30
0.0000
 40
0.0635
 41
0.0635
 70
0
  0
VERTEX
  8
51
 10
147.6937
 20
88.9841
 30
0.0000
 42
1.0000
  0
VERTEX
  8
51
 10
147.6387
 20
89.0159
 30
0.0000
  0
SEQEND
  8
0
  0
POLYLINE
  8
51
 66
1
 10
0.0000
 20
0.0000
 30
0.0000
 40
0.1270
 41
0.1270
 70
0
  0
VERTEX
  8
51
 10
145.8331
 20
85.8250
 30
0.0000
  0
VERTEX
  8
51
 10
142.1669
 20
85.8250
 30
0.0000
  0
SEQEND
  8
0
  0
POLYLINE
  8
51
 66
1
 10
0.0000
 20
0.0000
 30
0.0000
 40
0.0635
 41
0.0635
 70
0
  0
VERTEX
  8
51
 10
142.1669
 20
85.8568
 30
0.0000
 42
1.0000
  0
VERTEX
  8
51
 10
142.1669
 20
85.7933
 30
0.0000
  0
SEQEND
  8
0
  0
POLYLINE
  8
51
 66
1
 10
0.0000
 20
0.0000
 30
0.0000
 40
0.0635
 41
0.0635
 70
0
  0
VERTEX
  8
51
 10
145.8331
 20
85.7933
 30
0.0000
 42
1.0000
  0
VERTEX
  8
51
 10
145.8331
 20
85.8568
 30
0.0000
  0
SEQEND
  8
0
  0
POLYLINE
  8
51
 66
1
 10
0.0000
 20
0.0000
 30
0.0000
 40
0.1270
 41
0.1270
 70
0
  0
VERTEX
  8
51
 10
142.1669
 20
85.8250
 30
0.0000
  0
VERTEX
  8
51
 10
140.3339
 20
89.0000
 30
0.0000
  0
SEQEND
  8
0
  0
POLYLINE
  8
51
 66
1
 10
0.0000
 20
0.0000
 30
0.0000
 40
0.0635
 41
0.0635
 70
0
  0
VERTEX
  8
51
 10
140.3614
 20
89.0159
 30
0.0000
 42
1.0000
  0
VERTEX
  8
51
 10
140.3064
 20
88.9841
 30
0.0000
  0
SEQEND
  8
0
  0
POLYLINE
  8
51
 66
1
 10
0.0000
 20
0.0000
 30
0.0000
 40
0.0635
 41
0.0635
 70
0
  0
VERTEX
  8
51
 10
142.1394
 20
85.8091
 30
0.0000
 42
1.0000
  0
VERTEX
  8
51
 10
142.1944
 20
85.8409
 30
0.0000
  0
SEQEND
  8
0
  0
POLYLINE
  8
51
 66
1
 10
0.0000
 20
0.0000
 30
0.0000
 40
0.1270
 41
0.1270
 70
0
  0
VERTEX
  8
51
 10
140.3339
 20
89.0000
 30
0.0000
  0
VERTEX
  8
51
 10
142.1669
 20
92.1750
 30
0.0000
  0
SEQEND
  8
0
  0
POLYLINE
  8
51
 66
1
 10
0.0000
 20
0.0000
 30
0.0000
 40
0.0635
 41
0.0635
 70
0
  0
VERTEX
  8
51
 10
142.1944
 20
92.1591
 30
0.0000
 42
1.0000
  0
VERTEX
  8
51
 10
142.1394
 20
92.1909
 30
0.0000
  0
SEQEND
  8
0
  0
POLYLINE
  8
51
 66
1
 10
0.0000
 20
0.0000
 30
0.0000
 40
0.0635
 41
0.0635
 70
0
  0
VERTEX
  8
51
 10
140.3064
 20
89.0159
 30
0.0000
 42
1.0000
  0
VERTEX
  8
51
 10
140.3614
 20
88.9841
 30
0.0000
  0
SEQEND
  8
0
  0
POLYLINE
  8
33
 66
1
 10
0.0000
 20
0.0000
 30
0.0000
 40
0.1270
 41
0.1270
 70
0
  0
VERTEX
  8
33
 10
142.1669
 20
92.1750
 30
0.0000
  0
VERTEX
  8
33
 10
145.8331
 20
92.1750
 30
0.0000
  0
SEQEND
  8
0
  0
POLYLINE
  8
33
 66
1
 10
0.0000
 20
0.0000
 30
0.0000
 40
0.0635
 41
0.0635
 70
0
  0
VERTEX
  8
33
 10
145.8331
 20
92.1433
 30
0.0000
 42
1.0000
  0
VERTEX
  8
33
 10
145.8331
 20
92.2068
 30
0.0000
  0
SEQEND
  8
0
  0
POLYLINE
  8
33
 66
1
 10
0.0000
 20
0.0000
 30
0.0000
 40
0.0635
 41
0.0635
 70
0
  0
VERTEX
  8
33
 10
142.1669
 20
92.2068
 30
0.0000
 42
1.0000
  0
VERTEX
  8
33
 10
142.1669
 20
92.1433
 30
0.0000
  0
SEQEND
  8
0
  0
POLYLINE
  8
33
 66
1
 10
0.0000
 20
0.0000
 30
0.0000
 40
0.1270
 41
0.1270
 70
0
  0
VERTEX
  8
33
 10
145.8331
 20
92.1750
 30
0.0000
  0
VERTEX
  8
33
 10
147.6662
 20
89.0000
 30
0.0000
  0
SEQEND
  8
0
  0
POLYLINE
  8
33
 66
1
 10
0.0000
 20
0.0000
 30
0.0000
 40
0.0635
 41
0.0635
 70
0
  0
VERTEX
  8
33
 10
147.6387
 20
88.9841
 30
0.0000
 42
1.0000
  0
VERTEX
  8
33
 10
147.6937
 20
89.0159
 30
0.0000
  0
SEQEND
  8
0
  0
POLYLINE
  8
33
 66
1
 10
0.0000
 20
0.0000
 30
0.0000
 40
0.0635
 41
0.0635
 70
0
  0
VERTEX
  8
33
 10
145.8606
 20
92.1909
 30
0.0000
 42
1.0000
  0
VERTEX
  8
33
 10
145.8056
 20
92.1591
 30
0.0000
  0
SEQEND
  8
0
  0
POLYLINE
  8
33
 66
1
 10
0.0000
 20
0.0000
 30
0.0000
 40
0.1270
 41
0.1270
 70
0
  0
VERTEX
  8
33
 10
147.6662
 20
89.0000
 30
0.0000
  0
VERTEX
  8
33
 10
145.8331
 20
85.8250
 30
0.0000
  0
SEQEND
  8
0
  0
POLYLINE
  8
33
 66
1
 10
0.0000
 20
0.0000
 30
0.0000
 40
0.0635
 41
0.0635
 70
0
  0
VERTEX
  8
33
 10
145.8056
 20
85.8409
 30
0.0000
 42
1.0000
  0
VERTEX
  8
33
 10
145.8606
 20
85.8091
 30
0.0000
  0
SEQEND
  8
0
  0
POLYLINE
  8
33
 66
1
 10
0.0000
 20
0.0000
 30
0.0000
 40
0.0635
 41
0.0635
 70
0
  0
VERTEX
  8
33
 10
147.6937
 20
88.9841
 30
0.0000
 42
1.0000
  0
VERTEX
  8
33
 10
147.6387
 20
89.0159
 30
0.0000
  0
SEQEND
  8
0
  0
POLYLINE
  8
33
 66
1
 10
0.0000
 20
0.0000
 30
0.0000
 40
0.1270
 41
0.1270
 70
0
  0
VERTEX
  8
33
 10
145.8331
 20
85.8250
 30
0.0000
  0
VERTEX
  8
33
 10
142.1669
 20
85.8250
 30
0.0000
  0
SEQEND
  8
0
  0
POLYLINE
  8
33
 66
1
 10
0.0000
 20
0.0000
 30
0.0000
 40
0.0635
 41
0.0635
 70
0
  0
VERTEX
  8
33
 10
142.1669
 20
85.8568
 30
0.0000
 42
1.0000
  0
VERTEX
  8
33
 10
142.1669
 20
85.7933
 30
0.0000
  0
SEQEND
  8
0
  0
POLYLINE
  8
33
 66
1
 10
0.0000
 20
0.0000
 30
0.0000
 40
0.0635
 41
0.0635
 70
0
  0
VERTEX
  8
33
 10
145.8331
 20
85.7933
 30
0.0000
 42
1.0000
  0
VERTEX
  8
33
 10
145.8331
 20
85.8568
 30
0.0000
  0
SEQEND
  8
0
  0
POLYLINE
  8
33
 66
1
 10
0.0000
 20
0.0000
 30
0.0000
 40
0.1270
 41
0.1270
 70
0
  0
VERTEX
  8
33
 10
142.1669
 20
85.8250
 30
0.0000
  0
VERTEX
  8
33
 10
140.3339
 20
89.0000
 30
0.0000
  0
SEQEND
  8
0
  0
POLYLINE
  8
33
 66
1
 10
0.0000
 20
0.0000
 30
0.0000
 40
0.0635
 41
0.0635
 70
0
  0
VERTEX
  8
33
 10
140.3614
 20
89.0159
 30
0.0000
 42
1.0000
  0
VERTEX
  8
33
 10
140.3064
 20
88.9841
 30
0.0000
  0
SEQEND
  8
0
  0
POLYLINE
  8
33
 66
1
 10
0.0000
 20
0.0000
 30
0.0000
 40
0.0635
 41
0.0635
 70
0
  0
VERTEX
  8
33
 10
142.1394
 20
85.8091
 30
0.0000
 42
1.0000
  0
VERTEX
  8
33
 10
142.1944
 20
85.8409
 30
0.0000
  0
SEQEND
  8
0
  0
POLYLINE
  8
33
 66
1
 10
0.0000
 20
0.0000
 30
0.0000
 40
0.1270
 41
0.1270
 70
0
  0
VERTEX
  8
33
 10
140.3339
 20
89.0000
 30
0.0000
  0
VERTEX
  8
33
 10
142.1669
 20
92.1750
 30
0.0000
  0
SEQEND
  8
0
  0
POLYLINE
  8
33
 66
1
 10
0.0000
 20
0.0000
 30
0.0000
 40
0.0635
 41
0.0635
 70
0
  0
VERTEX
  8
33
 10
142.1944
 20
92.1591
 30
0.0000
 42
1.0000
  0
VERTEX
  8
33
 10
142.1394
 20
92.1909
 30
0.0000
  0
SEQEND
  8
0
  0
POLYLINE
  8
33
 66
1
 10
0.0000
 20
0.0000
 30
0.0000
 40
0.0635
 41
0.0635
 70
0
  0
VERTEX
  8
33
 10
140.3064
 20
89.0159
 30
0.0000
 42
1.0000
  0
VERTEX
  8
33
 10
140.3614
 20
88.9841
 30
0.0000
  0
SEQEND
  8
0
  0
POLYLINE
  8
51
 66
1
 10
0.0000
 20
0.0000
 30
0.0000
 40
0.2540
 41
0.2540
 70
0
  0
VERTEX
  8
51
 10
144.0000
 20
86.1425
 30
0.0000
 42
1.0000
  0
VERTEX
  8
51
 10
144.0000
 20
91.8575
 30
0.0000
 42
1.0000
  0
VERTEX
  8
51
 10
144.0000
 20
86.1425
 30
0.0000
  0
SEQEND
  8
0
  0
POLYLINE
  8
21
 66
1
 10
0.0000
 20
0.0000
 30
0.0000
 40
0.2540
 41
0.2540
 70
0
  0
VERTEX
  8
21
 10
144.0000
 20
85.1900
 30
0.0000
 42
1.0000
  0
VERTEX
  8
21
 10
144.0000
 20
92.8100
 30
0.0000
 42
1.0000
  0
VERTEX
  8
21
 10
144.0000
 20
85.1900
 30
0.0000
  0
SEQEND
  8
0
  0
POLYLINE
  8
41
 66
1
 10
0.0000
 20
0.0000
 30
0.0000
 40
3.8100
 41
3.8100
 70
0
  0
VERTEX
  8
41
 10
144.0000
 20
87.0950
 30
0.0000
 42
1.0000
  0
VERTEX
  8
41
 10
144.0000
 20
90.9050
 30
0.0000
 42
1.0000
  0
VERTEX
  8
41
 10
144.0000
 20
87.0950
 30
0.0000
  0
SEQEND
  8
0
  0
POLYLINE
  8
42
 66
1
 10
0.0000
 20
0.0000
 30
0.0000
 40
3.8100
 41
3.8100
 70
0
  0
VERTEX
  8
42
 10
144.0000
 20
87.0950
 30
0.0000
 42
1.0000
  0
VERTEX
  8
42
 10
144.0000
 20
90.9050
 30
0.0000
 42
1.0000
  0
VERTEX
  8
42
 10
144.0000
 20
87.0950
 30
0.0000
  0
SEQEND
  8
0
  0
POLYLINE
  8
33
 66
1
 10
0.0000
 20
0.0000
 30
0.0000
 40
0.2540
 41
0.2540
 70
0
  0
VERTEX
  8
33
 10
144.0000
 20
86.1425
 30
0.0000
 42
1.0000
  0
VERTEX
  8
33
 10
144.0000
 20
91.8575
 30
0.0000
 42
1.0000
  0
VERTEX
  8
33
 10
144.0000
 20
86.1425
 30
0.0000
  0
SEQEND
  8
0
  0
CIRCLE
  8
20
 10
144.0000
 20
89.0000
 30
0.0000
 40
1.5875
  0
POLYLINE
  8
29
 66
1
 10
0.0000
 20
0.0000
 30
0.0000
 40
1.6510
 41
1.6510
 70
0
  0
VERTEX
  8
29
 10
144.0000
 20
88.1745
 30
0.0000
 42
1.0000
  0
VERTEX
  8
29
 10
144.0000
 20
89.8255
 30
0.0000
 42
1.0000
  0
VERTEX
  8
29
 10
144.0000
 20
88.1745
 30
0.0000
  0
SEQEND
  8
0
  0
POLYLINE
  8
30
 66
1
 10
0.0000
 20
0.0000
 30
0.0000
 40
1.6510
 41
1.6510
 70
0
  0
VERTEX
  8
30
 10
144.0000
 20
88.1745
 30
0.0000
 42
1.0000
  0
VERTEX
  8
30
 10
144.0000
 20
89.8255
 30
0.0000
 42
1.0000
  0
VERTEX
  8
30
 10
144.0000
 20
88.1745
 30
0.0000
  0
SEQEND
  8
0
  0
POLYLINE
  8
25
 66
1
 10
0.0000
 20
0.0000
 30
0.0000
 40
0.1016
 41
0.1016
 70
0
  0
VERTEX
  8
25
 10
146.9083
 20
91.9083
 30
0.0000
  0
VERTEX
  8
25
 10
146.9083
 20
93.0777
 30
0.0000
  0
SEQEND
  8
0
  0
POLYLINE
  8
25
 66
1
 10
0.0000
 20
0.0000
 30
0.0000
 40
0.0508
 41
0.0508
 70
0
  0
VERTEX
  8
25
 10
146.9337
 20
93.0777
 30
0.0000
 42
1.0000
  0
VERTEX
  8
25
 10
146.8829
 20
93.0777
 30
0.0000
  0
SEQEND
  8
0
  0
POLYLINE
  8
25
 66
1
 10
0.0000
 20
0.0000
 30
0.0000
 40
0.0508
 41
0.0508
 70
0
  0
VERTEX
  8
25
 10
146.8829
 20
91.9083
 30
0.0000
 42
1.0000
  0
VERTEX
  8
25
 10
146.9337
 20
91.9083
 30
0.0000
  0
SEQEND
  8
0
  0
POLYLINE
  8
25
 66
1
 10
0.0000
 20
0.0000
 30
0.0000
 40
0.1016
 41
0.1016
 70
0
  0
VERTEX
  8
25
 10
146.9083
 20
92.4930
 30
0.0000
  0
VERTEX
  8
25
 10
147.6879
 20
92.4930
 30
0.0000
  0
SEQEND
  8
0
  0
POLYLINE
  8
25
 66
1
 10
0.0000
 20
0.0000
 30
0.0000
 40
0.0508
 41
0.0508
 70
0
  0
VERTEX
  8
25
 10
147.6879
 20
92.4676
 30
0.0000
 42
1.0000
  0
VERTEX
  8
25
 10
147.6879
 20
92.5184
 30
0.0000
  0
SEQEND
  8
0
  0
POLYLINE
  8
25
 66
1
 10
0.0000
 20
0.0000
 30
0.0000
 40
0.0508
 41
0.0508
 70
0
  0
VERTEX
  8
25
 10
146.9083
 20
92.5184
 30
0.0000
 42
1.0000
  0
VERTEX
  8
25
 10
146.9083
 20
92.4676
 30
0.0000
  0
SEQEND
  8
0
  0
POLYLINE
  8
25
 66
1
 10
0.0000
 20
0.0000
 30
0.0000
 40
0.1016
 41
0.1016
 70
0
  0
VERTEX
  8
25
 10
147.6879
 20
93.0777
 30
0.0000
  0
VERTEX
  8
25
 10
147.6879
 20
91.9083
 30
0.0000
  0
SEQEND
  8
0
  0
POLYLINE
  8
25
 66
1
 10
0.0000
 20
0.0000
 30
0.0000
 40
0.0508
 41
0.0508
 70
0
  0
VERTEX
  8
25
 10
147.6625
 20
91.9083
 30
0.0000
 42
1.0000
  0
VERTEX
  8
25
 10
147.7133
 20
91.9083
 30
0.0000
  0
SEQEND
  8
0
  0
POLYLINE
  8
25
 66
1
 10
0.0000
 20
0.0000
 30
0.0000
 40
0.0508
 41
0.0508
 70
0
  0
VERTEX
  8
25
 10
147.7133
 20
93.0777
 30
0.0000
 42
1.0000
  0
VERTEX
  8
25
 10
147.6625
 20
93.0777
 30
0.0000
  0
SEQEND
  8
0
  0
POLYLINE
  8
25
 66
1
 10
0.0000
 20
0.0000
 30
0.0000
 40
0.1016
 41
0.1016
 70
0
  0
VERTEX
  8
25
 10
148.8573
 20
91.9083
 30
0.0000
  0
VERTEX
  8
25
 10
148.0777
 20
91.9083
 30
0.0000
  0
SEQEND
  8
0
  0
POLYLINE
  8
25
 66
1
 10
0.0000
 20
0.0000
 30
0.0000
 40
0.0508
 41
0.0508
 70
0
  0
VERTEX
  8
25
 10
148.0777
 20
91.9337
 30
0.0000
 42
1.0000
  0
VERTEX
  8
25
 10
148.0777
 20
91.8829
 30
0.0000
  0
SEQEND
  8
0
  0
POLYLINE
  8
25
 66
1
 10
0.0000
 20
0.0000
 30
0.0000
 40
0.0508
 41
0.0508
 70
0
  0
VERTEX
  8
25
 10
148.8573
 20
91.8829
 30
0.0000
 42
1.0000
  0
VERTEX
  8
25
 10
148.8573
 20
91.9337
 30
0.0000
  0
SEQEND
  8
0
  0
POLYLINE
  8
25
 66
1
 10
0.0000
 20
0.0000
 30
0.0000
 40
0.1016
 41
0.1016
 70
0
  0
VERTEX
  8
25
 10
148.0777
 20
91.9083
 30
0.0000
  0
VERTEX
  8
25
 10
148.8573
 20
92.6879
 30
0.0000
  0
SEQEND
  8
0
  0
POLYLINE
  8
25
 66
1
 10
0.0000
 20
0.0000
 30
0.0000
 40
0.0508
 41
0.0508
 70
0
  0
VERTEX
  8
25
 10
148.8753
 20
92.6699
 30
0.0000
 42
1.0000
  0
VERTEX
  8
25
 10
148.8393
 20
92.7059
 30
0.0000
  0
SEQEND
  8
0
  0
POLYLINE
  8
25
 66
1
 10
0.0000
 20
0.0000
 30
0.0000
 40
0.0508
 41
0.0508
 70
0
  0
VERTEX
  8
25
 10
148.0597
 20
91.9263
 30
0.0000
 42
1.0000
  0
VERTEX
  8
25
 10
148.0957
 20
91.8903
 30
0.0000
  0
SEQEND
  8
0
  0
POLYLINE
  8
25
 66
1
 10
0.0000
 20
0.0000
 30
0.0000
 40
0.1016
 41
0.1016
 70
0
  0
VERTEX
  8
25
 10
148.8573
 20
92.6879
 30
0.0000
  0
VERTEX
  8
25
 10
148.8573
 20
92.8828
 30
0.0000
  0
SEQEND
  8
0
  0
POLYLINE
  8
25
 66
1
 10
0.0000
 20
0.0000
 30
0.0000
 40
0.0508
 41
0.0508
 70
0
  0
VERTEX
  8
25
 10
148.8827
 20
92.8828
 30
0.0000
 42
1.0000
  0
VERTEX
  8
25
 10
148.8319
 20
92.8828
 30
0.0000
  0
SEQEND
  8
0
  0
POLYLINE
  8
25
 66
1
 10
0.0000
 20
0.0000
 30
0.0000
 40
0.0508
 41
0.0508
 70
0
  0
VERTEX
  8
25
 10
148.8319
 20
92.6879
 30
0.0000
 42
1.0000
  0
VERTEX
  8
25
 10
148.8827
 20
92.6879
 30
0.0000
  0
SEQEND
  8
0
  0
POLYLINE
  8
25
 66
1
 10
0.0000
 20
0.0000
 30
0.0000
 40
0.1016
 41
0.1016
 70
0
  0
VERTEX
  8
25
 10
148.8573
 20
92.8828
 30
0.0000
  0
VERTEX
  8
25
 10
148.6624
 20
93.0777
 30
0.0000
  0
SEQEND
  8
0
  0
POLYLINE
  8
25
 66
1
 10
0.0000
 20
0.0000
 30
0.0000
 40
0.0508
 41
0.0508
 70
0
  0
VERTEX
  8
25
 10
148.6804
 20
93.0957
 30
0.0000
 42
1.0000
  0
VERTEX
  8
25
 10
148.6444
 20
93.0597
 30
0.0000
  0
SEQEND
  8
0
  0
POLYLINE
  8
25
 66
1
 10
0.0000
 20
0.0000
 30
0.0000
 40
0.0508
 41
0.0508
 70
0
  0
VERTEX
  8
25
 10
148.8393
 20
92.8648
 30
0.0000
 42
1.0000
  0
VERTEX
  8
25
 10
148.8753
 20
92.9008
 30
0.0000
  0
SEQEND
  8
0
  0
POLYLINE
  8
25
 66
1
 10
0.0000
 20
0.0000
 30
0.0000
 40
0.1016
 41
0.1016
 70
0
  0
VERTEX
  8
25
 10
148.6624
 20
93.0777
 30
0.0000
  0
VERTEX
  8
25
 10
148.2726
 20
93.0777
 30
0.0000
  0
SEQEND
  8
0
  0
POLYLINE
  8
25
 66
1
 10
0.0000
 20
0.0000
 30
0.0000
 40
0.0508
 41
0.0508
 70
0
  0
VERTEX
  8
25
 10
148.2726
 20
93.1031
 30
0.0000
 42
1.0000
  0
VERTEX
  8
25
 10
148.2726
 20
93.0523
 30
0.0000
  0
SEQEND
  8
0
  0
POLYLINE
  8
25
 66
1
 10
0.0000
 20
0.0000
 30
0.0000
 40
0.0508
 41
0.0508
 70
0
  0
VERTEX
  8
25
 10
148.6624
 20
93.0523
 30
0.0000
 42
1.0000
  0
VERTEX
  8
25
 10
148.6624
 20
93.1031
 30
0.0000
  0
SEQEND
  8
0
  0
POLYLINE
  8
25
 66
1
 10
0.0000
 20
0.0000
 30
0.0000
 40
0.1016
 41
0.1016
 70
0
  0
VERTEX
  8
25
 10
148.2726
 20
93.0777
 30
0.0000
  0
VERTEX
  8
25
 10
148.0777
 20
92.8828
 30
0.0000
  0
SEQEND
  8
0
  0
POLYLINE
  8
25
 66
1
 10
0.0000
 20
0.0000
 30
0.0000
 40
0.0508
 41
0.0508
 70
0
  0
VERTEX
  8
25
 10
148.0597
 20
92.9008
 30
0.0000
 42
1.0000
  0
VERTEX
  8
25
 10
148.0957
 20
92.8648
 30
0.0000
  0
SEQEND
  8
0
  0
POLYLINE
  8
25
 66
1
 10
0.0000
 20
0.0000
 30
0.0000
 40
0.0508
 41
0.0508
 70
0
  0
VERTEX
  8
25
 10
148.2906
 20
93.0597
 30
0.0000
 42
1.0000
  0
VERTEX
  8
25
 10
148.2546
 20
93.0957
 30
0.0000
  0
SEQEND
  8
0
  0
POLYLINE
  8
33
 66
1
 10
0.0000
 20
0.0000
 30
0.0000
 40
0.0762
 41
0.0762
 70
0
  0
VERTEX
  8
33
 10
143.0381
 20
92.5381
 30
0.0000
  0
VERTEX
  8
33
 10
143.0381
 20
92.9623
 30
0.0000
  0
SEQEND
  8
0
  0
POLYLINE
  8
33
 66
1
 10
0.0000
 20
0.0000
 30
0.0000
 40
0.0381
 41
0.0381
 70
0
  0
VERTEX
  8
33
 10
143.0572
 20
92.9623
 30
0.0000
 42
1.0000
  0
VERTEX
  8
33
 10
143.0191
 20
92.9623
 30
0.0000
  0
SEQEND
  8
0
  0
POLYLINE
  8
33
 66
1
 10
0.0000
 20
0.0000
 30
0.0000
 40
0.0381
 41
0.0381
 70
0
  0
VERTEX
  8
33
 10
143.0191
 20
92.5381
 30
0.0000
 42
1.0000
  0
VERTEX
  8
33
 10
143.0572
 20
92.5381
 30
0.0000
  0
SEQEND
  8
0
  0
POLYLINE
  8
33
 66
1
 10
0.0000
 20
0.0000
 30
0.0000
 40
0.0762
 41
0.0762
 70
0
  0
VERTEX
  8
33
 10
143.0381
 20
92.7502
 30
0.0000
  0
VERTEX
  8
33
 10
143.3209
 20
92.7502
 30
0.0000
  0
SEQEND
  8
0
  0
POLYLINE
  8
33
 66
1
 10
0.0000
 20
0.0000
 30
0.0000
 40
0.0381
 41
0.0381
 70
0
  0
VERTEX
  8
33
 10
143.3209
 20
92.7311
 30
0.0000
 42
1.0000
  0
VERTEX
  8
33
 10
143.3209
 20
92.7692
 30
0.0000
  0
SEQEND
  8
0
  0
POLYLINE
  8
33
 66
1
 10
0.0000
 20
0.0000
 30
0.0000
 40
0.0381
 41
0.0381
 70
0
  0
VERTEX
  8
33
 10
143.0381
 20
92.7692
 30
0.0000
 42
1.0000
  0
VERTEX
  8
33
 10
143.0381
 20
92.7311
 30
0.0000
  0
SEQEND
  8
0
  0
POLYLINE
  8
33
 66
1
 10
0.0000
 20
0.0000
 30
0.0000
 40
0.0762
 41
0.0762
 70
0
  0
VERTEX
  8
33
 10
143.3209
 20
92.9623
 30
0.0000
  0
VERTEX
  8
33
 10
143.3209
 20
92.5381
 30
0.0000
  0
SEQEND
  8
0
  0
POLYLINE
  8
33
 66
1
 10
0.0000
 20
0.0000
 30
0.0000
 40
0.0381
 41
0.0381
 70
0
  0
VERTEX
  8
33
 10
143.3018
 20
92.5381
 30
0.0000
 42
1.0000
  0
VERTEX
  8
33
 10
143.3399
 20
92.5381
 30
0.0000
  0
SEQEND
  8
0
  0
POLYLINE
  8
33
 66
1
 10
0.0000
 20
0.0000
 30
0.0000
 40
0.0381
 41
0.0381
 70
0
  0
VERTEX
  8
33
 10
143.3399
 20
92.9623
 30
0.0000
 42
1.0000
  0
VERTEX
  8
33
 10
143.3018
 20
92.9623
 30
0.0000
  0
SEQEND
  8
0
  0
POLYLINE
  8
33
 66
1
 10
0.0000
 20
0.0000
 30
0.0000
 40
0.0762
 41
0.0762
 70
0
  0
VERTEX
  8
33
 10
143.7813
 20
92.5381
 30
0.0000
  0
VERTEX
  8
33
 10
143.4985
 20
92.5381
 30
0.0000
  0
SEQEND
  8
0
  0
POLYLINE
  8
33
 66
1
 10
0.0000
 20
0.0000
 30
0.0000
 40
0.0381
 41
0.0381
 70
0
  0
VERTEX
  8
33
 10
143.4985
 20
92.5571
 30
0.0000
 42
1.0000
  0
VERTEX
  8
33
 10
143.4985
 20
92.5191
 30
0.0000
  0
SEQEND
  8
0
  0
POLYLINE
  8
33
 66
1
 10
0.0000
 20
0.0000
 30
0.0000
 40
0.0381
 41
0.0381
 70
0
  0
VERTEX
  8
33
 10
143.7813
 20
92.5191
 30
0.0000
 42
1.0000
  0
VERTEX
  8
33
 10
143.7813
 20
92.5571
 30
0.0000
  0
SEQEND
  8
0
  0
POLYLINE
  8
33
 66
1
 10
0.0000
 20
0.0000
 30
0.0000
 40
0.0762
 41
0.0762
 70
0
  0
VERTEX
  8
33
 10
143.4985
 20
92.5381
 30
0.0000
  0
VERTEX
  8
33
 10
143.7813
 20
92.8209
 30
0.0000
  0
SEQEND
  8
0
  0
POLYLINE
  8
33
 66
1
 10
0.0000
 20
0.0000
 30
0.0000
 40
0.0381
 41
0.0381
 70
0
  0
VERTEX
  8
33
 10
143.7947
 20
92.8074
 30
0.0000
 42
1.0000
  0
VERTEX
  8
33
 10
143.7678
 20
92.8343
 30
0.0000
  0
SEQEND
  8
0
  0
POLYLINE
  8
33
 66
1
 10
0.0000
 20
0.0000
 30
0.0000
 40
0.0381
 41
0.0381
 70
0
  0
VERTEX
  8
33
 10
143.4850
 20
92.5516
 30
0.0000
 42
1.0000
  0
VERTEX
  8
33
 10
143.5120
 20
92.5246
 30
0.0000
  0
SEQEND
  8
0
  0
POLYLINE
  8
33
 66
1
 10
0.0000
 20
0.0000
 30
0.0000
 40
0.0762
 41
0.0762
 70
0
  0
VERTEX
  8
33
 10
143.7813
 20
92.8209
 30
0.0000
  0
VERTEX
  8
33
 10
143.7813
 20
92.8916
 30
0.0000
  0
SEQEND
  8
0
  0
POLYLINE
  8
33
 66
1
 10
0.0000
 20
0.0000
 30
0.0000
 40
0.0381
 41
0.0381
 70
0
  0
VERTEX
  8
33
 10
143.8003
 20
92.8916
 30
0.0000
 42
1.0000
  0
VERTEX
  8
33
 10
143.7622
 20
92.8916
 30
0.0000
  0
SEQEND
  8
0
  0
POLYLINE
  8
33
 66
1
 10
0.0000
 20
0.0000
 30
0.0000
 40
0.0381
 41
0.0381
 70
0
  0
VERTEX
  8
33
 10
143.7622
 20
92.8209
 30
0.0000
 42
1.0000
  0
VERTEX
  8
33
 10
143.8003
 20
92.8209
 30
0.0000
  0
SEQEND
  8
0
  0
POLYLINE
  8
33
 66
1
 10
0.0000
 20
0.0000
 30
0.0000
 40
0.0762
 41
0.0762
 70
0
  0
VERTEX
  8
33
 10
143.7813
 20
92.8916
 30
0.0000
  0
VERTEX
  8
33
 10
143.7106
 20
92.9623
 30
0.0000
  0
SEQEND
  8
0
  0
POLYLINE
  8
33
 66
1
 10
0.0000
 20
0.0000
 30
0.0000
 40
0.0381
 41
0.0381
 70
0
  0
VERTEX
  8
33
 10
143.7240
 20
92.9757
 30
0.0000
 42
1.0000
  0
VERTEX
  8
33
 10
143.6971
 20
92.9488
 30
0.0000
  0
SEQEND
  8
0
  0
POLYLINE
  8
33
 66
1
 10
0.0000
 20
0.0000
 30
0.0000
 40
0.0381
 41
0.0381
 70
0
  0
VERTEX
  8
33
 10
143.7678
 20
92.8781
 30
0.0000
 42
1.0000
  0
VERTEX
  8
33
 10
143.7947
 20
92.9050
 30
0.0000
  0
SEQEND
  8
0
  0
POLYLINE
  8
33
 66
1
 10
0.0000
 20
0.0000
 30
0.0000
 40
0.0762
 41
0.0762
 70
0
  0
VERTEX
  8
33
 10
143.7106
 20
92.9623
 30
0.0000
  0
VERTEX
  8
33
 10
143.5692
 20
92.9623
 30
0.0000
  0
SEQEND
  8
0
  0
POLYLINE
  8
33
 66
1
 10
0.0000
 20
0.0000
 30
0.0000
 40
0.0381
 41
0.0381
 70
0
  0
VERTEX
  8
33
 10
143.5692
 20
92.9813
 30
0.0000
 42
1.0000
  0
VERTEX
  8
33
 10
143.5692
 20
92.9432
 30
0.0000
  0
SEQEND
  8
0
  0
POLYLINE
  8
33
 66
1
 10
0.0000
 20
0.0000
 30
0.0000
 40
0.0381
 41
0.0381
 70
0
  0
VERTEX
  8
33
 10
143.7106
 20
92.9432
 30
0.0000
 42
1.0000
  0
VERTEX
  8
33
 10
143.7106
 20
92.9813
 30
0.0000
  0
SEQEND
  8
0
  0
POLYLINE
  8
33
 66
1
 10
0.0000
 20
0.0000
 30
0.0000
 40
0.0762
 41
0.0762
 70
0
  0
VERTEX
  8
33
 10
143.5692
 20
92.9623
 30
0.0000
  0
VERTEX
  8
33
 10
143.4985
 20
92.8916
 30
0.0000
  0
SEQEND
  8
0
  0
POLYLINE
  8
33
 66
1
 10
0.0000
 20
0.0000
 30
0.0000
 40
0.0381
 41
0.0381
 70
0
  0
VERTEX
  8
33
 10
143.4850
 20
92.9050
 30
0.0000
 42
1.0000
  0
VERTEX
  8
33
 10
143.5120
 20
92.8781
 30
0.0000
  0
SEQEND
  8
0
  0
POLYLINE
  8
33
 66
1
 10
0.0000
 20
0.0000
 30
0.0000
 40
0.0381
 41
0.0381
 70
0
  0
VERTEX
  8
33
 10
143.5827
 20
92.9488
 30
0.0000
 42
1.0000
  0
VERTEX
  8
33
 10
143.5557
 20
92.9757
 30
0.0000
  0
SEQEND
  8
0
  0
POINT
  8
23
 10
6.0000
 20
6.0000
 30
0.0000
  0
POLYLINE
  8
51
 66
1
 10
0.0000
 20
0.0000
 30
0.0000
 40
0.1270
 41
0.1270
 70
0
  0
VERTEX
  8
51
 10
4.1669
 20
9.1750
 30
0.0000
  0
VERTEX
  8
51
 10
7.8331
 20
9.1750
 30
0.0000
  0
SEQEND
  8
0
  0
POLYLINE
  8
51
 66
1
 10
0.0000
 20
0.0000
 30
0.0000
 40
0.0635
 41
0.0635
 70
0
  0
VERTEX
  8
51
 10
7.8331
 20
9.1433
 30
0.0000
 42
1.0000
  0
VERTEX
  8
51
 10
7.8331
 20
9.2068
 30
0.0000
  0
SEQEND
  8
0
  0
POLYLINE
  8
51
 66
1
 10
0.0000
 20
0.0000
 30
0.0000
 40
0.0635
 41
0.0635
 70
0
  0
VERTEX
  8
51
 10
4.1669
 20
9.2068
 30
0.0000
 42
1.0000
  0
VERTEX
  8
51
 10
4.1669
 20
9.1433
 30
0.0000
  0
SEQEND
  8
0
  0
POLYLINE
  8
51
 66
1
 10
0.0000
 20
0.0000
 30
0.0000
 40
0.1270
 41
0.1270
 70
0
  0
VERTEX
  8
51
 10
7.8331
 20
9.1750
 30
0.0000
  0
VERTEX
  8
51
 10
9.6662
 20
6.0000
 30
0.0000
  0
SEQEND
  8
0
  0
POLYLINE
  8
51
 66
1
 10
0.0000
 20
0.0000
 30
0.0000
 40
0.0635
 41
0.0635
 70
0
  0
VERTEX
  8
51
 10
9.6387
 20
5.9841
 30
0.0000
 42
1.0000
  0
VERTEX
  8
51
 10
9.6937
 20
6.0159
 30
0.0000
  0
SEQEND
  8
0
  0
POLYLINE
  8
51
 66
1
 10
0.0000
 20
0.0000
 30
0.0000
 40
0.0635
 41
0.0635
 70
0
  0
VERTEX
  8
51
 10
7.8606
 20
9.1909
 30
0.0000
 42
1.0000
  0
VERTEX
  8
51
 10
7.8056
 20
9.1591
 30
0.0000
  0
SEQEND
  8
0
  0
POLYLINE
  8
51
 66
1
 10
0.0000
 20
0.0000
 30
0.0000
 40
0.1270
 41
0.1270
 70
0
  0
VERTEX
  8
51
 10
9.6662
 20
6.0000
 30
0.0000
  0
VERTEX
  8
51
 10
7.8331
 20
2.8250
 30
0.0000
  0
SEQEND
  8
0
  0
POLYLINE
  8
51
 66
1
 10
0.0000
 20
0.0000
 30
0.0000
 40
0.0635
 41
0.0635
 70
0
  0
VERTEX
  8
51
 10
7.8056
 20
2.8409
 30
0.0000
 42
1.0000
  0
VERTEX
  8
51
 10
7.8606
 20
2.8091
 30
0.0000
  0
SEQEND
  8
0
  0
POLYLINE
  8
51
 66
1
 10
0.0000
 20
0.0000
 30
0.0000
 40
0.0635
 41
0.0635
 70
0
  0
VERTEX
  8
51
 10
9.6937
 20
5.9841
 30
0.0000
 42
1.0000
  0
VERTEX
  8
51
 10
9.6387
 20
6.0159
 30
0.0000
  0
SEQEND
  8
0
  0
POLYLINE
  8
51
 66
1
 10
0.0000
 20
0.0000
 30
0.0000
 40
0.1270
 41
0.1270
 70
0
  0
VERTEX
  8
51
 10
7.8331
 20
2.8250
 30
0.0000
  0
VERTEX
  8
51
 10
4.1669
 20
2.8250
 30
0.0000
  0
SEQEND
  8
0
  0
POLYLINE
  8
51
 66
1
 10
0.0000
 20
0.0000
 30
0.0000
 40
0.0635
 41
0.0635
 70
0
  0
VERTEX
  8
51
 10
4.1669
 20
2.8568
 30
0.0000
 42
1.0000
  0
VERTEX
  8
51
 10
4.1669
 20
2.7933
 30
0.0000
  0
SEQEND
  8
0
  0
POLYLINE
  8
51
 66
1
 10
0.0000
 20
0.0000
 30
0.0000
 40
0.0635
 41
0.0635
 70
0
  0
VERTEX
  8
51
 10
7.8331
 20
2.7933
 30
0.0000
 42
1.0000
  0
VERTEX
  8
51
 10
7.8331
 20
2.8568
 30
0.0000
  0
SEQEND
  8
0
  0
POLYLINE
  8
51
 66
1
 10
0.0000
 20
0.0000
 30
0.0000
 40
0.1270
 41
0.1270
 70
0
  0
VERTEX
  8
51
 10
4.1669
 20
2.8250
 30
0.0000
  0
VERTEX
  8
51
 10
2.3339
 20
6.0000
 30
0.0000
  0
SEQEND
  8
0
  0
POLYLINE
  8
51
 66
1
 10
0.0000
 20
0.0000
 30
0.0000
 40
0.0635
 41
0.0635
 70
0
  0
VERTEX
  8
51
 10
2.3614
 20
6.0159
 30
0.0000
 42
1.0000
  0
VERTEX
  8
51
 10
2.3064
 20
5.9841
 30
0.0000
  0
SEQEND
  8
0
  0
POLYLINE
  8
51
 66
1
 10
0.0000
 20
0.0000
 30
0.0000
 40
0.0635
 41
0.0635
 70
0
  0
VERTEX
  8
51
 10
4.1394
 20
2.8091
 30
0.0000
 42
1.0000
  0
VERTEX
  8
51
 10
4.1944
 20
2.8409
 30
0.0000
  0
SEQEND
  8
0
  0
POLYLINE
  8
51
 66
1
 10
0.0000
 20
0.0000
 30
0.0000
 40
0.1270
 41
0.1270
 70
0
  0
VERTEX
  8
51
 10
2.3339
 20
6.0000
 30
0.0000
  0
VERTEX
  8
51
 10
4.1669
 20
9.1750
 30
0.0000
  0
SEQEND
  8
0
  0
POLYLINE
  8
51
 66
1
 10
0.0000
 20
0.0000
 30
0.0000
 40
0.0635
 41
0.0635
 70
0
  0
VERTEX
  8
51
 10
4.1944
 20
9.1591
 30
0.0000
 42
1.0000
  0
VERTEX
  8
51
 10
4.1394
 20
9.1909
 30
0.0000
  0
SEQEND
  8
0
  0
POLYLINE
  8
51
 66
1
 10
0.0000
 20
0.0000
 30
0.0000
 40
0.0635
 41
0.0635
 70
0
  0
VERTEX
  8
51
 10
2.3064
 20
6.0159
 30
0.0000
 42
1.0000
  0
VERTEX
  8
51
 10
2.3614
 20
5.9841
 30
0.0000
  0
SEQEND
  8
0
  0
POLYLINE
  8
33
 66
1
 10
0.0000
 20
0.0000
 30
0.0000
 40
0.1270
 41
0.1270
 70
0
  0
VERTEX
  8
33
 10
4.1669
 20
9.1750
 30
0.0000
  0
VERTEX
  8
33
 10
7.8331
 20
9.1750
 30
0.0000
  0
SEQEND
  8
0
  0
POLYLINE
  8
33
 66
1
 10
0.0000
 20
0.0000
 30
0.0000
 40
0.0635
 41
0.0635
 70
0
  0
VERTEX
  8
33
 10
7.8331
 20
9.1433
 30
0.0000
 42
1.0000
  0
VERTEX
  8
33
 10
7.8331
 20
9.2068
 30
0.0000
  0
SEQEND
  8
0
  0
POLYLINE
  8
33
 66
1
 10
0.0000
 20
0.0000
 30
0.0000
 40
0.0635
 41
0.0635
 70
0
  0
VERTEX
  8
33
 10
4.1669
 20
9.2068
 30
0.0000
 42
1.0000
  0
VERTEX
  8
33
 10
4.1669
 20
9.1433
 30
0.0000
  0
SEQEND
  8
0
  0
POLYLINE
  8
33
 66
1
 10
0.0000
 20
0.0000
 30
0.0000
 40
0.1270
 41
0.1270
 70
0
  0
VERTEX
  8
33
 10
7.8331
 20
9.1750
 30
0.0000
  0
VERTEX
  8
33
 10
9.6662
 20
6.0000
 30
0.0000
  0
SEQEND
  8
0
  0
POLYLINE
  8
33
 66
1
 10
0.0000
 20
0.0000
 30
0.0000
 40
0.0635
 41
0.0635
 70
0
  0
VERTEX
  8
33
 10
9.6387
 20
5.9841
 30
0.0000
 42
1.0000
  0
VERTEX
  8
33
 10
9.6937
 20
6.0159
 30
0.0000
  0
SEQEND
  8
0
  0
POLYLINE
  8
33
 66
1
 10
0.0000
 20
0.0000
 30
0.0000
 40
0.0635
 41
0.0635
 70
0
  0
VERTEX
  8
33
 10
7.8606
 20
9.1909
 30
0.0000
 42
1.0000
  0
VERTEX
  8
33
 10
7.8056
 20
9.1591
 30
0.0000
  0
SEQEND
  8
0
  0
POLYLINE
  8
33
 66
1
 10
0.0000
 20
0.0000
 30
0.0000
 40
0.1270
 41
0.1270
 70
0
  0
VERTEX
  8
33
 10
9.6662
 20
6.0000
 30
0.0000
  0
VERTEX
  8
33
 10
7.8331
 20
2.8250
 30
0.0000
  0
SEQEND
  8
0
  0
POLYLINE
  8
33
 66
1
 10
0.0000
 20
0.0000
 30
0.0000
 40
0.0635
 41
0.0635
 70
0
  0
VERTEX
  8
33
 10
7.8056
 20
2.8409
 30
0.0000
 42
1.0000
  0
VERTEX
  8
33
 10
7.8606
 20
2.8091
 30
0.0000
  0
SEQEND
  8
0
  0
POLYLINE
  8
33
 66
1
 10
0.0000
 20
0.0000
 30
0.0000
 40
0.0635
 41
0.0635
 70
0
  0
VERTEX
  8
33
 10
9.6937
 20
5.9841
 30
0.0000
 42
1.0000
  0
VERTEX
  8
33
 10
9.6387
 20
6.0159
 30
0.0000
  0
SEQEND
  8
0
  0
POLYLINE
  8
33
 66
1
 10
0.0000
 20
0.0000
 30
0.0000
 40
0.1270
 41
0.1270
 70
0
  0
VERTEX
  8
33
 10
7.8331
 20
2.8250
 30
0.0000
  0
VERTEX
  8
33
 10
4.1669
 20
2.8250
 30
0.0000
  0
SEQEND
  8
0
  0
POLYLINE
  8
33
 66
1
 10
0.0000
 20
0.0000
 30
0.0000
 40
0.0635
 41
0.0635
 70
0
  0
VERTEX
  8
33
 10
4.1669
 20
2.8568
 30
0.0000
 42
1.0000
  0
VERTEX
  8
33
 10
4.1669
 20
2.7933
 30
0.0000
  0
SEQEND
  8
0
  0
POLYLINE
  8
33
 66
1
 10
0.0000
 20
0.0000
 30
0.0000
 40
0.0635
 41
0.0635
 70
0
  0
VERTEX
  8
33
 10
7.8331
 20
2.7933
 30
0.0000
 42
1.0000
  0
VERTEX
  8
33
 10
7.8331
 20
2.8568
 30
0.0000
  0
SEQEND
  8
0
  0
POLYLINE
  8
33
 66
1
 10
0.0000
 20
0.0000
 30
0.0000
 40
0.1270
 41
0.1270
 70
0
  0
VERTEX
  8
33
 10
4.1669
 20
2.8250
 30
0.0000
  0
VERTEX
  8
33
 10
2.3339
 20
6.0000
 30
0.0000
  0
SEQEND
  8
0
  0
POLYLINE
  8
33
 66
1
 10
0.0000
 20
0.0000
 30
0.0000
 40
0.0635
 41
0.0635
 70
0
  0
VERTEX
  8
33
 10
2.3614
 20
6.0159
 30
0.0000
 42
1.0000
  0
VERTEX
  8
33
 10
2.3064
 20
5.9841
 30
0.0000
  0
SEQEND
  8
0
  0
POLYLINE
  8
33
 66
1
 10
0.0000
 20
0.0000
 30
0.0000
 40
0.0635
 41
0.0635
 70
0
  0
VERTEX
  8
33
 10
4.1394
 20
2.8091
 30
0.0000
 42
1.0000
  0
VERTEX
  8
33
 10
4.1944
 20
2.8409
 30
0.0000
  0
SEQEND
  8
0
  0
POLYLINE
  8
33
 66
1
 10
0.0000
 20
0.0000
 30
0.0000
 40
0.1270
 41
0.1270
 70
0
  0
VERTEX
  8
33
 10
2.3339
 20
6.0000
 30
0.0000
  0
VERTEX
  8
33
 10
4.1669
 20
9.1750
 30
0.0000
  0
SEQEND
  8
0
  0
POLYLINE
  8
33
 66
1
 10
0.0000
 20
0.0000
 30
0.0000
 40
0.0635
 41
0.0635
 70
0
  0
VERTEX
  8
33
 10
4.1944
 20
9.1591
 30
0.0000
 42
1.0000
  0
VERTEX
  8
33
 10
4.1394
 20
9.1909
 30
0.0000
  0
SEQEND
  8
0
  0
POLYLINE
  8
33
 66
1
 10
0.0000
 20
0.0000
 30
0.0000
 40
0.0635
 41
0.0635
 70
0
  0
VERTEX
  8
33
 10
2.3064
 20
6.0159
 30
0.0000
 42
1.0000
  0
VERTEX
  8
33
 10
2.3614
 20
5.9841
 30
0.0000
  0
SEQEND
  8
0
  0
POLYLINE
  8
51
 66
1
 10
0.0000
 20
0.0000
 30
0.0000
 40
0.2540
 41
0.2540
 70
0
  0
VERTEX
  8
51
 10
6.0000
 20
3.1425
 30
0.0000
 42
1.0000
  0
VERTEX
  8
51
 10
6.0000
 20
8.8575
 30
0.0000
 42
1.0000
  0
VERTEX
  8
51
 10
6.0000
 20
3.1425
 30
0.0000
  0
SEQEND
  8
0
  0
POLYLINE
  8
21
 66
1
 10
0.0000
 20
0.0000
 30
0.0000
 40
0.2540
 41
0.2540
 70
0
  0
VERTEX
  8
21
 10
6.0000
 20
2.1900
 30
0.0000
 42
1.0000
  0
VERTEX
  8
21
 10
6.0000
 20
9.8100
 30
0.0000
 42
1.0000
  0
VERTEX
  8
21
 10
6.0000
 20
2.1900
 30
0.0000
  0
SEQEND
  8
0
  0
POLYLINE
  8
41
 66
1
 10
0.0000
 20
0.0000
 30
0.0000
 40
3.8100
 41
3.8100
 70
0
  0
VERTEX
  8
41
 10
6.0000
 20
4.0950
 30
0.0000
 42
1.0000
  0
VERTEX
  8
41
 10
6.0000
 20
7.9050
 30
0.0000
 42
1.0000
  0
VERTEX
  8
41
 10
6.0000
 20
4.0950
 30
0.0000
  0
SEQEND
  8
0
  0
POLYLINE
  8
42
 66
1
 10
0.0000
 20
0.0000
 30
0.0000
 40
3.8100
 41
3.8100
 70
0
  0
VERTEX
  8
42
 10
6.0000
 20
4.0950
 30
0.0000
 42
1.0000
  0
VERTEX
  8
42
 10
6.0000
 20
7.9050
 30
0.0000
 42
1.0000
  0
VERTEX
  8
42
 10
6.0000
 20
4.0950
 30
0.0000
  0
SEQEND
  8
0
  0
POLYLINE
  8
33
 66
1
 10
0.0000
 20
0.0000
 30
0.0000
 40
0.2540
 41
0.2540
 70
0
  0
VERTEX
  8
33
 10
6.0000
 20
3.1425
 30
0.0000
 42
1.0000
  0
VERTEX
  8
33
 10
6.0000
 20
8.8575
 30
0.0000
 42
1.0000
  0
VERTEX
  8
33
 10
6.0000
 20
3.1425
 30
0.0000
  0
SEQEND
  8
0
  0
CIRCLE
  8
20
 10
6.0000
 20
6.0000
 30
0.0000
 40
1.5875
  0
POLYLINE
  8
29
 66
1
 10
0.0000
 20
0.0000
 30
0.0000
 40
1.6510
 41
1.6510
 70
0
  0
VERTEX
  8
29
 10
6.0000
 20
5.1745
 30
0.0000
 42
1.0000
  0
VERTEX
  8
29
 10
6.0000
 20
6.8255
 30
0.0000
 42
1.0000
  0
VERTEX
  8
29
 10
6.0000
 20
5.1745
 30
0.0000
  0
SEQEND
  8
0
  0
POLYLINE
  8
30
 66
1
 10
0.0000
 20
0.0000
 30
0.0000
 40
1.6510
 41
1.6510
 70
0
  0
VERTEX
  8
30
 10
6.0000
 20
5.1745
 30
0.0000
 42
1.0000
  0
VERTEX
  8
30
 10
6.0000
 20
6.8255
 30
0.0000
 42
1.0000
  0
VERTEX
  8
30
 10
6.0000
 20
5.1745
 30
0.0000
  0
SEQEND
  8
0
  0
POLYLINE
  8
25
 66
1
 10
0.0000
 20
0.0000
 30
0.0000
 40
0.1016
 41
0.1016
 70
0
  0
VERTEX
  8
25
 10
8.9083
 20
8.9083
 30
0.0000
  0
VERTEX
  8
25
 10
8.9083
 20
10.0777
 30
0.0000
  0
SEQEND
  8
0
  0
POLYLINE
  8
25
 66
1
 10
0.0000
 20
0.0000
 30
0.0000
 40
0.0508
 41
0.0508
 70
0
  0
VERTEX
  8
25
 10
8.9337
 20
10.0777
 30
0.0000
 42
1.0000
  0
VERTEX
  8
25
 10
8.8829
 20
10.0777
 30
0.0000
  0
SEQEND
  8
0
  0
POLYLINE
  8
25
 66
1
 10
0.0000
 20
0.0000
 30
0.0000
 40
0.0508
 41
0.0508
 70
0
  0
VERTEX
  8
25
 10
8.8829
 20
8.9083
 30
0.0000
 42
1.0000
  0
VERTEX
  8
25
 10
8.9337
 20
8.9083
 30
0.0000
  0
SEQEND
  8
0
  0
POLYLINE
  8
25
 66
1
 10
0.0000
 20
0.0000
 30
0.0000
 40
0.1016
 41
0.1016
 70
0
  0
VERTEX
  8
25
 10
8.9083
 20
9.4930
 30
0.0000
  0
VERTEX
  8
25
 10
9.6879
 20
9.4930
 30
0.0000
  0
SEQEND
  8
0
  0
POLYLINE
  8
25
 66
1
 10
0.0000
 20
0.0000
 30
0.0000
 40
0.0508
 41
0.0508
 70
0
  0
VERTEX
  8
25
 10
9.6879
 20
9.4676
 30
0.0000
 42
1.0000
  0
VERTEX
  8
25
 10
9.6879
 20
9.5184
 30
0.0000
  0
SEQEND
  8
0
  0
POLYLINE
  8
25
 66
1
 10
0.0000
 20
0.0000
 30
0.0000
 40
0.0508
 41
0.0508
 70
0
  0
VERTEX
  8
25
 10
8.9083
 20
9.5184
 30
0.0000
 42
1.0000
  0
VERTEX
  8
25
 10
8.9083
 20
9.4676
 30
0.0000
  0
SEQEND
  8
0
  0
POLYLINE
  8
25
 66
1
 10
0.0000
 20
0.0000
 30
0.0000
 40
0.1016
 41
0.1016
 70
0
  0
VERTEX
  8
25
 10
9.6879
 20
10.0777
 30
0.0000
  0
VERTEX
  8
25
 10
9.6879
 20
8.9083
 30
0.0000
  0
SEQEND
  8
0
  0
POLYLINE
  8
25
 66
1
 10
0.0000
 20
0.0000
 30
0.0000
 40
0.0508
 41
0.0508
 70
0
  0
VERTEX
  8
25
 10
9.6625
 20
8.9083
 30
0.0000
 42
1.0000
  0
VERTEX
  8
25
 10
9.7133
 20
8.9083
 30
0.0000
  0
SEQEND
  8
0
  0
POLYLINE
  8
25
 66
1
 10
0.0000
 20
0.0000
 30
0.0000
 40
0.0508
 41
0.0508
 70
0
  0
VERTEX
  8
25
 10
9.7133
 20
10.0777
 30
0.0000
 42
1.0000
  0
VERTEX
  8
25
 10
9.6625
 20
10.0777
 30
0.0000
  0
SEQEND
  8
0
  0
POLYLINE
  8
25
 66
1
 10
0.0000
 20
0.0000
 30
0.0000
 40
0.1016
 41
0.1016
 70
0
  0
VERTEX
  8
25
 10
10.0777
 20
9.8828
 30
0.0000
  0
VERTEX
  8
25
 10
10.2726
 20
10.0777
 30
0.0000
  0
SEQEND
  8
0
  0
POLYLINE
  8
25
 66
1
 10
0.0000
 20
0.0000
 30
0.0000
 40
0.0508
 41
0.0508
 70
0
  0
VERTEX
  8
25
 10
10.2906
 20
10.0597
 30
0.0000
 42
1.0000
  0
VERTEX
  8
25
 10
10.2546
 20
10.0957
 30
0.0000
  0
SEQEND
  8
0
  0
POLYLINE
  8
25
 66
1
 10
0.0000
 20
0.0000
 30
0.0000
 40
0.0508
 41
0.0508
 70
0
  0
VERTEX
  8
25
 10
10.0597
 20
9.9008
 30
0.0000
 42
1.0000
  0
VERTEX
  8
25
 10
10.0957
 20
9.8648
 30
0.0000
  0
SEQEND
  8
0
  0
POLYLINE
  8
25
 66
1
 10
0.0000
 20
0.0000
 30
0.0000
 40
0.1016
 41
0.1016
 70
0
  0
VERTEX
  8
25
 10
10.2726
 20
10.0777
 30
0.0000
  0
VERTEX
  8
25
 10
10.6624
 20
10.0777
 30
0.0000
  0
SEQEND
  8
0
  0
POLYLINE
  8
25
 66
1
 10
0.0000
 20
0.0000
 30
0.0000
 40
0.0508
 41
0.0508
 70
0
  0
VERTEX
  8
25
 10
10.6624
 20
10.0523
 30
0.0000
 42
1.0000
  0
VERTEX
  8
25
 10
10.6624
 20
10.1031
 30
0.0000
  0
SEQEND
  8
0
  0
POLYLINE
  8
25
 66
1
 10
0.0000
 20
0.0000
 30
0.0000
 40
0.0508
 41
0.0508
 70
0
  0
VERTEX
  8
25
 10
10.2726
 20
10.1031
 30
0.0000
 42
1.0000
  0
VERTEX
  8
25
 10
10.2726
 20
10.0523
 30
0.0000
  0
SEQEND
  8
0
  0
POLYLINE
  8
25
 66
1
 10
0.0000
 20
0.0000
 30
0.0000
 40
0.1016
 41
0.1016
 70
0
  0
VERTEX
  8
25
 10
10.6624
 20
10.0777
 30
0.0000
  0
VERTEX
  8
25
 10
10.8573
 20
9.8828
 30
0.0000
  0
SEQEND
  8
0
  0
POLYLINE
  8
25
 66
1
 10
0.0000
 20
0.0000
 30
0.0000
 40
0.0508
 41
0.0508
 70
0
  0
VERTEX
  8
25
 10
10.8393
 20
9.8648
 30
0.0000
 42
1.0000
  0
VERTEX
  8
25
 10
10.8753
 20
9.9008
 30
0.0000
  0
SEQEND
  8
0
  0
POLYLINE
  8
25
 66
1
 10
0.0000
 20
0.0000
 30
0.0000
 40
0.0508
 41
0.0508
 70
0
  0
VERTEX
  8
25
 10
10.6804
 20
10.0957
 30
0.0000
 42
1.0000
  0
VERTEX
  8
25
 10
10.6444
 20
10.0597
 30
0.0000
  0
SEQEND
  8
0
  0
POLYLINE
  8
25
 66
1
 10
0.0000
 20
0.0000
 30
0.0000
 40
0.1016
 41
0.1016
 70
0
  0
VERTEX
  8
25
 10
10.8573
 20
9.8828
 30
0.0000
  0
VERTEX
  8
25
 10
10.8573
 20
9.6879
 30
0.0000
  0
SEQEND
  8
0
  0
POLYLINE
  8
25
 66
1
 10
0.0000
 20
0.0000
 30
0.0000
 40
0.0508
 41
0.0508
 70
0
  0
VERTEX
  8
25
 10
10.8319
 20
9.6879
 30
0.0000
 42
1.0000
  0
VERTEX
  8
25
 10
10.8827
 20
9.6879
 30
0.0000
  0
SEQEND
  8
0
  0
POLYLINE
  8
25
 66
1
 10
0.0000
 20
0.0000
 30
0.0000
 40
0.0508
 41
0.0508
 70
0
  0
VERTEX
  8
25
 10
10.8827
 20
9.8828
 30
0.0000
 42
1.0000
  0
VERTEX
  8
25
 10
10.8319
 20
9.8828
 30
0.0000
  0
SEQEND
  8
0
  0
POLYLINE
  8
25
 66
1
 10
0.0000
 20
0.0000
 30
0.0000
 40
0.1016
 41
0.1016
 70
0
  0
VERTEX
  8
25
 10
10.8573
 20
9.6879
 30
0.0000
  0
VERTEX
  8
25
 10
10.6624
 20
9.4930
 30
0.0000
  0
SEQEND
  8
0
  0
POLYLINE
  8
25
 66
1
 10
0.0000
 20
0.0000
 30
0.0000
 40
0.0508
 41
0.0508
 70
0
  0
VERTEX
  8
25
 10
10.6444
 20
9.5110
 30
0.0000
 42
1.0000
  0
VERTEX
  8
25
 10
10.6804
 20
9.4750
 30
0.0000
  0
SEQEND
  8
0
  0
POLYLINE
  8
25
 66
1
 10
0.0000
 20
0.0000
 30
0.0000
 40
0.0508
 41
0.0508
 70
0
  0
VERTEX
  8
25
 10
10.8753
 20
9.6699
 30
0.0000
 42
1.0000
  0
VERTEX
  8
25
 10
10.8393
 20
9.7059
 30
0.0000
  0
SEQEND
  8
0
  0
POLYLINE
  8
25
 66
1
 10
0.0000
 20
0.0000
 30
0.0000
 40
0.1016
 41
0.1016
 70
0
  0
VERTEX
  8
25
 10
10.6624
 20
9.4930
 30
0.0000
  0
VERTEX
  8
25
 10
10.4675
 20
9.4930
 30
0.0000
  0
SEQEND
  8
0
  0
POLYLINE
  8
25
 66
1
 10
0.0000
 20
0.0000
 30
0.0000
 40
0.0508
 41
0.0508
 70
0
  0
VERTEX
  8
25
 10
10.4675
 20
9.5184
 30
0.0000
 42
1.0000
  0
VERTEX
  8
25
 10
10.4675
 20
9.4676
 30
0.0000
  0
SEQEND
  8
0
  0
POLYLINE
  8
25
 66
1
 10
0.0000
 20
0.0000
 30
0.0000
 40
0.0508
 41
0.0508
 70
0
  0
VERTEX
  8
25
 10
10.6624
 20
9.4676
 30
0.0000
 42
1.0000
  0
VERTEX
  8
25
 10
10.6624
 20
9.5184
 30
0.0000
  0
SEQEND
  8
0
  0
POLYLINE
  8
25
 66
1
 10
0.0000
 20
0.0000
 30
0.0000
 40
0.1016
 41
0.1016
 70
0
  0
VERTEX
  8
25
 10
10.6624
 20
9.4930
 30
0.0000
  0
VERTEX
  8
25
 10
10.8573
 20
9.2981
 30
0.0000
  0
SEQEND
  8
0
  0
POLYLINE
  8
25
 66
1
 10
0.0000
 20
0.0000
 30
0.0000
 40
0.0508
 41
0.0508
 70
0
  0
VERTEX
  8
25
 10
10.8393
 20
9.2801
 30
0.0000
 42
1.0000
  0
VERTEX
  8
25
 10
10.8753
 20
9.3161
 30
0.0000
  0
SEQEND
  8
0
  0
POLYLINE
  8
25
 66
1
 10
0.0000
 20
0.0000
 30
0.0000
 40
0.0508
 41
0.0508
 70
0
  0
VERTEX
  8
25
 10
10.6804
 20
9.5110
 30
0.0000
 42
1.0000
  0
VERTEX
  8
25
 10
10.6444
 20
9.4750
 30
0.0000
  0
SEQEND
  8
0
  0
POLYLINE
  8
25
 66
1
 10
0.0000
 20
0.0000
 30
0.0000
 40
0.1016
 41
0.1016
 70
0
  0
VERTEX
  8
25
 10
10.8573
 20
9.2981
 30
0.0000
  0
VERTEX
  8
25
 10
10.8573
 20
9.1032
 30
0.0000
  0
SEQEND
  8
0
  0
POLYLINE
  8
25
 66
1
 10
0.0000
 20
0.0000
 30
0.0000
 40
0.0508
 41
0.0508
 70
0
  0
VERTEX
  8
25
 10
10.8319
 20
9.1032
 30
0.0000
 42
1.0000
  0
VERTEX
  8
25
 10
10.8827
 20
9.1032
 30
0.0000
  0
SEQEND
  8
0
  0
POLYLINE
  8
25
 66
1
 10
0.0000
 20
0.0000
 30
0.0000
 40
0.0508
 41
0.0508
 70
0
  0
VERTEX
  8
25
 10
10.8827
 20
9.2981
 30
0.0000
 42
1.0000
  0
VERTEX
  8
25
 10
10.8319
 20
9.2981
 30
0.0000
  0
SEQEND
  8
0
  0
POLYLINE
  8
25
 66
1
 10
0.0000
 20
0.0000
 30
0.0000
 40
0.1016
 41
0.1016
 70
0
  0
VERTEX
  8
25
 10
10.8573
 20
9.1032
 30
0.0000
  0
VERTEX
  8
25
 10
10.6624
 20
8.9083
 30
0.0000
  0
SEQEND
  8
0
  0
POLYLINE
  8
25
 66
1
 10
0.0000
 20
0.0000
 30
0.0000
 40
0.0508
 41
0.0508
 70
0
  0
VERTEX
  8
25
 10
10.6444
 20
8.9263
 30
0.0000
 42
1.0000
  0
VERTEX
  8
25
 10
10.6804
 20
8.8903
 30
0.0000
  0
SEQEND
  8
0
  0
POLYLINE
  8
25
 66
1
 10
0.0000
 20
0.0000
 30
0.0000
 40
0.0508
 41
0.0508
 70
0
  0
VERTEX
  8
25
 10
10.8753
 20
9.0852
 30
0.0000
 42
1.0000
  0
VERTEX
  8
25
 10
10.8393
 20
9.1212
 30
0.0000
  0
SEQEND
  8
0
  0
POLYLINE
  8
25
 66
1
 10
0.0000
 20
0.0000
 30
0.0000
 40
0.1016
 41
0.1016
 70
0
  0
VERTEX
  8
25
 10
10.6624
 20
8.9083
 30
0.0000
  0
VERTEX
  8
25
 10
10.2726
 20
8.9083
 30
0.0000
  0
SEQEND
  8
0
  0
POLYLINE
  8
25
 66
1
 10
0.0000
 20
0.0000
 30
0.0000
 40
0.0508
 41
0.0508
 70
0
  0
VERTEX
  8
25
 10
10.2726
 20
8.9337
 30
0.0000
 42
1.0000
  0
VERTEX
  8
25
 10
10.2726
 20
8.8829
 30
0.0000
  0
SEQEND
  8
0
  0
POLYLINE
  8
25
 66
1
 10
0.0000
 20
0.0000
 30
0.0000
 40
0.0508
 41
0.0508
 70
0
  0
VERTEX
  8
25
 10
10.6624
 20
8.8829
 30
0.0000
 42
1.0000
  0
VERTEX
  8
25
 10
10.6624
 20
8.9337
 30
0.0000
  0
SEQEND
  8
0
  0
POLYLINE
  8
25
 66
1
 10
0.0000
 20
0.0000
 30
0.0000
 40
0.1016
 41
0.1016
 70
0
  0
VERTEX
  8
25
 10
10.2726
 20
8.9083
 30
0.0000
  0
VERTEX
  8
25
 10
10.0777
 20
9.1032
 30
0.0000
  0
SEQEND
  8
0
  0
POLYLINE
  8
25
 66
1
 10
0.0000
 20
0.0000
 30
0.0000
 40
0.0508
 41
0.0508
 70
0
  0
VERTEX
  8
25
 10
10.0957
 20
9.1212
 30
0.0000
 42
1.0000
  0
VERTEX
  8
25
 10
10.0597
 20
9.0852
 30
0.0000
  0
SEQEND
  8
0
  0
POLYLINE
  8
25
 66
1
 10
0.0000
 20
0.0000
 30
0.0000
 40
0.0508
 41
0.0508
 70
0
  0
VERTEX
  8
25
 10
10.2546
 20
8.8903
 30
0.0000
 42
1.0000
  0
VERTEX
  8
25
 10
10.2906
 20
8.9263
 30
0.0000
  0
SEQEND
  8
0
  0
POLYLINE
  8
33
 66
1
 10
0.0000
 20
0.0000
 30
0.0000
 40
0.0762
 41
0.0762
 70
0
  0
VERTEX
  8
33
 10
5.0381
 20
9.5381
 30
0.0000
  0
VERTEX
  8
33
 10
5.0381
 20
9.9623
 30
0.0000
  0
SEQEND
  8
0
  0
POLYLINE
  8
33
 66
1
 10
0.0000
 20
0.0000
 30
0.0000
 40
0.0381
 41
0.0381
 70
0
  0
VERTEX
  8
33
 10
5.0572
 20
9.9623
 30
0.0000
 42
1.0000
  0
VERTEX
  8
33
 10
5.0191
 20
9.9623
 30
0.0000
  0
SEQEND
  8
0
  0
POLYLINE
  8
33
 66
1
 10
0.0000
 20
0.0000
 30
0.0000
 40
0.0381
 41
0.0381
 70
0
  0
VERTEX
  8
33
 10
5.0191
 20
9.5381
 30
0.0000
 42
1.0000
  0
VERTEX
  8
33
 10
5.0572
 20
9.5381
 30
0.0000
  0
SEQEND
  8
0
  0
POLYLINE
  8
33
 66
1
 10
0.0000
 20
0.0000
 30
0.0000
 40
0.0762
 41
0.0762
 70
0
  0
VERTEX
  8
33
 10
5.0381
 20
9.7502
 30
0.0000
  0
VERTEX
  8
33
 10
5.3209
 20
9.7502
 30
0.0000
  0
SEQEND
  8
0
  0
POLYLINE
  8
33
 66
1
 10
0.0000
 20
0.0000
 30
0.0000
 40
0.0381
 41
0.0381
 70
0
  0
VERTEX
  8
33
 10
5.3209
 20
9.7311
 30
0.0000
 42
1.0000
  0
VERTEX
  8
33
 10
5.3209
 20
9.7692
 30
0.0000
  0
SEQEND
  8
0
  0
POLYLINE
  8
33
 66
1
 10
0.0000
 20
0.0000
 30
0.0000
 40
0.0381
 41
0.0381
 70
0
  0
VERTEX
  8
33
 10
5.0381
 20
9.7692
 30
0.0000
 42
1.0000
  0
VERTEX
  8
33
 10
5.0381
 20
9.7311
 30
0.0000
  0
SEQEND
  8
0
  0
POLYLINE
  8
33
 66
1
 10
0.0000
 20
0.0000
 30
0.0000
 40
0.0762
 41
0.0762
 70
0
  0
VERTEX
  8
33
 10
5.3209
 20
9.9623
 30
0.0000
  0
VERTEX
  8
33
 10
5.3209
 20
9.5381
 30
0.0000
  0
SEQEND
  8
0
  0
POLYLINE
  8
33
 66
1
 10
0.0000
 20
0.0000
 30
0.0000
 40
0.0381
 41
0.0381
 70
0
  0
VERTEX
  8
33
 10
5.3018
 20
9.5381
 30
0.0000
 42
1.0000
  0
VERTEX
  8
33
 10
5.3399
 20
9.5381
 30
0.0000
  0
SEQEND
  8
0
  0
POLYLINE
  8
33
 66
1
 10
0.0000
 20
0.0000
 30
0.0000
 40
0.0381
 41
0.0381
 70
0
  0
VERTEX
  8
33
 10
5.3399
 20
9.9623
 30
0.0000
 42
1.0000
  0
VERTEX
  8
33
 10
5.3018
 20
9.9623
 30
0.0000
  0
SEQEND
  8
0
  0
POLYLINE
  8
33
 66
1
 10
0.0000
 20
0.0000
 30
0.0000
 40
0.0762
 41
0.0762
 70
0
  0
VERTEX
  8
33
 10
5.4985
 20
9.8916
 30
0.0000
  0
VERTEX
  8
33
 10
5.5692
 20
9.9623
 30
0.0000
  0
SEQEND
  8
0
  0
POLYLINE
  8
33
 66
1
 10
0.0000
 20
0.0000
 30
0.0000
 40
0.0381
 41
0.0381
 70
0
  0
VERTEX
  8
33
 10
5.5827
 20
9.9488
 30
0.0000
 42
1.0000
  0
VERTEX
  8
33
 10
5.5557
 20
9.9757
 30
0.0000
  0
SEQEND
  8
0
  0
POLYLINE
  8
33
 66
1
 10
0.0000
 20
0.0000
 30
0.0000
 40
0.0381
 41
0.0381
 70
0
  0
VERTEX
  8
33
 10
5.4850
 20
9.9050
 30
0.0000
 42
1.0000
  0
VERTEX
  8
33
 10
5.5120
 20
9.8781
 30
0.0000
  0
SEQEND
  8
0
  0
POLYLINE
  8
33
 66
1
 10
0.0000
 20
0.0000
 30
0.0000
 40
0.0762
 41
0.0762
 70
0
  0
VERTEX
  8
33
 10
5.5692
 20
9.9623
 30
0.0000
  0
VERTEX
  8
33
 10
5.7106
 20
9.9623
 30
0.0000
  0
SEQEND
  8
0
  0
POLYLINE
  8
33
 66
1
 10
0.0000
 20
0.0000
 30
0.0000
 40
0.0381
 41
0.0381
 70
0
  0
VERTEX
  8
33
 10
5.7106
 20
9.9432
 30
0.0000
 42
1.0000
  0
VERTEX
  8
33
 10
5.7106
 20
9.9813
 30
0.0000
  0
SEQEND
  8
0
  0
POLYLINE
  8
33
 66
1
 10
0.0000
 20
0.0000
 30
0.0000
 40
0.0381
 41
0.0381
 70
0
  0
VERTEX
  8
33
 10
5.5692
 20
9.9813
 30
0.0000
 42
1.0000
  0
VERTEX
  8
33
 10
5.5692
 20
9.9432
 30
0.0000
  0
SEQEND
  8
0
  0
POLYLINE
  8
33
 66
1
 10
0.0000
 20
0.0000
 30
0.0000
 40
0.0762
 41
0.0762
 70
0
  0
VERTEX
  8
33
 10
5.7106
 20
9.9623
 30
0.0000
  0
VERTEX
  8
33
 10
5.7813
 20
9.8916
 30
0.0000
  0
SEQEND
  8
0
  0
POLYLINE
  8
33
 66
1
 10
0.0000
 20
0.0000
 30
0.0000
 40
0.0381
 41
0.0381
 70
0
  0
VERTEX
  8
33
 10
5.7678
 20
9.8781
 30
0.0000
 42
1.0000
  0
VERTEX
  8
33
 10
5.7947
 20
9.9050
 30
0.0000
  0
SEQEND
  8
0
  0
POLYLINE
  8
33
 66
1
 10
0.0000
 20
0.0000
 30
0.0000
 40
0.0381
 41
0.0381
 70
0
  0
VERTEX
  8
33
 10
5.7240
 20
9.9757
 30
0.0000
 42
1.0000
  0
VERTEX
  8
33
 10
5.6971
 20
9.9488
 30
0.0000
  0
SEQEND
  8
0
  0
POLYLINE
  8
33
 66
1
 10
0.0000
 20
0.0000
 30
0.0000
 40
0.0762
 41
0.0762
 70
0
  0
VERTEX
  8
33
 10
5.7813
 20
9.8916
 30
0.0000
  0
VERTEX
  8
33
 10
5.7813
 20
9.8209
 30
0.0000
  0
SEQEND
  8
0
  0
POLYLINE
  8
33
 66
1
 10
0.0000
 20
0.0000
 30
0.0000
 40
0.0381
 41
0.0381
 70
0
  0
VERTEX
  8
33
 10
5.7622
 20
9.8209
 30
0.0000
 42
1.0000
  0
VERTEX
  8
33
 10
5.8003
 20
9.8209
 30
0.0000
  0
SEQEND
  8
0
  0
POLYLINE
  8
33
 66
1
 10
0.0000
 20
0.0000
 30
0.0000
 40
0.0381
 41
0.0381
 70
0
  0
VERTEX
  8
33
 10
5.8003
 20
9.8916
 30
0.0000
 42
1.0000
  0
VERTEX
  8
33
 10
5.7622
 20
9.8916
 30
0.0000
  0
SEQEND
  8
0
  0
POLYLINE
  8
33
 66
1
 10
0.0000
 20
0.0000
 30
0.0000
 40
0.0762
 41
0.0762
 70
0
  0
VERTEX
  8
33
 10
5.7813
 20
9.8209
 30
0.0000
  0
VERTEX
  8
33
 10
5.7106
 20
9.7502
 30
0.0000
  0
SEQEND
  8
0
  0
POLYLINE
  8
33
 66
1
 10
0.0000
 20
0.0000
 30
0.0000
 40
0.0381
 41
0.0381
 70
0
  0
VERTEX
  8
33
 10
5.6971
 20
9.7637
 30
0.0000
 42
1.0000
  0
VERTEX
  8
33
 10
5.7240
 20
9.7367
 30
0.0000
  0
SEQEND
  8
0
  0
POLYLINE
  8
33
 66
1
 10
0.0000
 20
0.0000
 30
0.0000
 40
0.0381
 41
0.0381
 70
0
  0
VERTEX
  8
33
 10
5.7947
 20
9.8074
 30
0.0000
 42
1.0000
  0
VERTEX
  8
33
 10
5.7678
 20
9.8343
 30
0.0000
  0
SEQEND
  8
0
  0
POLYLINE
  8
33
 66
1
 10
0.0000
 20
0.0000
 30
0.0000
 40
0.0762
 41
0.0762
 70
0
  0
VERTEX
  8
33
 10
5.7106
 20
9.7502
 30
0.0000
  0
VERTEX
  8
33
 10
5.6399
 20
9.7502
 30
0.0000
  0
SEQEND
  8
0
  0
POLYLINE
  8
33
 66
1
 10
0.0000
 20
0.0000
 30
0.0000
 40
0.0381
 41
0.0381
 70
0
  0
VERTEX
  8
33
 10
5.6399
 20
9.7692
 30
0.0000
 42
1.0000
  0
VERTEX
  8
33
 10
5.6399
 20
9.7311
 30
0.0000
  0
SEQEND
  8
0
  0
POLYLINE
  8
33
 66
1
 10
0.0000
 20
0.0000
 30
0.0000
 40
0.0381
 41
0.0381
 70
0
  0
VERTEX
  8
33
 10
5.7106
 20
9.7311
 30
0.0000
 42
1.0000
  0
VERTEX
  8
33
 10
5.7106
 20
9.7692
 30
0.0000
  0
SEQEND
  8
0
  0
POLYLINE
  8
33
 66
1
 10
0.0000
 20
0.0000
 30
0.0000
 40
0.0762
 41
0.0762
 70
0
  0
VERTEX
  8
33
 10
5.7106
 20
9.7502
 30
0.0000
  0
VERTEX
  8
33
 10
5.7813
 20
9.6795
 30
0.0000
  0
SEQEND
  8
0
  0
POLYLINE
  8
33
 66
1
 10
0.0000
 20
0.0000
 30
0.0000
 40
0.0381
 41
0.0381
 70
0
  0
VERTEX
  8
33
 10
5.7678
 20
9.6660
 30
0.0000
 42
1.0000
  0
VERTEX
  8
33
 10
5.7947
 20
9.6930
 30
0.0000
  0
SEQEND
  8
0
  0
POLYLINE
  8
33
 66
1
 10
0.0000
 20
0.0000
 30
0.0000
 40
0.0381
 41
0.0381
 70
0
  0
VERTEX
  8
33
 10
5.7240
 20
9.7637
 30
0.0000
 42
1.0000
  0
VERTEX
  8
33
 10
5.6971
 20
9.7367
 30
0.0000
  0
SEQEND
  8
0
  0
POLYLINE
  8
33
 66
1
 10
0.0000
 20
0.0000
 30
0.0000
 40
0.0762
 41
0.0762
 70
0
  0
VERTEX
  8
33
 10
5.7813
 20
9.6795
 30
0.0000
  0
VERTEX
  8
33
 10
5.7813
 20
9.6088
 30
0.0000
  0
SEQEND
  8
0
  0
POLYLINE
  8
33
 66
1
 10
0.0000
 20
0.0000
 30
0.0000
 40
0.0381
 41
0.0381
 70
0
  0
VERTEX
  8
33
 10
5.7622
 20
9.6088
 30
0.0000
 42
1.0000
  0
VERTEX
  8
33
 10
5.8003
 20
9.6088
 30
0.0000
  0
SEQEND
  8
0
  0
POLYLINE
  8
33
 66
1
 10
0.0000
 20
0.0000
 30
0.0000
 40
0.0381
 41
0.0381
 70
0
  0
VERTEX
  8
33
 10
5.8003
 20
9.6795
 30
0.0000
 42
1.0000
  0
VERTEX
  8
33
 10
5.7622
 20
9.6795
 30
0.0000
  0
SEQEND
  8
0
  0
POLYLINE
  8
33
 66
1
 10
0.0000
 20
0.0000
 30
0.0000
 40
0.0762
 41
0.0762
 70
0
  0
VERTEX
  8
33
 10
5.7813
 20
9.6088
 30
0.0000
  0
VERTEX
  8
33
 10
5.7106
 20
9.5381
 30
0.0000
  0
SEQEND
  8
0
  0
POLYLINE
  8
33
 66
1
 10
0.0000
 20
0.0000
 30
0.0000
 40
0.0381
 41
0.0381
 70
0
  0
VERTEX
  8
33
 10
5.6971
 20
9.5516
 30
0.0000
 42
1.0000
  0
VERTEX
  8
33
 10
5.7240
 20
9.5246
 30
0.0000
  0
SEQEND
  8
0
  0
POLYLINE
  8
33
 66
1
 10
0.0000
 20
0.0000
 30
0.0000
 40
0.0381
 41
0.0381
 70
0
  0
VERTEX
  8
33
 10
5.7947
 20
9.5953
 30
0.0000
 42
1.0000
  0
VERTEX
  8
33
 10
5.7678
 20
9.6223
 30
0.0000
  0
SEQEND
  8
0
  0
POLYLINE
  8
33
 66
1
 10
0.0000
 20
0.0000
 30
0.0000
 40
0.0762
 41
0.0762
 70
0
  0
VERTEX
  8
33
 10
5.7106
 20
9.5381
 30
0.0000
  0
VERTEX
  8
33
 10
5.5692
 20
9.5381
 30
0.0000
  0
SEQEND
  8
0
  0
POLYLINE
  8
33
 66
1
 10
0.0000
 20
0.0000
 30
0.0000
 40
0.0381
 41
0.0381
 70
0
  0
VERTEX
  8
33
 10
5.5692
 20
9.5572
 30
0.0000
 42
1.0000
  0
VERTEX
  8
33
 10
5.5692
 20
9.5191
 30
0.0000
  0
SEQEND
  8
0
  0
POLYLINE
  8
33
 66
1
 10
0.0000
 20
0.0000
 30
0.0000
 40
0.0381
 41
0.0381
 70
0
  0
VERTEX
  8
33
 10
5.7106
 20
9.5191
 30
0.0000
 42
1.0000
  0
VERTEX
  8
33
 10
5.7106
 20
9.5572
 30
0.0000
  0
SEQEND
  8
0
  0
POLYLINE
  8
33
 66
1
 10
0.0000
 20
0.0000
 30
0.0000
 40
0.0762
 41
0.0762
 70
0
  0
VERTEX
  8
33
 10
5.5692
 20
9.5381
 30
0.0000
  0
VERTEX
  8
33
 10
5.4985
 20
9.6088
 30
0.0000
  0
SEQEND
  8
0
  0
POLYLINE
  8
33
 66
1
 10
0.0000
 20
0.0000
 30
0.0000
 40
0.0381
 41
0.0381
 70
0
  0
VERTEX
  8
33
 10
5.5120
 20
9.6223
 30
0.0000
 42
1.0000
  0
VERTEX
  8
33
 10
5.4850
 20
9.5953
 30
0.0000
  0
SEQEND
  8
0
  0
POLYLINE
  8
33
 66
1
 10
0.0000
 20
0.0000
 30
0.0000
 40
0.0381
 41
0.0381
 70
0
  0
VERTEX
  8
33
 10
5.5557
 20
9.5246
 30
0.0000
 42
1.0000
  0
VERTEX
  8
33
 10
5.5827
 20
9.5516
 30
0.0000
  0
SEQEND
  8
0
  0
POINT
  8
23
 10
6.0000
 20
89.0000
 30
0.0000
  0
POLYLINE
  8
51
 66
1
 10
0.0000
 20
0.0000
 30
0.0000
 40
0.1270
 41
0.1270
 70
0
  0
VERTEX
  8
51
 10
4.1669
 20
92.1750
 30
0.0000
  0
VERTEX
  8
51
 10
7.8331
 20
92.1750
 30
0.0000
  0
SEQEND
  8
0
  0
POLYLINE
  8
51
 66
1
 10
0.0000
 20
0.0000
 30
0.0000
 40
0.0635
 41
0.0635
 70
0
  0
VERTEX
  8
51
 10
7.8331
 20
92.1433
 30
0.0000
 42
1.0000
  0
VERTEX
  8
51
 10
7.8331
 20
92.2068
 30
0.0000
  0
SEQEND
  8
0
  0
POLYLINE
  8
51
 66
1
 10
0.0000
 20
0.0000
 30
0.0000
 40
0.0635
 41
0.0635
 70
0
  0
VERTEX
  8
51
 10
4.1669
 20
92.2068
 30
0.0000
 42
1.0000
  0
VERTEX
  8
51
 10
4.1669
 20
92.1433
 30
0.0000
  0
SEQEND
  8
0
  0
POLYLINE
  8
51
 66
1
 10
0.0000
 20
0.0000
 30
0.0000
 40
0.1270
 41
0.1270
 70
0
  0
VERTEX
  8
51
 10
7.8331
 20
92.1750
 30
0.0000
  0
VERTEX
  8
51
 10
9.6662
 20
89.0000
 30
0.0000
  0
SEQEND
  8
0
  0
POLYLINE
  8
51
 66
1
 10
0.0000
 20
0.0000
 30
0.0000
 40
0.0635
 41
0.0635
 70
0
  0
VERTEX
  8
51
 10
9.6387
 20
88.9841
 30
0.0000
 42
1.0000
  0
VERTEX
  8
51
 10
9.6937
 20
89.0159
 30
0.0000
  0
SEQEND
  8
0
  0
POLYLINE
  8
51
 66
1
 10
0.0000
 20
0.0000
 30
0.0000
 40
0.0635
 41
0.0635
 70
0
  0
VERTEX
  8
51
 10
7.8606
 20
92.1909
 30
0.0000
 42
1.0000
  0
VERTEX
  8
51
 10
7.8056
 20
92.1591
 30
0.0000
  0
SEQEND
  8
0
  0
POLYLINE
  8
51
 66
1
 10
0.0000
 20
0.0000
 30
0.0000
 40
0.1270
 41
0.1270
 70
0
  0
VERTEX
  8
51
 10
9.6662
 20
89.0000
 30
0.0000
  0
VERTEX
  8
51
 10
7.8331
 20
85.8250
 30
0.0000
  0
SEQEND
  8
0
  0
POLYLINE
  8
51
 66
1
 10
0.0000
 20
0.0000
 30
0.0000
 40
0.0635
 41
0.0635
 70
0
  0
VERTEX
  8
51
 10
7.8056
 20
85.8409
 30
0.0000
 42
1.0000
  0
VERTEX
  8
51
 10
7.8606
 20
85.8091
 30
0.0000
  0
SEQEND
  8
0
  0
POLYLINE
  8
51
 66
1
 10
0.0000
 20
0.0000
 30
0.0000
 40
0.0635
 41
0.0635
 70
0
  0
VERTEX
  8
51
 10
9.6937
 20
88.9841
 30
0.0000
 42
1.0000
  0
VERTEX
  8
51
 10
9.6387
 20
89.0159
 30
0.0000
  0
SEQEND
  8
0
  0
POLYLINE
  8
51
 66
1
 10
0.0000
 20
0.0000
 30
0.0000
 40
0.1270
 41
0.1270
 70
0
  0
VERTEX
  8
51
 10
7.8331
 20
85.8250
 30
0.0000
  0
VERTEX
  8
51
 10
4.1669
 20
85.8250
 30
0.0000
  0
SEQEND
  8
0
  0
POLYLINE
  8
51
 66
1
 10
0.0000
 20
0.0000
 30
0.0000
 40
0.0635
 41
0.0635
 70
0
  0
VERTEX
  8
51
 10
4.1669
 20
85.8568
 30
0.0000
 42
1.0000
  0
VERTEX
  8
51
 10
4.1669
 20
85.7933
 30
0.0000
  0
SEQEND
  8
0
  0
POLYLINE
  8
51
 66
1
 10
0.0000
 20
0.0000
 30
0.0000
 40
0.0635
 41
0.0635
 70
0
  0
VERTEX
  8
51
 10
7.8331
 20
85.7933
 30
0.0000
 42
1.0000
  0
VERTEX
  8
51
 10
7.8331
 20
85.8568
 30
0.0000
  0
SEQEND
  8
0
  0
POLYLINE
  8
51
 66
1
 10
0.0000
 20
0.0000
 30
0.0000
 40
0.1270
 41
0.1270
 70
0
  0
VERTEX
  8
51
 10
4.1669
 20
85.8250
 30
0.0000
  0
VERTEX
  8
51
 10
2.3339
 20
89.0000
 30
0.0000
  0
SEQEND
  8
0
  0
POLYLINE
  8
51
 66
1
 10
0.0000
 20
0.0000
 30
0.0000
 40
0.0635
 41
0.0635
 70
0
  0
VERTEX
  8
51
 10
2.3614
 20
89.0159
 30
0.0000
 42
1.0000
  0
VERTEX
  8
51
 10
2.3064
 20
88.9841
 30
0.0000
  0
SEQEND
  8
0
  0
POLYLINE
  8
51
 66
1
 10
0.0000
 20
0.0000
 30
0.0000
 40
0.0635
 41
0.0635
 70
0
  0
VERTEX
  8
51
 10
4.1394
 20
85.8091
 30
0.0000
 42
1.0000
  0
VERTEX
  8
51
 10
4.1944
 20
85.8409
 30
0.0000
  0
SEQEND
  8
0
  0
POLYLINE
  8
51
 66
1
 10
0.0000
 20
0.0000
 30
0.0000
 40
0.1270
 41
0.1270
 70
0
  0
VERTEX
  8
51
 10
2.3339
 20
89.0000
 30
0.0000
  0
VERTEX
  8
51
 10
4.1669
 20
92.1750
 30
0.0000
  0
SEQEND
  8
0
  0
POLYLINE
  8
51
 66
1
 10
0.0000
 20
0.0000
 30
0.0000
 40
0.0635
 41
0.0635
 70
0
  0
VERTEX
  8
51
 10
4.1944
 20
92.1591
 30
0.0000
 42
1.0000
  0
VERTEX
  8
51
 10
4.1394
 20
92.1909
 30
0.0000
  0
SEQEND
  8
0
  0
POLYLINE
  8
51
 66
1
 10
0.0000
 20
0.0000
 30
0.0000
 40
0.0635
 41
0.0635
 70
0
  0
VERTEX
  8
51
 10
2.3064
 20
89.0159
 30
0.0000
 42
1.0000
  0
VERTEX
  8
51
 10
2.3614
 20
88.9841
 30
0.0000
  0
SEQEND
  8
0
  0
POLYLINE
  8
33
 66
1
 10
0.0000
 20
0.0000
 30
0.0000
 40
0.1270
 41
0.1270
 70
0
  0
VERTEX
  8
33
 10
4.1669
 20
92.1750
 30
0.0000
  0
VERTEX
  8
33
 10
7.8331
 20
92.1750
 30
0.0000
  0
SEQEND
  8
0
  0
POLYLINE
  8
33
 66
1
 10
0.0000
 20
0.0000
 30
0.0000
 40
0.0635
 41
0.0635
 70
0
  0
VERTEX
  8
33
 10
7.8331
 20
92.1433
 30
0.0000
 42
1.0000
  0
VERTEX
  8
33
 10
7.8331
 20
92.2068
 30
0.0000
  0
SEQEND
  8
0
  0
POLYLINE
  8
33
 66
1
 10
0.0000
 20
0.0000
 30
0.0000
 40
0.0635
 41
0.0635
 70
0
  0
VERTEX
  8
33
 10
4.1669
 20
92.2068
 30
0.0000
 42
1.0000
  0
VERTEX
  8
33
 10
4.1669
 20
92.1433
 30
0.0000
  0
SEQEND
  8
0
  0
POLYLINE
  8
33
 66
1
 10
0.0000
 20
0.0000
 30
0.0000
 40
0.1270
 41
0.1270
 70
0
  0
VERTEX
  8
33
 10
7.8331
 20
92.1750
 30
0.0000
  0
VERTEX
  8
33
 10
9.6662
 20
89.0000
 30
0.0000
  0
SEQEND
  8
0
  0
POLYLINE
  8
33
 66
1
 10
0.0000
 20
0.0000
 30
0.0000
 40
0.0635
 41
0.0635
 70
0
  0
VERTEX
  8
33
 10
9.6387
 20
88.9841
 30
0.0000
 42
1.0000
  0
VERTEX
  8
33
 10
9.6937
 20
89.0159
 30
0.0000
  0
SEQEND
  8
0
  0
POLYLINE
  8
33
 66
1
 10
0.0000
 20
0.0000
 30
0.0000
 40
0.0635
 41
0.0635
 70
0
  0
VERTEX
  8
33
 10
7.8606
 20
92.1909
 30
0.0000
 42
1.0000
  0
VERTEX
  8
33
 10
7.8056
 20
92.1591
 30
0.0000
  0
SEQEND
  8
0
  0
POLYLINE
  8
33
 66
1
 10
0.0000
 20
0.0000
 30
0.0000
 40
0.1270
 41
0.1270
 70
0
  0
VERTEX
  8
33
 10
9.6662
 20
89.0000
 30
0.0000
  0
VERTEX
  8
33
 10
7.8331
 20
85.8250
 30
0.0000
  0
SEQEND
  8
0
  0
POLYLINE
  8
33
 66
1
 10
0.0000
 20
0.0000
 30
0.0000
 40
0.0635
 41
0.0635
 70
0
  0
VERTEX
  8
33
 10
7.8056
 20
85.8409
 30
0.0000
 42
1.0000
  0
VERTEX
  8
33
 10
7.8606
 20
85.8091
 30
0.0000
  0
SEQEND
  8
0
  0
POLYLINE
  8
33
 66
1
 10
0.0000
 20
0.0000
 30
0.0000
 40
0.0635
 41
0.0635
 70
0
  0
VERTEX
  8
33
 10
9.6937
 20
88.9841
 30
0.0000
 42
1.0000
  0
VERTEX
  8
33
 10
9.6387
 20
89.0159
 30
0.0000
  0
SEQEND
  8
0
  0
POLYLINE
  8
33
 66
1
 10
0.0000
 20
0.0000
 30
0.0000
 40
0.1270
 41
0.1270
 70
0
  0
VERTEX
  8
33
 10
7.8331
 20
85.8250
 30
0.0000
  0
VERTEX
  8
33
 10
4.1669
 20
85.8250
 30
0.0000
  0
SEQEND
  8
0
  0
POLYLINE
  8
33
 66
1
 10
0.0000
 20
0.0000
 30
0.0000
 40
0.0635
 41
0.0635
 70
0
  0
VERTEX
  8
33
 10
4.1669
 20
85.8568
 30
0.0000
 42
1.0000
  0
VERTEX
  8
33
 10
4.1669
 20
85.7933
 30
0.0000
  0
SEQEND
  8
0
  0
POLYLINE
  8
33
 66
1
 10
0.0000
 20
0.0000
 30
0.0000
 40
0.0635
 41
0.0635
 70
0
  0
VERTEX
  8
33
 10
7.8331
 20
85.7933
 30
0.0000
 42
1.0000
  0
VERTEX
  8
33
 10
7.8331
 20
85.8568
 30
0.0000
  0
SEQEND
  8
0
  0
POLYLINE
  8
33
 66
1
 10
0.0000
 20
0.0000
 30
0.0000
 40
0.1270
 41
0.1270
 70
0
  0
VERTEX
  8
33
 10
4.1669
 20
85.8250
 30
0.0000
  0
VERTEX
  8
33
 10
2.3339
 20
89.0000
 30
0.0000
  0
SEQEND
  8
0
  0
POLYLINE
  8
33
 66
1
 10
0.0000
 20
0.0000
 30
0.0000
 40
0.0635
 41
0.0635
 70
0
  0
VERTEX
  8
33
 10
2.3614
 20
89.0159
 30
0.0000
 42
1.0000
  0
VERTEX
  8
33
 10
2.3064
 20
88.9841
 30
0.0000
  0
SEQEND
  8
0
  0
POLYLINE
  8
33
 66
1
 10
0.0000
 20
0.0000
 30
0.0000
 40
0.0635
 41
0.0635
 70
0
  0
VERTEX
  8
33
 10
4.1394
 20
85.8091
 30
0.0000
 42
1.0000
  0
VERTEX
  8
33
 10
4.1944
 20
85.8409
 30
0.0000
  0
SEQEND
  8
0
  0
POLYLINE
  8
33
 66
1
 10
0.0000
 20
0.0000
 30
0.0000
 40
0.1270
 41
0.1270
 70
0
  0
VERTEX
  8
33
 10
2.3339
 20
89.0000
 30
0.0000
  0
VERTEX
  8
33
 10
4.1669
 20
92.1750
 30
0.0000
  0
SEQEND
  8
0
  0
POLYLINE
  8
33
 66
1
 10
0.0000
 20
0.0000
 30
0.0000
 40
0.0635
 41
0.0635
 70
0
  0
VERTEX
  8
33
 10
4.1944
 20
92.1591
 30
0.0000
 42
1.0000
  0
VERTEX
  8
33
 10
4.1394
 20
92.1909
 30
0.0000
  0
SEQEND
  8
0
  0
POLYLINE
  8
33
 66
1
 10
0.0000
 20
0.0000
 30
0.0000
 40
0.0635
 41
0.0635
 70
0
  0
VERTEX
  8
33
 10
2.3064
 20
89.0159
 30
0.0000
 42
1.0000
  0
VERTEX
  8
33
 10
2.3614
 20
88.9841
 30
0.0000
  0
SEQEND
  8
0
  0
POLYLINE
  8
51
 66
1
 10
0.0000
 20
0.0000
 30
0.0000
 40
0.2540
 41
0.2540
 70
0
  0
VERTEX
  8
51
 10
6.0000
 20
86.1425
 30
0.0000
 42
1.0000
  0
VERTEX
  8
51
 10
6.0000
 20
91.8575
 30
0.0000
 42
1.0000
  0
VERTEX
  8
51
 10
6.0000
 20
86.1425
 30
0.0000
  0
SEQEND
  8
0
  0
POLYLINE
  8
21
 66
1
 10
0.0000
 20
0.0000
 30
0.0000
 40
0.2540
 41
0.2540
 70
0
  0
VERTEX
  8
21
 10
6.0000
 20
85.1900
 30
0.0000
 42
1.0000
  0
VERTEX
  8
21
 10
6.0000
 20
92.8100
 30
0.0000
 42
1.0000
  0
VERTEX
  8
21
 10
6.0000
 20
85.1900
 30
0.0000
  0
SEQEND
  8
0
  0
POLYLINE
  8
41
 66
1
 10
0.0000
 20
0.0000
 30
0.0000
 40
3.8100
 41
3.8100
 70
0
  0
VERTEX
  8
41
 10
6.0000
 20
87.0950
 30
0.0000
 42
1.0000
  0
VERTEX
  8
41
 10
6.0000
 20
90.9050
 30
0.0000
 42
1.0000
  0
VERTEX
  8
41
 10
6.0000
 20
87.0950
 30
0.0000
  0
SEQEND
  8
0
  0
POLYLINE
  8
42
 66
1
 10
0.0000
 20
0.0000
 30
0.0000
 40
3.8100
 41
3.8100
 70
0
  0
VERTEX
  8
42
 10
6.0000
 20
87.0950
 30
0.0000
 42
1.0000
  0
VERTEX
  8
42
 10
6.0000
 20
90.9050
 30
0.0000
 42
1.0000
  0
VERTEX
  8
42
 10
6.0000
 20
87.0950
 30
0.0000
  0
SEQEND
  8
0
  0
POLYLINE
  8
33
 66
1
 10
0.0000
 20
0.0000
 30
0.0000
 40
0.2540
 41
0.2540
 70
0
  0
VERTEX
  8
33
 10
6.0000
 20
86.1425
 30
0.0000
 42
1.0000
  0
VERTEX
  8
33
 10
6.0000
 20
91.8575
 30
0.0000
 42
1.0000
  0
VERTEX
  8
33
 10
6.0000
 20
86.1425
 30
0.0000
  0
SEQEND
  8
0
  0
CIRCLE
  8
20
 10
6.0000
 20
89.0000
 30
0.0000
 40
1.5875
  0
POLYLINE
  8
29
 66
1
 10
0.0000
 20
0.0000
 30
0.0000
 40
1.6510
 41
1.6510
 70
0
  0
VERTEX
  8
29
 10
6.0000
 20
88.1745
 30
0.0000
 42
1.0000
  0
VERTEX
  8
29
 10
6.0000
 20
89.8255
 30
0.0000
 42
1.0000
  0
VERTEX
  8
29
 10
6.0000
 20
88.1745
 30
0.0000
  0
SEQEND
  8
0
  0
POLYLINE
  8
30
 66
1
 10
0.0000
 20
0.0000
 30
0.0000
 40
1.6510
 41
1.6510
 70
0
  0
VERTEX
  8
30
 10
6.0000
 20
88.1745
 30
0.0000
 42
1.0000
  0
VERTEX
  8
30
 10
6.0000
 20
89.8255
 30
0.0000
 42
1.0000
  0
VERTEX
  8
30
 10
6.0000
 20
88.1745
 30
0.0000
  0
SEQEND
  8
0
  0
POLYLINE
  8
25
 66
1
 10
0.0000
 20
0.0000
 30
0.0000
 40
0.1016
 41
0.1016
 70
0
  0
VERTEX
  8
25
 10
8.9083
 20
91.9083
 30
0.0000
  0
VERTEX
  8
25
 10
8.9083
 20
93.0777
 30
0.0000
  0
SEQEND
  8
0
  0
POLYLINE
  8
25
 66
1
 10
0.0000
 20
0.0000
 30
0.0000
 40
0.0508
 41
0.0508
 70
0
  0
VERTEX
  8
25
 10
8.9337
 20
93.0777
 30
0.0000
 42
1.0000
  0
VERTEX
  8
25
 10
8.8829
 20
93.0777
 30
0.0000
  0
SEQEND
  8
0
  0
POLYLINE
  8
25
 66
1
 10
0.0000
 20
0.0000
 30
0.0000
 40
0.0508
 41
0.0508
 70
0
  0
VERTEX
  8
25
 10
8.8829
 20
91.9083
 30
0.0000
 42
1.0000
  0
VERTEX
  8
25
 10
8.9337
 20
91.9083
 30
0.0000
  0
SEQEND
  8
0
  0
POLYLINE
  8
25
 66
1
 10
0.0000
 20
0.0000
 30
0.0000
 40
0.1016
 41
0.1016
 70
0
  0
VERTEX
  8
25
 10
8.9083
 20
92.4930
 30
0.0000
  0
VERTEX
  8
25
 10
9.6879
 20
92.4930
 30
0.0000
  0
SEQEND
  8
0
  0
POLYLINE
  8
25
 66
1
 10
0.0000
 20
0.0000
 30
0.0000
 40
0.0508
 41
0.0508
 70
0
  0
VERTEX
  8
25
 10
9.6879
 20
92.4676
 30
0.0000
 42
1.0000
  0
VERTEX
  8
25
 10
9.6879
 20
92.5184
 30
0.0000
  0
SEQEND
  8
0
  0
POLYLINE
  8
25
 66
1
 10
0.0000
 20
0.0000
 30
0.0000
 40
0.0508
 41
0.0508
 70
0
  0
VERTEX
  8
25
 10
8.9083
 20
92.5184
 30
0.0000
 42
1.0000
  0
VERTEX
  8
25
 10
8.9083
 20
92.4676
 30
0.0000
  0
SEQEND
  8
0
  0
POLYLINE
  8
25
 66
1
 10
0.0000
 20
0.0000
 30
0.0000
 40
0.1016
 41
0.1016
 70
0
  0
VERTEX
  8
25
 10
9.6879
 20
93.0777
 30
0.0000
  0
VERTEX
  8
25
 10
9.6879
 20
91.9083
 30
0.0000
  0
SEQEND
  8
0
  0
POLYLINE
  8
25
 66
1
 10
0.0000
 20
0.0000
 30
0.0000
 40
0.0508
 41
0.0508
 70
0
  0
VERTEX
  8
25
 10
9.6625
 20
91.9083
 30
0.0000
 42
1.0000
  0
VERTEX
  8
25
 10
9.7133
 20
91.9083
 30
0.0000
  0
SEQEND
  8
0
  0
POLYLINE
  8
25
 66
1
 10
0.0000
 20
0.0000
 30
0.0000
 40
0.0508
 41
0.0508
 70
0
  0
VERTEX
  8
25
 10
9.7133
 20
93.0777
 30
0.0000
 42
1.0000
  0
VERTEX
  8
25
 10
9.6625
 20
93.0777
 30
0.0000
  0
SEQEND
  8
0
  0
POLYLINE
  8
25
 66
1
 10
0.0000
 20
0.0000
 30
0.0000
 40
0.1016
 41
0.1016
 70
0
  0
VERTEX
  8
25
 10
10.6624
 20
91.9083
 30
0.0000
  0
VERTEX
  8
25
 10
10.6624
 20
93.0777
 30
0.0000
  0
SEQEND
  8
0
  0
POLYLINE
  8
25
 66
1
 10
0.0000
 20
0.0000
 30
0.0000
 40
0.0508
 41
0.0508
 70
0
  0
VERTEX
  8
25
 10
10.6878
 20
93.0777
 30
0.0000
 42
1.0000
  0
VERTEX
  8
25
 10
10.6370
 20
93.0777
 30
0.0000
  0
SEQEND
  8
0
  0
POLYLINE
  8
25
 66
1
 10
0.0000
 20
0.0000
 30
0.0000
 40
0.0508
 41
0.0508
 70
0
  0
VERTEX
  8
25
 10
10.6370
 20
91.9083
 30
0.0000
 42
1.0000
  0
VERTEX
  8
25
 10
10.6878
 20
91.9083
 30
0.0000
  0
SEQEND
  8
0
  0
POLYLINE
  8
25
 66
1
 10
0.0000
 20
0.0000
 30
0.0000
 40
0.1016
 41
0.1016
 70
0
  0
VERTEX
  8
25
 10
10.6624
 20
93.0777
 30
0.0000
  0
VERTEX
  8
25
 10
10.0777
 20
92.4930
 30
0.0000
  0
SEQEND
  8
0
  0
POLYLINE
  8
25
 66
1
 10
0.0000
 20
0.0000
 30
0.0000
 40
0.0508
 41
0.0508
 70
0
  0
VERTEX
  8
25
 10
10.0597
 20
92.5110
 30
0.0000
 42
1.0000
  0
VERTEX
  8
25
 10
10.0957
 20
92.4750
 30
0.0000
  0
SEQEND
  8
0
  0
POLYLINE
  8
25
 66
1
 10
0.0000
 20
0.0000
 30
0.0000
 40
0.0508
 41
0.0508
 70
0
  0
VERTEX
  8
25
 10
10.6804
 20
93.0597
 30
0.0000
 42
1.0000
  0
VERTEX
  8
25
 10
10.6444
 20
93.0957
 30
0.0000
  0
SEQEND
  8
0
  0
POLYLINE
  8
25
 66
1
 10
0.0000
 20
0.0000
 30
0.0000
 40
0.1016
 41
0.1016
 70
0
  0
VERTEX
  8
25
 10
10.0777
 20
92.4930
 30
0.0000
  0
VERTEX
  8
25
 10
10.8573
 20
92.4930
 30
0.0000
  0
SEQEND
  8
0
  0
POLYLINE
  8
25
 66
1
 10
0.0000
 20
0.0000
 30
0.0000
 40
0.0508
 41
0.0508
 70
0
  0
VERTEX
  8
25
 10
10.8573
 20
92.4676
 30
0.0000
 42
1.0000
  0
VERTEX
  8
25
 10
10.8573
 20
92.5184
 30
0.0000
  0
SEQEND
  8
0
  0
POLYLINE
  8
25
 66
1
 10
0.0000
 20
0.0000
 30
0.0000
 40
0.0508
 41
0.0508
 70
0
  0
VERTEX
  8
25
 10
10.0777
 20
92.5184
 30
0.0000
 42
1.0000
  0
VERTEX
  8
25
 10
10.0777
 20
92.4676
 30
0.0000
  0
SEQEND
  8
0
  0
POLYLINE
  8
33
 66
1
 10
0.0000
 20
0.0000
 30
0.0000
 40
0.0762
 41
0.0762
 70
0
  0
VERTEX
  8
33
 10
5.0381
 20
92.5381
 30
0.0000
  0
VERTEX
  8
33
 10
5.0381
 20
92.9623
 30
0.0000
  0
SEQEND
  8
0
  0
POLYLINE
  8
33
 66
1
 10
0.0000
 20
0.0000
 30
0.0000
 40
0.0381
 41
0.0381
 70
0
  0
VERTEX
  8
33
 10
5.0572
 20
92.9623
 30
0.0000
 42
1.0000
  0
VERTEX
  8
33
 10
5.0191
 20
92.9623
 30
0.0000
  0
SEQEND
  8
0
  0
POLYLINE
  8
33
 66
1
 10
0.0000
 20
0.0000
 30
0.0000
 40
0.0381
 41
0.0381
 70
0
  0
VERTEX
  8
33
 10
5.0191
 20
92.5381
 30
0.0000
 42
1.0000
  0
VERTEX
  8
33
 10
5.0572
 20
92.5381
 30
0.0000
  0
SEQEND
  8
0
  0
POLYLINE
  8
33
 66
1
 10
0.0000
 20
0.0000
 30
0.0000
 40
0.0762
 41
0.0762
 70
0
  0
VERTEX
  8
33
 10
5.0381
 20
92.7502
 30
0.0000
  0
VERTEX
  8
33
 10
5.3209
 20
92.7502
 30
0.0000
  0
SEQEND
  8
0
  0
POLYLINE
  8
33
 66
1
 10
0.0000
 20
0.0000
 30
0.0000
 40
0.0381
 41
0.0381
 70
0
  0
VERTEX
  8
33
 10
5.3209
 20
92.7311
 30
0.0000
 42
1.0000
  0
VERTEX
  8
33
 10
5.3209
 20
92.7692
 30
0.0000
  0
SEQEND
  8
0
  0
POLYLINE
  8
33
 66
1
 10
0.0000
 20
0.0000
 30
0.0000
 40
0.0381
 41
0.0381
 70
0
  0
VERTEX
  8
33
 10
5.0381
 20
92.7692
 30
0.0000
 42
1.0000
  0
VERTEX
  8
33
 10
5.0381
 20
92.7311
 30
0.0000
  0
SEQEND
  8
0
  0
POLYLINE
  8
33
 66
1
 10
0.0000
 20
0.0000
 30
0.0000
 40
0.0762
 41
0.0762
 70
0
  0
VERTEX
  8
33
 10
5.3209
 20
92.9623
 30
0.0000
  0
VERTEX
  8
33
 10
5.3209
 20
92.5381
 30
0.0000
  0
SEQEND
  8
0
  0
POLYLINE
  8
33
 66
1
 10
0.0000
 20
0.0000
 30
0.0000
 40
0.0381
 41
0.0381
 70
0
  0
VERTEX
  8
33
 10
5.3018
 20
92.5381
 30
0.0000
 42
1.0000
  0
VERTEX
  8
33
 10
5.3399
 20
92.5381
 30
0.0000
  0
SEQEND
  8
0
  0
POLYLINE
  8
33
 66
1
 10
0.0000
 20
0.0000
 30
0.0000
 40
0.0381
 41
0.0381
 70
0
  0
VERTEX
  8
33
 10
5.3399
 20
92.9623
 30
0.0000
 42
1.0000
  0
VERTEX
  8
33
 10
5.3018
 20
92.9623
 30
0.0000
  0
SEQEND
  8
0
  0
POLYLINE
  8
33
 66
1
 10
0.0000
 20
0.0000
 30
0.0000
 40
0.0762
 41
0.0762
 70
0
  0
VERTEX
  8
33
 10
5.7106
 20
92.5381
 30
0.0000
  0
VERTEX
  8
33
 10
5.7106
 20
92.9623
 30
0.0000
  0
SEQEND
  8
0
  0
POLYLINE
  8
33
 66
1
 10
0.0000
 20
0.0000
 30
0.0000
 40
0.0381
 41
0.0381
 70
0
  0
VERTEX
  8
33
 10
5.7296
 20
92.9623
 30
0.0000
 42
1.0000
  0
VERTEX
  8
33
 10
5.6915
 20
92.9623
 30
0.0000
  0
SEQEND
  8
0
  0
POLYLINE
  8
33
 66
1
 10
0.0000
 20
0.0000
 30
0.0000
 40
0.0381
 41
0.0381
 70
0
  0
VERTEX
  8
33
 10
5.6915
 20
92.5381
 30
0.0000
 42
1.0000
  0
VERTEX
  8
33
 10
5.7296
 20
92.5381
 30
0.0000
  0
SEQEND
  8
0
  0
POLYLINE
  8
33
 66
1
 10
0.0000
 20
0.0000
 30
0.0000
 40
0.0762
 41
0.0762
 70
0
  0
VERTEX
  8
33
 10
5.7106
 20
92.9623
 30
0.0000
  0
VERTEX
  8
33
 10
5.4985
 20
92.7502
 30
0.0000
  0
SEQEND
  8
0
  0
POLYLINE
  8
33
 66
1
 10
0.0000
 20
0.0000
 30
0.0000
 40
0.0381
 41
0.0381
 70
0
  0
VERTEX
  8
33
 10
5.4850
 20
92.7637
 30
0.0000
 42
1.0000
  0
VERTEX
  8
33
 10
5.5120
 20
92.7367
 30
0.0000
  0
SEQEND
  8
0
  0
POLYLINE
  8
33
 66
1
 10
0.0000
 20
0.0000
 30
0.0000
 40
0.0381
 41
0.0381
 70
0
  0
VERTEX
  8
33
 10
5.7240
 20
92.9488
 30
0.0000
 42
1.0000
  0
VERTEX
  8
33
 10
5.6971
 20
92.9757
 30
0.0000
  0
SEQEND
  8
0
  0
POLYLINE
  8
33
 66
1
 10
0.0000
 20
0.0000
 30
0.0000
 40
0.0762
 41
0.0762
 70
0
  0
VERTEX
  8
33
 10
5.4985
 20
92.7502
 30
0.0000
  0
VERTEX
  8
33
 10
5.7813
 20
92.7502
 30
0.0000
  0
SEQEND
  8
0
  0
POLYLINE
  8
33
 66
1
 10
0.0000
 20
0.0000
 30
0.0000
 40
0.0381
 41
0.0381
 70
0
  0
VERTEX
  8
33
 10
5.7813
 20
92.7311
 30
0.0000
 42
1.0000
  0
VERTEX
  8
33
 10
5.7813
 20
92.7692
 30
0.0000
  0
SEQEND
  8
0
  0
POLYLINE
  8
33
 66
1
 10
0.0000
 20
0.0000
 30
0.0000
 40
0.0381
 41
0.0381
 70
0
  0
VERTEX
  8
33
 10
5.4985
 20
92.7692
 30
0.0000
 42
1.0000
  0
VERTEX
  8
33
 10
5.4985
 20
92.7311
 30
0.0000
  0
SEQEND
  8
0
  0
POINT
  8
23
 10
75.5000
 20
6.0000
 30
0.0000
  0
POLYLINE
  8
51
 66
1
 10
0.0000
 20
0.0000
 30
0.0000
 40
0.1270
 41
0.1270
 70
0
  0
VERTEX
  8
51
 10
73.6669
 20
9.1750
 30
0.0000
  0
VERTEX
  8
51
 10
77.3331
 20
9.1750
 30
0.0000
  0
SEQEND
  8
0
  0
POLYLINE
  8
51
 66
1
 10
0.0000
 20
0.0000
 30
0.0000
 40
0.0635
 41
0.0635
 70
0
  0
VERTEX
  8
51
 10
77.3331
 20
9.1433
 30
0.0000
 42
1.0000
  0
VERTEX
  8
51
 10
77.3331
 20
9.2068
 30
0.0000
  0
SEQEND
  8
0
  0
POLYLINE
  8
51
 66
1
 10
0.0000
 20
0.0000
 30
0.0000
 40
0.0635
 41
0.0635
 70
0
  0
VERTEX
  8
51
 10
73.6669
 20
9.2068
 30
0.0000
 42
1.0000
  0
VERTEX
  8
51
 10
73.6669
 20
9.1433
 30
0.0000
  0
SEQEND
  8
0
  0
POLYLINE
  8
51
 66
1
 10
0.0000
 20
0.0000
 30
0.0000
 40
0.1270
 41
0.1270
 70
0
  0
VERTEX
  8
51
 10
77.3331
 20
9.1750
 30
0.0000
  0
VERTEX
  8
51
 10
79.1662
 20
6.0000
 30
0.0000
  0
SEQEND
  8
0
  0
POLYLINE
  8
51
 66
1
 10
0.0000
 20
0.0000
 30
0.0000
 40
0.0635
 41
0.0635
 70
0
  0
VERTEX
  8
51
 10
79.1387
 20
5.9841
 30
0.0000
 42
1.0000
  0
VERTEX
  8
51
 10
79.1937
 20
6.0159
 30
0.0000
  0
SEQEND
  8
0
  0
POLYLINE
  8
51
 66
1
 10
0.0000
 20
0.0000
 30
0.0000
 40
0.0635
 41
0.0635
 70
0
  0
VERTEX
  8
51
 10
77.3606
 20
9.1909
 30
0.0000
 42
1.0000
  0
VERTEX
  8
51
 10
77.3056
 20
9.1591
 30
0.0000
  0
SEQEND
  8
0
  0
POLYLINE
  8
51
 66
1
 10
0.0000
 20
0.0000
 30
0.0000
 40
0.1270
 41
0.1270
 70
0
  0
VERTEX
  8
51
 10
79.1662
 20
6.0000
 30
0.0000
  0
VERTEX
  8
51
 10
77.3331
 20
2.8250
 30
0.0000
  0
SEQEND
  8
0
  0
POLYLINE
  8
51
 66
1
 10
0.0000
 20
0.0000
 30
0.0000
 40
0.0635
 41
0.0635
 70
0
  0
VERTEX
  8
51
 10
77.3056
 20
2.8409
 30
0.0000
 42
1.0000
  0
VERTEX
  8
51
 10
77.3606
 20
2.8091
 30
0.0000
  0
SEQEND
  8
0
  0
POLYLINE
  8
51
 66
1
 10
0.0000
 20
0.0000
 30
0.0000
 40
0.0635
 41
0.0635
 70
0
  0
VERTEX
  8
51
 10
79.1937
 20
5.9841
 30
0.0000
 42
1.0000
  0
VERTEX
  8
51
 10
79.1387
 20
6.0159
 30
0.0000
  0
SEQEND
  8
0
  0
POLYLINE
  8
51
 66
1
 10
0.0000
 20
0.0000
 30
0.0000
 40
0.1270
 41
0.1270
 70
0
  0
VERTEX
  8
51
 10
77.3331
 20
2.8250
 30
0.0000
  0
VERTEX
  8
51
 10
73.6669
 20
2.8250
 30
0.0000
  0
SEQEND
  8
0
  0
POLYLINE
  8
51
 66
1
 10
0.0000
 20
0.0000
 30
0.0000
 40
0.0635
 41
0.0635
 70
0
  0
VERTEX
  8
51
 10
73.6669
 20
2.8568
 30
0.0000
 42
1.0000
  0
VERTEX
  8
51
 10
73.6669
 20
2.7933
 30
0.0000
  0
SEQEND
  8
0
  0
POLYLINE
  8
51
 66
1
 10
0.0000
 20
0.0000
 30
0.0000
 40
0.0635
 41
0.0635
 70
0
  0
VERTEX
  8
51
 10
77.3331
 20
2.7933
 30
0.0000
 42
1.0000
  0
VERTEX
  8
51
 10
77.3331
 20
2.8568
 30
0.0000
  0
SEQEND
  8
0
  0
POLYLINE
  8
51
 66
1
 10
0.0000
 20
0.0000
 30
0.0000
 40
0.1270
 41
0.1270
 70
0
  0
VERTEX
  8
51
 10
73.6669
 20
2.8250
 30
0.0000
  0
VERTEX
  8
51
 10
71.8339
 20
6.0000
 30
0.0000
  0
SEQEND
  8
0
  0
POLYLINE
  8
51
 66
1
 10
0.0000
 20
0.0000
 30
0.0000
 40
0.0635
 41
0.0635
 70
0
  0
VERTEX
  8
51
 10
71.8614
 20
6.0159
 30
0.0000
 42
1.0000
  0
VERTEX
  8
51
 10
71.8064
 20
5.9841
 30
0.0000
  0
SEQEND
  8
0
  0
POLYLINE
  8
51
 66
1
 10
0.0000
 20
0.0000
 30
0.0000
 40
0.0635
 41
0.0635
 70
0
  0
VERTEX
  8
51
 10
73.6394
 20
2.8091
 30
0.0000
 42
1.0000
  0
VERTEX
  8
51
 10
73.6944
 20
2.8409
 30
0.0000
  0
SEQEND
  8
0
  0
POLYLINE
  8
51
 66
1
 10
0.0000
 20
0.0000
 30
0.0000
 40
0.1270
 41
0.1270
 70
0
  0
VERTEX
  8
51
 10
71.8339
 20
6.0000
 30
0.0000
  0
VERTEX
  8
51
 10
73.6669
 20
9.1750
 30
0.0000
  0
SEQEND
  8
0
  0
POLYLINE
  8
51
 66
1
 10
0.0000
 20
0.0000
 30
0.0000
 40
0.0635
 41
0.0635
 70
0
  0
VERTEX
  8
51
 10
73.6944
 20
9.1591
 30
0.0000
 42
1.0000
  0
VERTEX
  8
51
 10
73.6394
 20
9.1909
 30
0.0000
  0
SEQEND
  8
0
  0
POLYLINE
  8
51
 66
1
 10
0.0000
 20
0.0000
 30
0.0000
 40
0.0635
 41
0.0635
 70
0
  0
VERTEX
  8
51
 10
71.8064
 20
6.0159
 30
0.0000
 42
1.0000
  0
VERTEX
  8
51
 10
71.8614
 20
5.9841
 30
0.0000
  0
SEQEND
  8
0
  0
POLYLINE
  8
33
 66
1
 10
0.0000
 20
0.0000
 30
0.0000
 40
0.1270
 41
0.1270
 70
0
  0
VERTEX
  8
33
 10
73.6669
 20
9.1750
 30
0.0000
  0
VERTEX
  8
33
 10
77.3331
 20
9.1750
 30
0.0000
  0
SEQEND
  8
0
  0
POLYLINE
  8
33
 66
1
 10
0.0000
 20
0.0000
 30
0.0000
 40
0.0635
 41
0.0635
 70
0
  0
VERTEX
  8
33
 10
77.3331
 20
9.1433
 30
0.0000
 42
1.0000
  0
VERTEX
  8
33
 10
77.3331
 20
9.2068
 30
0.0000
  0
SEQEND
  8
0
  0
POLYLINE
  8
33
 66
1
 10
0.0000
 20
0.0000
 30
0.0000
 40
0.0635
 41
0.0635
 70
0
  0
VERTEX
  8
33
 10
73.6669
 20
9.2068
 30
0.0000
 42
1.0000
  0
VERTEX
  8
33
 10
73.6669
 20
9.1433
 30
0.0000
  0
SEQEND
  8
0
  0
POLYLINE
  8
33
 66
1
 10
0.0000
 20
0.0000
 30
0.0000
 40
0.1270
 41
0.1270
 70
0
  0
VERTEX
  8
33
 10
77.3331
 20
9.1750
 30
0.0000
  0
VERTEX
  8
33
 10
79.1662
 20
6.0000
 30
0.0000
  0
SEQEND
  8
0
  0
POLYLINE
  8
33
 66
1
 10
0.0000
 20
0.0000
 30
0.0000
 40
0.0635
 41
0.0635
 70
0
  0
VERTEX
  8
33
 10
79.1387
 20
5.9841
 30
0.0000
 42
1.0000
  0
VERTEX
  8
33
 10
79.1937
 20
6.0159
 30
0.0000
  0
SEQEND
  8
0
  0
POLYLINE
  8
33
 66
1
 10
0.0000
 20
0.0000
 30
0.0000
 40
0.0635
 41
0.0635
 70
0
  0
VERTEX
  8
33
 10
77.3606
 20
9.1909
 30
0.0000
 42
1.0000
  0
VERTEX
  8
33
 10
77.3056
 20
9.1591
 30
0.0000
  0
SEQEND
  8
0
  0
POLYLINE
  8
33
 66
1
 10
0.0000
 20
0.0000
 30
0.0000
 40
0.1270
 41
0.1270
 70
0
  0
VERTEX
  8
33
 10
79.1662
 20
6.0000
 30
0.0000
  0
VERTEX
  8
33
 10
77.3331
 20
2.8250
 30
0.0000
  0
SEQEND
  8
0
  0
POLYLINE
  8
33
 66
1
 10
0.0000
 20
0.0000
 30
0.0000
 40
0.0635
 41
0.0635
 70
0
  0
VERTEX
  8
33
 10
77.3056
 20
2.8409
 30
0.0000
 42
1.0000
  0
VERTEX
  8
33
 10
77.3606
 20
2.8091
 30
0.0000
  0
SEQEND
  8
0
  0
POLYLINE
  8
33
 66
1
 10
0.0000
 20
0.0000
 30
0.0000
 40
0.0635
 41
0.0635
 70
0
  0
VERTEX
  8
33
 10
79.1937
 20
5.9841
 30
0.0000
 42
1.0000
  0
VERTEX
  8
33
 10
79.1387
 20
6.0159
 30
0.0000
  0
SEQEND
  8
0
  0
POLYLINE
  8
33
 66
1
 10
0.0000
 20
0.0000
 30
0.0000
 40
0.1270
 41
0.1270
 70
0
  0
VERTEX
  8
33
 10
77.3331
 20
2.8250
 30
0.0000
  0
VERTEX
  8
33
 10
73.6669
 20
2.8250
 30
0.0000
  0
SEQEND
  8
0
  0
POLYLINE
  8
33
 66
1
 10
0.0000
 20
0.0000
 30
0.0000
 40
0.0635
 41
0.0635
 70
0
  0
VERTEX
  8
33
 10
73.6669
 20
2.8568
 30
0.0000
 42
1.0000
  0
VERTEX
  8
33
 10
73.6669
 20
2.7933
 30
0.0000
  0
SEQEND
  8
0
  0
POLYLINE
  8
33
 66
1
 10
0.0000
 20
0.0000
 30
0.0000
 40
0.0635
 41
0.0635
 70
0
  0
VERTEX
  8
33
 10
77.3331
 20
2.7933
 30
0.0000
 42
1.0000
  0
VERTEX
  8
33
 10
77.3331
 20
2.8568
 30
0.0000
  0
SEQEND
  8
0
  0
POLYLINE
  8
33
 66
1
 10
0.0000
 20
0.0000
 30
0.0000
 40
0.1270
 41
0.1270
 70
0
  0
VERTEX
  8
33
 10
73.6669
 20
2.8250
 30
0.0000
  0
VERTEX
  8
33
 10
71.8339
 20
6.0000
 30
0.0000
  0
SEQEND
  8
0
  0
POLYLINE
  8
33
 66
1
 10
0.0000
 20
0.0000
 30
0.0000
 40
0.0635
 41
0.0635
 70
0
  0
VERTEX
  8
33
 10
71.8614
 20
6.0159
 30
0.0000
 42
1.0000
  0
VERTEX
  8
33
 10
71.8064
 20
5.9841
 30
0.0000
  0
SEQEND
  8
0
  0
POLYLINE
  8
33
 66
1
 10
0.0000
 20
0.0000
 30
0.0000
 40
0.0635
 41
0.0635
 70
0
  0
VERTEX
  8
33
 10
73.6394
 20
2.8091
 30
0.0000
 42
1.0000
  0
VERTEX
  8
33
 10
73.6944
 20
2.8409
 30
0.0000
  0
SEQEND
  8
0
  0
POLYLINE
  8
33
 66
1
 10
0.0000
 20
0.0000
 30
0.0000
 40
0.1270
 41
0.1270
 70
0
  0
VERTEX
  8
33
 10
71.8339
 20
6.0000
 30
0.0000
  0
VERTEX
  8
33
 10
73.6669
 20
9.1750
 30
0.0000
  0
SEQEND
  8
0
  0
POLYLINE
  8
33
 66
1
 10
0.0000
 20
0.0000
 30
0.0000
 40
0.0635
 41
0.0635
 70
0
  0
VERTEX
  8
33
 10
73.6944
 20
9.1591
 30
0.0000
 42
1.0000
  0
VERTEX
  8
33
 10
73.6394
 20
9.1909
 30
0.0000
  0
SEQEND
  8
0
  0
POLYLINE
  8
33
 66
1
 10
0.0000
 20
0.0000
 30
0.0000
 40
0.0635
 41
0.0635
 70
0
  0
VERTEX
  8
33
 10
71.8064
 20
6.0159
 30
0.0000
 42
1.0000
  0
VERTEX
  8
33
 10
71.8614
 20
5.9841
 30
0.0000
  0
SEQEND
  8
0
  0
POLYLINE
  8
51
 66
1
 10
0.0000
 20
0.0000
 30
0.0000
 40
0.2540
 41
0.2540
 70
0
  0
VERTEX
  8
51
 10
75.5000
 20
3.1425
 30
0.0000
 42
1.0000
  0
VERTEX
  8
51
 10
75.5000
 20
8.8575
 30
0.0000
 42
1.0000
  0
VERTEX
  8
51
 10
75.5000
 20
3.1425
 30
0.0000
  0
SEQEND
  8
0
  0
POLYLINE
  8
21
 66
1
 10
0.0000
 20
0.0000
 30
0.0000
 40
0.2540
 41
0.2540
 70
0
  0
VERTEX
  8
21
 10
75.5000
 20
2.1900
 30
0.0000
 42
1.0000
  0
VERTEX
  8
21
 10
75.5000
 20
9.8100
 30
0.0000
 42
1.0000
  0
VERTEX
  8
21
 10
75.5000
 20
2.1900
 30
0.0000
  0
SEQEND
  8
0
  0
POLYLINE
  8
41
 66
1
 10
0.0000
 20
0.0000
 30
0.0000
 40
3.8100
 41
3.8100
 70
0
  0
VERTEX
  8
41
 10
75.5000
 20
4.0950
 30
0.0000
 42
1.0000
  0
VERTEX
  8
41
 10
75.5000
 20
7.9050
 30
0.0000
 42
1.0000
  0
VERTEX
  8
41
 10
75.5000
 20
4.0950
 30
0.0000
  0
SEQEND
  8
0
  0
POLYLINE
  8
42
 66
1
 10
0.0000
 20
0.0000
 30
0.0000
 40
3.8100
 41
3.8100
 70
0
  0
VERTEX
  8
42
 10
75.5000
 20
4.0950
 30
0.0000
 42
1.0000
  0
VERTEX
  8
42
 10
75.5000
 20
7.9050
 30
0.0000
 42
1.0000
  0
VERTEX
  8
42
 10
75.5000
 20
4.0950
 30
0.0000
  0
SEQEND
  8
0
  0
POLYLINE
  8
33
 66
1
 10
0.0000
 20
0.0000
 30
0.0000
 40
0.2540
 41
0.2540
 70
0
  0
VERTEX
  8
33
 10
75.5000
 20
3.1425
 30
0.0000
 42
1.0000
  0
VERTEX
  8
33
 10
75.5000
 20
8.8575
 30
0.0000
 42
1.0000
  0
VERTEX
  8
33
 10
75.5000
 20
3.1425
 30
0.0000
  0
SEQEND
  8
0
  0
CIRCLE
  8
20
 10
75.5000
 20
6.0000
 30
0.0000
 40
1.5875
  0
POLYLINE
  8
29
 66
1
 10
0.0000
 20
0.0000
 30
0.0000
 40
1.6510
 41
1.6510
 70
0
  0
VERTEX
  8
29
 10
75.5000
 20
5.1745
 30
0.0000
 42
1.0000
  0
VERTEX
  8
29
 10
75.5000
 20
6.8255
 30
0.0000
 42
1.0000
  0
VERTEX
  8
29
 10
75.5000
 20
5.1745
 30
0.0000
  0
SEQEND
  8
0
  0
POLYLINE
  8
30
 66
1
 10
0.0000
 20
0.0000
 30
0.0000
 40
1.6510
 41
1.6510
 70
0
  0
VERTEX
  8
30
 10
75.5000
 20
5.1745
 30
0.0000
 42
1.0000
  0
VERTEX
  8
30
 10
75.5000
 20
6.8255
 30
0.0000
 42
1.0000
  0
VERTEX
  8
30
 10
75.5000
 20
5.1745
 30
0.0000
  0
SEQEND
  8
0
  0
POLYLINE
  8
33
 66
1
 10
0.0000
 20
0.0000
 30
0.0000
 40
0.0762
 41
0.0762
 70
0
  0
VERTEX
  8
33
 10
74.5381
 20
9.5381
 30
0.0000
  0
VERTEX
  8
33
 10
74.5381
 20
9.9623
 30
0.0000
  0
SEQEND
  8
0
  0
POLYLINE
  8
33
 66
1
 10
0.0000
 20
0.0000
 30
0.0000
 40
0.0381
 41
0.0381
 70
0
  0
VERTEX
  8
33
 10
74.5571
 20
9.9623
 30
0.0000
 42
1.0000
  0
VERTEX
  8
33
 10
74.5191
 20
9.9623
 30
0.0000
  0
SEQEND
  8
0
  0
POLYLINE
  8
33
 66
1
 10
0.0000
 20
0.0000
 30
0.0000
 40
0.0381
 41
0.0381
 70
0
  0
VERTEX
  8
33
 10
74.5191
 20
9.5381
 30
0.0000
 42
1.0000
  0
VERTEX
  8
33
 10
74.5571
 20
9.5381
 30
0.0000
  0
SEQEND
  8
0
  0
POLYLINE
  8
33
 66
1
 10
0.0000
 20
0.0000
 30
0.0000
 40
0.0762
 41
0.0762
 70
0
  0
VERTEX
  8
33
 10
74.5381
 20
9.7502
 30
0.0000
  0
VERTEX
  8
33
 10
74.8209
 20
9.7502
 30
0.0000
  0
SEQEND
  8
0
  0
POLYLINE
  8
33
 66
1
 10
0.0000
 20
0.0000
 30
0.0000
 40
0.0381
 41
0.0381
 70
0
  0
VERTEX
  8
33
 10
74.8209
 20
9.7311
 30
0.0000
 42
1.0000
  0
VERTEX
  8
33
 10
74.8209
 20
9.7692
 30
0.0000
  0
SEQEND
  8
0
  0
POLYLINE
  8
33
 66
1
 10
0.0000
 20
0.0000
 30
0.0000
 40
0.0381
 41
0.0381
 70
0
  0
VERTEX
  8
33
 10
74.5381
 20
9.7692
 30
0.0000
 42
1.0000
  0
VERTEX
  8
33
 10
74.5381
 20
9.7311
 30
0.0000
  0
SEQEND
  8
0
  0
POLYLINE
  8
33
 66
1
 10
0.0000
 20
0.0000
 30
0.0000
 40
0.0762
 41
0.0762
 70
0
  0
VERTEX
  8
33
 10
74.8209
 20
9.9623
 30
0.0000
  0
VERTEX
  8
33
 10
74.8209
 20
9.5381
 30
0.0000
  0
SEQEND
  8
0
  0
POLYLINE
  8
33
 66
1
 10
0.0000
 20
0.0000
 30
0.0000
 40
0.0381
 41
0.0381
 70
0
  0
VERTEX
  8
33
 10
74.8018
 20
9.5381
 30
0.0000
 42
1.0000
  0
VERTEX
  8
33
 10
74.8399
 20
9.5381
 30
0.0000
  0
SEQEND
  8
0
  0
POLYLINE
  8
33
 66
1
 10
0.0000
 20
0.0000
 30
0.0000
 40
0.0381
 41
0.0381
 70
0
  0
VERTEX
  8
33
 10
74.8399
 20
9.9623
 30
0.0000
 42
1.0000
  0
VERTEX
  8
33
 10
74.8018
 20
9.9623
 30
0.0000
  0
SEQEND
  8
0
  0
POLYLINE
  8
33
 66
1
 10
0.0000
 20
0.0000
 30
0.0000
 40
0.0762
 41
0.0762
 70
0
  0
VERTEX
  8
33
 10
75.2813
 20
9.9623
 30
0.0000
  0
VERTEX
  8
33
 10
74.9985
 20
9.9623
 30
0.0000
  0
SEQEND
  8
0
  0
POLYLINE
  8
33
 66
1
 10
0.0000
 20
0.0000
 30
0.0000
 40
0.0381
 41
0.0381
 70
0
  0
VERTEX
  8
33
 10
74.9985
 20
9.9813
 30
0.0000
 42
1.0000
  0
VERTEX
  8
33
 10
74.9985
 20
9.9432
 30
0.0000
  0
SEQEND
  8
0
  0
POLYLINE
  8
33
 66
1
 10
0.0000
 20
0.0000
 30
0.0000
 40
0.0381
 41
0.0381
 70
0
  0
VERTEX
  8
33
 10
75.2813
 20
9.9432
 30
0.0000
 42
1.0000
  0
VERTEX
  8
33
 10
75.2813
 20
9.9813
 30
0.0000
  0
SEQEND
  8
0
  0
POLYLINE
  8
33
 66
1
 10
0.0000
 20
0.0000
 30
0.0000
 40
0.0762
 41
0.0762
 70
0
  0
VERTEX
  8
33
 10
74.9985
 20
9.9623
 30
0.0000
  0
VERTEX
  8
33
 10
74.9985
 20
9.7502
 30
0.0000
  0
SEQEND
  8
0
  0
POLYLINE
  8
33
 66
1
 10
0.0000
 20
0.0000
 30
0.0000
 40
0.0381
 41
0.0381
 70
0
  0
VERTEX
  8
33
 10
74.9794
 20
9.7502
 30
0.0000
 42
1.0000
  0
VERTEX
  8
33
 10
75.0175
 20
9.7502
 30
0.0000
  0
SEQEND
  8
0
  0
POLYLINE
  8
33
 66
1
 10
0.0000
 20
0.0000
 30
0.0000
 40
0.0381
 41
0.0381
 70
0
  0
VERTEX
  8
33
 10
75.0175
 20
9.9623
 30
0.0000
 42
1.0000
  0
VERTEX
  8
33
 10
74.9794
 20
9.9623
 30
0.0000
  0
SEQEND
  8
0
  0
POLYLINE
  8
33
 66
1
 10
0.0000
 20
0.0000
 30
0.0000
 40
0.0762
 41
0.0762
 70
0
  0
VERTEX
  8
33
 10
74.9985
 20
9.7502
 30
0.0000
  0
VERTEX
  8
33
 10
75.1399
 20
9.8209
 30
0.0000
  0
SEQEND
  8
0
  0
POLYLINE
  8
33
 66
1
 10
0.0000
 20
0.0000
 30
0.0000
 40
0.0381
 41
0.0381
 70
0
  0
VERTEX
  8
33
 10
75.1484
 20
9.8038
 30
0.0000
 42
1.0000
  0
VERTEX
  8
33
 10
75.1314
 20
9.8379
 30
0.0000
  0
SEQEND
  8
0
  0
POLYLINE
  8
33
 66
1
 10
0.0000
 20
0.0000
 30
0.0000
 40
0.0381
 41
0.0381
 70
0
  0
VERTEX
  8
33
 10
74.9900
 20
9.7672
 30
0.0000
 42
1.0000
  0
VERTEX
  8
33
 10
75.0070
 20
9.7331
 30
0.0000
  0
SEQEND
  8
0
  0
POLYLINE
  8
33
 66
1
 10
0.0000
 20
0.0000
 30
0.0000
 40
0.0762
 41
0.0762
 70
0
  0
VERTEX
  8
33
 10
75.1399
 20
9.8209
 30
0.0000
  0
VERTEX
  8
33
 10
75.2106
 20
9.8209
 30
0.0000
  0
SEQEND
  8
0
  0
POLYLINE
  8
33
 66
1
 10
0.0000
 20
0.0000
 30
0.0000
 40
0.0381
 41
0.0381
 70
0
  0
VERTEX
  8
33
 10
75.2106
 20
9.8018
 30
0.0000
 42
1.0000
  0
VERTEX
  8
33
 10
75.2106
 20
9.8399
 30
0.0000
  0
SEQEND
  8
0
  0
POLYLINE
  8
33
 66
1
 10
0.0000
 20
0.0000
 30
0.0000
 40
0.0381
 41
0.0381
 70
0
  0
VERTEX
  8
33
 10
75.1399
 20
9.8399
 30
0.0000
 42
1.0000
  0
VERTEX
  8
33
 10
75.1399
 20
9.8018
 30
0.0000
  0
SEQEND
  8
0
  0
POLYLINE
  8
33
 66
1
 10
0.0000
 20
0.0000
 30
0.0000
 40
0.0762
 41
0.0762
 70
0
  0
VERTEX
  8
33
 10
75.2106
 20
9.8209
 30
0.0000
  0
VERTEX
  8
33
 10
75.2813
 20
9.7502
 30
0.0000
  0
SEQEND
  8
0
  0
POLYLINE
  8
33
 66
1
 10
0.0000
 20
0.0000
 30
0.0000
 40
0.0381
 41
0.0381
 70
0
  0
VERTEX
  8
33
 10
75.2678
 20
9.7367
 30
0.0000
 42
1.0000
  0
VERTEX
  8
33
 10
75.2947
 20
9.7637
 30
0.0000
  0
SEQEND
  8
0
  0
POLYLINE
  8
33
 66
1
 10
0.0000
 20
0.0000
 30
0.0000
 40
0.0381
 41
0.0381
 70
0
  0
VERTEX
  8
33
 10
75.2240
 20
9.8343
 30
0.0000
 42
1.0000
  0
VERTEX
  8
33
 10
75.1971
 20
9.8074
 30
0.0000
  0
SEQEND
  8
0
  0
POLYLINE
  8
33
 66
1
 10
0.0000
 20
0.0000
 30
0.0000
 40
0.0762
 41
0.0762
 70
0
  0
VERTEX
  8
33
 10
75.2813
 20
9.7502
 30
0.0000
  0
VERTEX
  8
33
 10
75.2813
 20
9.6088
 30
0.0000
  0
SEQEND
  8
0
  0
POLYLINE
  8
33
 66
1
 10
0.0000
 20
0.0000
 30
0.0000
 40
0.0381
 41
0.0381
 70
0
  0
VERTEX
  8
33
 10
75.2622
 20
9.6088
 30
0.0000
 42
1.0000
  0
VERTEX
  8
33
 10
75.3003
 20
9.6088
 30
0.0000
  0
SEQEND
  8
0
  0
POLYLINE
  8
33
 66
1
 10
0.0000
 20
0.0000
 30
0.0000
 40
0.0381
 41
0.0381
 70
0
  0
VERTEX
  8
33
 10
75.3003
 20
9.7502
 30
0.0000
 42
1.0000
  0
VERTEX
  8
33
 10
75.2622
 20
9.7502
 30
0.0000
  0
SEQEND
  8
0
  0
POLYLINE
  8
33
 66
1
 10
0.0000
 20
0.0000
 30
0.0000
 40
0.0762
 41
0.0762
 70
0
  0
VERTEX
  8
33
 10
75.2813
 20
9.6088
 30
0.0000
  0
VERTEX
  8
33
 10
75.2106
 20
9.5381
 30
0.0000
  0
SEQEND
  8
0
  0
POLYLINE
  8
33
 66
1
 10
0.0000
 20
0.0000
 30
0.0000
 40
0.0381
 41
0.0381
 70
0
  0
VERTEX
  8
33
 10
75.1971
 20
9.5516
 30
0.0000
 42
1.0000
  0
VERTEX
  8
33
 10
75.2240
 20
9.5246
 30
0.0000
  0
SEQEND
  8
0
  0
POLYLINE
  8
33
 66
1
 10
0.0000
 20
0.0000
 30
0.0000
 40
0.0381
 41
0.0381
 70
0
  0
VERTEX
  8
33
 10
75.2947
 20
9.5953
 30
0.0000
 42
1.0000
  0
VERTEX
  8
33
 10
75.2678
 20
9.6223
 30
0.0000
  0
SEQEND
  8
0
  0
POLYLINE
  8
33
 66
1
 10
0.0000
 20
0.0000
 30
0.0000
 40
0.0762
 41
0.0762
 70
0
  0
VERTEX
  8
33
 10
75.2106
 20
9.5381
 30
0.0000
  0
VERTEX
  8
33
 10
75.0692
 20
9.5381
 30
0.0000
  0
SEQEND
  8
0
  0
POLYLINE
  8
33
 66
1
 10
0.0000
 20
0.0000
 30
0.0000
 40
0.0381
 41
0.0381
 70
0
  0
VERTEX
  8
33
 10
75.0692
 20
9.5572
 30
0.0000
 42
1.0000
  0
VERTEX
  8
33
 10
75.0692
 20
9.5191
 30
0.0000
  0
SEQEND
  8
0
  0
POLYLINE
  8
33
 66
1
 10
0.0000
 20
0.0000
 30
0.0000
 40
0.0381
 41
0.0381
 70
0
  0
VERTEX
  8
33
 10
75.2106
 20
9.5191
 30
0.0000
 42
1.0000
  0
VERTEX
  8
33
 10
75.2106
 20
9.5572
 30
0.0000
  0
SEQEND
  8
0
  0
POLYLINE
  8
33
 66
1
 10
0.0000
 20
0.0000
 30
0.0000
 40
0.0762
 41
0.0762
 70
0
  0
VERTEX
  8
33
 10
75.0692
 20
9.5381
 30
0.0000
  0
VERTEX
  8
33
 10
74.9985
 20
9.6088
 30
0.0000
  0
SEQEND
  8
0
  0
POLYLINE
  8
33
 66
1
 10
0.0000
 20
0.0000
 30
0.0000
 40
0.0381
 41
0.0381
 70
0
  0
VERTEX
  8
33
 10
75.0120
 20
9.6223
 30
0.0000
 42
1.0000
  0
VERTEX
  8
33
 10
74.9850
 20
9.5953
 30
0.0000
  0
SEQEND
  8
0
  0
POLYLINE
  8
33
 66
1
 10
0.0000
 20
0.0000
 30
0.0000
 40
0.0381
 41
0.0381
 70
0
  0
VERTEX
  8
33
 10
75.0557
 20
9.5246
 30
0.0000
 42
1.0000
  0
VERTEX
  8
33
 10
75.0827
 20
9.5516
 30
0.0000
  0
SEQEND
  8
0
  0
POINT
  8
23
 10
87.0000
 20
89.0000
 30
0.0000
  0
POLYLINE
  8
51
 66
1
 10
0.0000
 20
0.0000
 30
0.0000
 40
0.1270
 41
0.1270
 70
0
  0
VERTEX
  8
51
 10
85.1669
 20
92.1750
 30
0.0000
  0
VERTEX
  8
51
 10
88.8331
 20
92.1750
 30
0.0000
  0
SEQEND
  8
0
  0
POLYLINE
  8
51
 66
1
 10
0.0000
 20
0.0000
 30
0.0000
 40
0.0635
 41
0.0635
 70
0
  0
VERTEX
  8
51
 10
88.8331
 20
92.1433
 30
0.0000
 42
1.0000
  0
VERTEX
  8
51
 10
88.8331
 20
92.2068
 30
0.0000
  0
SEQEND
  8
0
  0
POLYLINE
  8
51
 66
1
 10
0.0000
 20
0.0000
 30
0.0000
 40
0.0635
 41
0.0635
 70
0
  0
VERTEX
  8
51
 10
85.1669
 20
92.2068
 30
0.0000
 42
1.0000
  0
VERTEX
  8
51
 10
85.1669
 20
92.1433
 30
0.0000
  0
SEQEND
  8
0
  0
POLYLINE
  8
51
 66
1
 10
0.0000
 20
0.0000
 30
0.0000
 40
0.1270
 41
0.1270
 70
0
  0
VERTEX
  8
51
 10
88.8331
 20
92.1750
 30
0.0000
  0
VERTEX
  8
51
 10
90.6662
 20
89.0000
 30
0.0000
  0
SEQEND
  8
0
  0
POLYLINE
  8
51
 66
1
 10
0.0000
 20
0.0000
 30
0.0000
 40
0.0635
 41
0.0635
 70
0
  0
VERTEX
  8
51
 10
90.6387
 20
88.9841
 30
0.0000
 42
1.0000
  0
VERTEX
  8
51
 10
90.6937
 20
89.0159
 30
0.0000
  0
SEQEND
  8
0
  0
POLYLINE
  8
51
 66
1
 10
0.0000
 20
0.0000
 30
0.0000
 40
0.0635
 41
0.0635
 70
0
  0
VERTEX
  8
51
 10
88.8606
 20
92.1909
 30
0.0000
 42
1.0000
  0
VERTEX
  8
51
 10
88.8056
 20
92.1591
 30
0.0000
  0
SEQEND
  8
0
  0
POLYLINE
  8
51
 66
1
 10
0.0000
 20
0.0000
 30
0.0000
 40
0.1270
 41
0.1270
 70
0
  0
VERTEX
  8
51
 10
90.6662
 20
89.0000
 30
0.0000
  0
VERTEX
  8
51
 10
88.8331
 20
85.8250
 30
0.0000
  0
SEQEND
  8
0
  0
POLYLINE
  8
51
 66
1
 10
0.0000
 20
0.0000
 30
0.0000
 40
0.0635
 41
0.0635
 70
0
  0
VERTEX
  8
51
 10
88.8056
 20
85.8409
 30
0.0000
 42
1.0000
  0
VERTEX
  8
51
 10
88.8606
 20
85.8091
 30
0.0000
  0
SEQEND
  8
0
  0
POLYLINE
  8
51
 66
1
 10
0.0000
 20
0.0000
 30
0.0000
 40
0.0635
 41
0.0635
 70
0
  0
VERTEX
  8
51
 10
90.6937
 20
88.9841
 30
0.0000
 42
1.0000
  0
VERTEX
  8
51
 10
90.6387
 20
89.0159
 30
0.0000
  0
SEQEND
  8
0
  0
POLYLINE
  8
51
 66
1
 10
0.0000
 20
0.0000
 30
0.0000
 40
0.1270
 41
0.1270
 70
0
  0
VERTEX
  8
51
 10
88.8331
 20
85.8250
 30
0.0000
  0
VERTEX
  8
51
 10
85.1669
 20
85.8250
 30
0.0000
  0
SEQEND
  8
0
  0
POLYLINE
  8
51
 66
1
 10
0.0000
 20
0.0000
 30
0.0000
 40
0.0635
 41
0.0635
 70
0
  0
VERTEX
  8
51
 10
85.1669
 20
85.8568
 30
0.0000
 42
1.0000
  0
VERTEX
  8
51
 10
85.1669
 20
85.7933
 30
0.0000
  0
SEQEND
  8
0
  0
POLYLINE
  8
51
 66
1
 10
0.0000
 20
0.0000
 30
0.0000
 40
0.0635
 41
0.0635
 70
0
  0
VERTEX
  8
51
 10
88.8331
 20
85.7933
 30
0.0000
 42
1.0000
  0
VERTEX
  8
51
 10
88.8331
 20
85.8568
 30
0.0000
  0
SEQEND
  8
0
  0
POLYLINE
  8
51
 66
1
 10
0.0000
 20
0.0000
 30
0.0000
 40
0.1270
 41
0.1270
 70
0
  0
VERTEX
  8
51
 10
85.1669
 20
85.8250
 30
0.0000
  0
VERTEX
  8
51
 10
83.3339
 20
89.0000
 30
0.0000
  0
SEQEND
  8
0
  0
POLYLINE
  8
51
 66
1
 10
0.0000
 20
0.0000
 30
0.0000
 40
0.0635
 41
0.0635
 70
0
  0
VERTEX
  8
51
 10
83.3614
 20
89.0159
 30
0.0000
 42
1.0000
  0
VERTEX
  8
51
 10
83.3064
 20
88.9841
 30
0.0000
  0
SEQEND
  8
0
  0
POLYLINE
  8
51
 66
1
 10
0.0000
 20
0.0000
 30
0.0000
 40
0.0635
 41
0.0635
 70
0
  0
VERTEX
  8
51
 10
85.1394
 20
85.8091
 30
0.0000
 42
1.0000
  0
VERTEX
  8
51
 10
85.1944
 20
85.8409
 30
0.0000
  0
SEQEND
  8
0
  0
POLYLINE
  8
51
 66
1
 10
0.0000
 20
0.0000
 30
0.0000
 40
0.1270
 41
0.1270
 70
0
  0
VERTEX
  8
51
 10
83.3339
 20
89.0000
 30
0.0000
  0
VERTEX
  8
51
 10
85.1669
 20
92.1750
 30
0.0000
  0
SEQEND
  8
0
  0
POLYLINE
  8
51
 66
1
 10
0.0000
 20
0.0000
 30
0.0000
 40
0.0635
 41
0.0635
 70
0
  0
VERTEX
  8
51
 10
85.1944
 20
92.1591
 30
0.0000
 42
1.0000
  0
VERTEX
  8
51
 10
85.1394
 20
92.1909
 30
0.0000
  0
SEQEND
  8
0
  0
POLYLINE
  8
51
 66
1
 10
0.0000
 20
0.0000
 30
0.0000
 40
0.0635
 41
0.0635
 70
0
  0
VERTEX
  8
51
 10
83.3064
 20
89.0159
 30
0.0000
 42
1.0000
  0
VERTEX
  8
51
 10
83.3614
 20
88.9841
 30
0.0000
  0
SEQEND
  8
0
  0
POLYLINE
  8
33
 66
1
 10
0.0000
 20
0.0000
 30
0.0000
 40
0.1270
 41
0.1270
 70
0
  0
VERTEX
  8
33
 10
85.1669
 20
92.1750
 30
0.0000
  0
VERTEX
  8
33
 10
88.8331
 20
92.1750
 30
0.0000
  0
SEQEND
  8
0
  0
POLYLINE
  8
33
 66
1
 10
0.0000
 20
0.0000
 30
0.0000
 40
0.0635
 41
0.0635
 70
0
  0
VERTEX
  8
33
 10
88.8331
 20
92.1433
 30
0.0000
 42
1.0000
  0
VERTEX
  8
33
 10
88.8331
 20
92.2068
 30
0.0000
  0
SEQEND
  8
0
  0
POLYLINE
  8
33
 66
1
 10
0.0000
 20
0.0000
 30
0.0000
 40
0.0635
 41
0.0635
 70
0
  0
VERTEX
  8
33
 10
85.1669
 20
92.2068
 30
0.0000
 42
1.0000
  0
VERTEX
  8
33
 10
85.1669
 20
92.1433
 30
0.0000
  0
SEQEND
  8
0
  0
POLYLINE
  8
33
 66
1
 10
0.0000
 20
0.0000
 30
0.0000
 40
0.1270
 41
0.1270
 70
0
  0
VERTEX
  8
33
 10
88.8331
 20
92.1750
 30
0.0000
  0
VERTEX
  8
33
 10
90.6662
 20
89.0000
 30
0.0000
  0
SEQEND
  8
0
  0
POLYLINE
  8
33
 66
1
 10
0.0000
 20
0.0000
 30
0.0000
 40
0.0635
 41
0.0635
 70
0
  0
VERTEX
  8
33
 10
90.6387
 20
88.9841
 30
0.0000
 42
1.0000
  0
VERTEX
  8
33
 10
90.6937
 20
89.0159
 30
0.0000
  0
SEQEND
  8
0
  0
POLYLINE
  8
33
 66
1
 10
0.0000
 20
0.0000
 30
0.0000
 40
0.0635
 41
0.0635
 70
0
  0
VERTEX
  8
33
 10
88.8606
 20
92.1909
 30
0.0000
 42
1.0000
  0
VERTEX
  8
33
 10
88.8056
 20
92.1591
 30
0.0000
  0
SEQEND
  8
0
  0
POLYLINE
  8
33
 66
1
 10
0.0000
 20
0.0000
 30
0.0000
 40
0.1270
 41
0.1270
 70
0
  0
VERTEX
  8
33
 10
90.6662
 20
89.0000
 30
0.0000
  0
VERTEX
  8
33
 10
88.8331
 20
85.8250
 30
0.0000
  0
SEQEND
  8
0
  0
POLYLINE
  8
33
 66
1
 10
0.0000
 20
0.0000
 30
0.0000
 40
0.0635
 41
0.0635
 70
0
  0
VERTEX
  8
33
 10
88.8056
 20
85.8409
 30
0.0000
 42
1.0000
  0
VERTEX
  8
33
 10
88.8606
 20
85.8091
 30
0.0000
  0
SEQEND
  8
0
  0
POLYLINE
  8
33
 66
1
 10
0.0000
 20
0.0000
 30
0.0000
 40
0.0635
 41
0.0635
 70
0
  0
VERTEX
  8
33
 10
90.6937
 20
88.9841
 30
0.0000
 42
1.0000
  0
VERTEX
  8
33
 10
90.6387
 20
89.0159
 30
0.0000
  0
SEQEND
  8
0
  0
POLYLINE
  8
33
 66
1
 10
0.0000
 20
0.0000
 30
0.0000
 40
0.1270
 41
0.1270
 70
0
  0
VERTEX
  8
33
 10
88.8331
 20
85.8250
 30
0.0000
  0
VERTEX
  8
33
 10
85.1669
 20
85.8250
 30
0.0000
  0
SEQEND
  8
0
  0
POLYLINE
  8
33
 66
1
 10
0.0000
 20
0.0000
 30
0.0000
 40
0.0635
 41
0.0635
 70
0
  0
VERTEX
  8
33
 10
85.1669
 20
85.8568
 30
0.0000
 42
1.0000
  0
VERTEX
  8
33
 10
85.1669
 20
85.7933
 30
0.0000
  0
SEQEND
  8
0
  0
POLYLINE
  8
33
 66
1
 10
0.0000
 20
0.0000
 30
0.0000
 40
0.0635
 41
0.0635
 70
0
  0
VERTEX
  8
33
 10
88.8331
 20
85.7933
 30
0.0000
 42
1.0000
  0
VERTEX
  8
33
 10
88.8331
 20
85.8568
 30
0.0000
  0
SEQEND
  8
0
  0
POLYLINE
  8
33
 66
1
 10
0.0000
 20
0.0000
 30
0.0000
 40
0.1270
 41
0.1270
 70
0
  0
VERTEX
  8
33
 10
85.1669
 20
85.8250
 30
0.0000
  0
VERTEX
  8
33
 10
83.3339
 20
89.0000
 30
0.0000
  0
SEQEND
  8
0
  0
POLYLINE
  8
33
 66
1
 10
0.0000
 20
0.0000
 30
0.0000
 40
0.0635
 41
0.0635
 70
0
  0
VERTEX
  8
33
 10
83.3614
 20
89.0159
 30
0.0000
 42
1.0000
  0
VERTEX
  8
33
 10
83.3064
 20
88.9841
 30
0.0000
  0
SEQEND
  8
0
  0
POLYLINE
  8
33
 66
1
 10
0.0000
 20
0.0000
 30
0.0000
 40
0.0635
 41
0.0635
 70
0
  0
VERTEX
  8
33
 10
85.1394
 20
85.8091
 30
0.0000
 42
1.0000
  0
VERTEX
  8
33
 10
85.1944
 20
85.8409
 30
0.0000
  0
SEQEND
  8
0
  0
POLYLINE
  8
33
 66
1
 10
0.0000
 20
0.0000
 30
0.0000
 40
0.1270
 41
0.1270
 70
0
  0
VERTEX
  8
33
 10
83.3339
 20
89.0000
 30
0.0000
  0
VERTEX
  8
33
 10
85.1669
 20
92.1750
 30
0.0000
  0
SEQEND
  8
0
  0
POLYLINE
  8
33
 66
1
 10
0.0000
 20
0.0000
 30
0.0000
 40
0.0635
 41
0.0635
 70
0
  0
VERTEX
  8
33
 10
85.1944
 20
92.1591
 30
0.0000
 42
1.0000
  0
VERTEX
  8
33
 10
85.1394
 20
92.1909
 30
0.0000
  0
SEQEND
  8
0
  0
POLYLINE
  8
33
 66
1
 10
0.0000
 20
0.0000
 30
0.0000
 40
0.0635
 41
0.0635
 70
0
  0
VERTEX
  8
33
 10
83.3064
 20
89.0159
 30
0.0000
 42
1.0000
  0
VERTEX
  8
33
 10
83.3614
 20
88.9841
 30
0.0000
  0
SEQEND
  8
0
  0
POLYLINE
  8
51
 66
1
 10
0.0000
 20
0.0000
 30
0.0000
 40
0.2540
 41
0.2540
 70
0
  0
VERTEX
  8
51
 10
87.0000
 20
86.1425
 30
0.0000
 42
1.0000
  0
VERTEX
  8
51
 10
87.0000
 20
91.8575
 30
0.0000
 42
1.0000
  0
VERTEX
  8
51
 10
87.0000
 20
86.1425
 30
0.0000
  0
SEQEND
  8
0
  0
POLYLINE
  8
21
 66
1
 10
0.0000
 20
0.0000
 30
0.0000
 40
0.2540
 41
0.2540
 70
0
  0
VERTEX
  8
21
 10
87.0000
 20
85.1900
 30
0.0000
 42
1.0000
  0
VERTEX
  8
21
 10
87.0000
 20
92.8100
 30
0.0000
 42
1.0000
  0
VERTEX
  8
21
 10
87.0000
 20
85.1900
 30
0.0000
  0
SEQEND
  8
0
  0
POLYLINE
  8
41
 66
1
 10
0.0000
 20
0.0000
 30
0.0000
 40
3.8100
 41
3.8100
 70
0
  0
VERTEX
  8
41
 10
87.0000
 20
87.0950
 30
0.0000
 42
1.0000
  0
VERTEX
  8
41
 10
87.0000
 20
90.9050
 30
0.0000
 42
1.0000
  0
VERTEX
  8
41
 10
87.0000
 20
87.0950
 30
0.0000
  0
SEQEND
  8
0
  0
POLYLINE
  8
42
 66
1
 10
0.0000
 20
0.0000
 30
0.0000
 40
3.8100
 41
3.8100
 70
0
  0
VERTEX
  8
42
 10
87.0000
 20
87.0950
 30
0.0000
 42
1.0000
  0
VERTEX
  8
42
 10
87.0000
 20
90.9050
 30
0.0000
 42
1.0000
  0
VERTEX
  8
42
 10
87.0000
 20
87.0950
 30
0.0000
  0
SEQEND
  8
0
  0
POLYLINE
  8
33
 66
1
 10
0.0000
 20
0.0000
 30
0.0000
 40
0.2540
 41
0.2540
 70
0
  0
VERTEX
  8
33
 10
87.0000
 20
86.1425
 30
0.0000
 42
1.0000
  0
VERTEX
  8
33
 10
87.0000
 20
91.8575
 30
0.0000
 42
1.0000
  0
VERTEX
  8
33
 10
87.0000
 20
86.1425
 30
0.0000
  0
SEQEND
  8
0
  0
CIRCLE
  8
20
 10
87.0000
 20
89.0000
 30
0.0000
 40
1.5875
  0
POLYLINE
  8
29
 66
1
 10
0.0000
 20
0.0000
 30
0.0000
 40
1.6510
 41
1.6510
 70
0
  0
VERTEX
  8
29
 10
87.0000
 20
88.1745
 30
0.0000
 42
1.0000
  0
VERTEX
  8
29
 10
87.0000
 20
89.8255
 30
0.0000
 42
1.0000
  0
VERTEX
  8
29
 10
87.0000
 20
88.1745
 30
0.0000
  0
SEQEND
  8
0
  0
POLYLINE
  8
30
 66
1
 10
0.0000
 20
0.0000
 30
0.0000
 40
1.6510
 41
1.6510
 70
0
  0
VERTEX
  8
30
 10
87.0000
 20
88.1745
 30
0.0000
 42
1.0000
  0
VERTEX
  8
30
 10
87.0000
 20
89.8255
 30
0.0000
 42
1.0000
  0
VERTEX
  8
30
 10
87.0000
 20
88.1745
 30
0.0000
  0
SEQEND
  8
0
  0
POLYLINE
  8
25
 66
1
 10
0.0000
 20
0.0000
 30
0.0000
 40
0.1016
 41
0.1016
 70
0
  0
VERTEX
  8
25
 10
89.9083
 20
91.9083
 30
0.0000
  0
VERTEX
  8
25
 10
89.9083
 20
93.0777
 30
0.0000
  0
SEQEND
  8
0
  0
POLYLINE
  8
25
 66
1
 10
0.0000
 20
0.0000
 30
0.0000
 40
0.0508
 41
0.0508
 70
0
  0
VERTEX
  8
25
 10
89.9337
 20
93.0777
 30
0.0000
 42
1.0000
  0
VERTEX
  8
25
 10
89.8829
 20
93.0777
 30
0.0000
  0
SEQEND
  8
0
  0
POLYLINE
  8
25
 66
1
 10
0.0000
 20
0.0000
 30
0.0000
 40
0.0508
 41
0.0508
 70
0
  0
VERTEX
  8
25
 10
89.8829
 20
91.9083
 30
0.0000
 42
1.0000
  0
VERTEX
  8
25
 10
89.9337
 20
91.9083
 30
0.0000
  0
SEQEND
  8
0
  0
POLYLINE
  8
25
 66
1
 10
0.0000
 20
0.0000
 30
0.0000
 40
0.1016
 41
0.1016
 70
0
  0
VERTEX
  8
25
 10
89.9083
 20
92.4930
 30
0.0000
  0
VERTEX
  8
25
 10
90.6879
 20
92.4930
 30
0.0000
  0
SEQEND
  8
0
  0
POLYLINE
  8
25
 66
1
 10
0.0000
 20
0.0000
 30
0.0000
 40
0.0508
 41
0.0508
 70
0
  0
VERTEX
  8
25
 10
90.6879
 20
92.4676
 30
0.0000
 42
1.0000
  0
VERTEX
  8
25
 10
90.6879
 20
92.5184
 30
0.0000
  0
SEQEND
  8
0
  0
POLYLINE
  8
25
 66
1
 10
0.0000
 20
0.0000
 30
0.0000
 40
0.0508
 41
0.0508
 70
0
  0
VERTEX
  8
25
 10
89.9083
 20
92.5184
 30
0.0000
 42
1.0000
  0
VERTEX
  8
25
 10
89.9083
 20
92.4676
 30
0.0000
  0
SEQEND
  8
0
  0
POLYLINE
  8
25
 66
1
 10
0.0000
 20
0.0000
 30
0.0000
 40
0.1016
 41
0.1016
 70
0
  0
VERTEX
  8
25
 10
90.6879
 20
93.0777
 30
0.0000
  0
VERTEX
  8
25
 10
90.6879
 20
91.9083
 30
0.0000
  0
SEQEND
  8
0
  0
POLYLINE
  8
25
 66
1
 10
0.0000
 20
0.0000
 30
0.0000
 40
0.0508
 41
0.0508
 70
0
  0
VERTEX
  8
25
 10
90.6625
 20
91.9083
 30
0.0000
 42
1.0000
  0
VERTEX
  8
25
 10
90.7133
 20
91.9083
 30
0.0000
  0
SEQEND
  8
0
  0
POLYLINE
  8
25
 66
1
 10
0.0000
 20
0.0000
 30
0.0000
 40
0.0508
 41
0.0508
 70
0
  0
VERTEX
  8
25
 10
90.7133
 20
93.0777
 30
0.0000
 42
1.0000
  0
VERTEX
  8
25
 10
90.6625
 20
93.0777
 30
0.0000
  0
SEQEND
  8
0
  0
POLYLINE
  8
25
 66
1
 10
0.0000
 20
0.0000
 30
0.0000
 40
0.1016
 41
0.1016
 70
0
  0
VERTEX
  8
25
 10
91.8573
 20
93.0777
 30
0.0000
  0
VERTEX
  8
25
 10
91.4675
 20
92.8828
 30
0.0000
  0
SEQEND
  8
0
  0
POLYLINE
  8
25
 66
1
 10
0.0000
 20
0.0000
 30
0.0000
 40
0.0508
 41
0.0508
 70
0
  0
VERTEX
  8
25
 10
91.4561
 20
92.9055
 30
0.0000
 42
1.0000
  0
VERTEX
  8
25
 10
91.4789
 20
92.8601
 30
0.0000
  0
SEQEND
  8
0
  0
POLYLINE
  8
25
 66
1
 10
0.0000
 20
0.0000
 30
0.0000
 40
0.0508
 41
0.0508
 70
0
  0
VERTEX
  8
25
 10
91.8687
 20
93.0550
 30
0.0000
 42
1.0000
  0
VERTEX
  8
25
 10
91.8459
 20
93.1004
 30
0.0000
  0
SEQEND
  8
0
  0
POLYLINE
  8
25
 66
1
 10
0.0000
 20
0.0000
 30
0.0000
 40
0.1016
 41
0.1016
 70
0
  0
VERTEX
  8
25
 10
91.4675
 20
92.8828
 30
0.0000
  0
VERTEX
  8
25
 10
91.0777
 20
92.4930
 30
0.0000
  0
SEQEND
  8
0
  0
POLYLINE
  8
25
 66
1
 10
0.0000
 20
0.0000
 30
0.0000
 40
0.0508
 41
0.0508
 70
0
  0
VERTEX
  8
25
 10
91.0597
 20
92.5110
 30
0.0000
 42
1.0000
  0
VERTEX
  8
25
 10
91.0957
 20
92.4750
 30
0.0000
  0
SEQEND
  8
0
  0
POLYLINE
  8
25
 66
1
 10
0.0000
 20
0.0000
 30
0.0000
 40
0.0508
 41
0.0508
 70
0
  0
VERTEX
  8
25
 10
91.4855
 20
92.8648
 30
0.0000
 42
1.0000
  0
VERTEX
  8
25
 10
91.4495
 20
92.9008
 30
0.0000
  0
SEQEND
  8
0
  0
POLYLINE
  8
25
 66
1
 10
0.0000
 20
0.0000
 30
0.0000
 40
0.1016
 41
0.1016
 70
0
  0
VERTEX
  8
25
 10
91.0777
 20
92.4930
 30
0.0000
  0
VERTEX
  8
25
 10
91.0777
 20
92.1032
 30
0.0000
  0
SEQEND
  8
0
  0
POLYLINE
  8
25
 66
1
 10
0.0000
 20
0.0000
 30
0.0000
 40
0.0508
 41
0.0508
 70
0
  0
VERTEX
  8
25
 10
91.0523
 20
92.1032
 30
0.0000
 42
1.0000
  0
VERTEX
  8
25
 10
91.1031
 20
92.1032
 30
0.0000
  0
SEQEND
  8
0
  0
POLYLINE
  8
25
 66
1
 10
0.0000
 20
0.0000
 30
0.0000
 40
0.0508
 41
0.0508
 70
0
  0
VERTEX
  8
25
 10
91.1031
 20
92.4930
 30
0.0000
 42
1.0000
  0
VERTEX
  8
25
 10
91.0523
 20
92.4930
 30
0.0000
  0
SEQEND
  8
0
  0
POLYLINE
  8
25
 66
1
 10
0.0000
 20
0.0000
 30
0.0000
 40
0.1016
 41
0.1016
 70
0
  0
VERTEX
  8
25
 10
91.0777
 20
92.1032
 30
0.0000
  0
VERTEX
  8
25
 10
91.2726
 20
91.9083
 30
0.0000
  0
SEQEND
  8
0
  0
POLYLINE
  8
25
 66
1
 10
0.0000
 20
0.0000
 30
0.0000
 40
0.0508
 41
0.0508
 70
0
  0
VERTEX
  8
25
 10
91.2546
 20
91.8903
 30
0.0000
 42
1.0000
  0
VERTEX
  8
25
 10
91.2906
 20
91.9263
 30
0.0000
  0
SEQEND
  8
0
  0
POLYLINE
  8
25
 66
1
 10
0.0000
 20
0.0000
 30
0.0000
 40
0.0508
 41
0.0508
 70
0
  0
VERTEX
  8
25
 10
91.0957
 20
92.1212
 30
0.0000
 42
1.0000
  0
VERTEX
  8
25
 10
91.0597
 20
92.0852
 30
0.0000
  0
SEQEND
  8
0
  0
POLYLINE
  8
25
 66
1
 10
0.0000
 20
0.0000
 30
0.0000
 40
0.1016
 41
0.1016
 70
0
  0
VERTEX
  8
25
 10
91.2726
 20
91.9083
 30
0.0000
  0
VERTEX
  8
25
 10
91.6624
 20
91.9083
 30
0.0000
  0
SEQEND
  8
0
  0
POLYLINE
  8
25
 66
1
 10
0.0000
 20
0.0000
 30
0.0000
 40
0.0508
 41
0.0508
 70
0
  0
VERTEX
  8
25
 10
91.6624
 20
91.8829
 30
0.0000
 42
1.0000
  0
VERTEX
  8
25
 10
91.6624
 20
91.9337
 30
0.0000
  0
SEQEND
  8
0
  0
POLYLINE
  8
25
 66
1
 10
0.0000
 20
0.0000
 30
0.0000
 40
0.0508
 41
0.0508
 70
0
  0
VERTEX
  8
25
 10
91.2726
 20
91.9337
 30
0.0000
 42
1.0000
  0
VERTEX
  8
25
 10
91.2726
 20
91.8829
 30
0.0000
  0
SEQEND
  8
0
  0
POLYLINE
  8
25
 66
1
 10
0.0000
 20
0.0000
 30
0.0000
 40
0.1016
 41
0.1016
 70
0
  0
VERTEX
  8
25
 10
91.6624
 20
91.9083
 30
0.0000
  0
VERTEX
  8
25
 10
91.8573
 20
92.1032
 30
0.0000
  0
SEQEND
  8
0
  0
POLYLINE
  8
25
 66
1
 10
0.0000
 20
0.0000
 30
0.0000
 40
0.0508
 41
0.0508
 70
0
  0
VERTEX
  8
25
 10
91.8753
 20
92.0852
 30
0.0000
 42
1.0000
  0
VERTEX
  8
25
 10
91.8393
 20
92.1212
 30
0.0000
  0
SEQEND
  8
0
  0
POLYLINE
  8
25
 66
1
 10
0.0000
 20
0.0000
 30
0.0000
 40
0.0508
 41
0.0508
 70
0
  0
VERTEX
  8
25
 10
91.6444
 20
91.9263
 30
0.0000
 42
1.0000
  0
VERTEX
  8
25
 10
91.6804
 20
91.8903
 30
0.0000
  0
SEQEND
  8
0
  0
POLYLINE
  8
25
 66
1
 10
0.0000
 20
0.0000
 30
0.0000
 40
0.1016
 41
0.1016
 70
0
  0
VERTEX
  8
25
 10
91.8573
 20
92.1032
 30
0.0000
  0
VERTEX
  8
25
 10
91.8573
 20
92.2981
 30
0.0000
  0
SEQEND
  8
0
  0
POLYLINE
  8
25
 66
1
 10
0.0000
 20
0.0000
 30
0.0000
 40
0.0508
 41
0.0508
 70
0
  0
VERTEX
  8
25
 10
91.8827
 20
92.2981
 30
0.0000
 42
1.0000
  0
VERTEX
  8
25
 10
91.8319
 20
92.2981
 30
0.0000
  0
SEQEND
  8
0
  0
POLYLINE
  8
25
 66
1
 10
0.0000
 20
0.0000
 30
0.0000
 40
0.0508
 41
0.0508
 70
0
  0
VERTEX
  8
25
 10
91.8319
 20
92.1032
 30
0.0000
 42
1.0000
  0
VERTEX
  8
25
 10
91.8827
 20
92.1032
 30
0.0000
  0
SEQEND
  8
0
  0
POLYLINE
  8
25
 66
1
 10
0.0000
 20
0.0000
 30
0.0000
 40
0.1016
 41
0.1016
 70
0
  0
VERTEX
  8
25
 10
91.8573
 20
92.2981
 30
0.0000
  0
VERTEX
  8
25
 10
91.6624
 20
92.4930
 30
0.0000
  0
SEQEND
  8
0
  0
POLYLINE
  8
25
 66
1
 10
0.0000
 20
0.0000
 30
0.0000
 40
0.0508
 41
0.0508
 70
0
  0
VERTEX
  8
25
 10
91.6804
 20
92.5110
 30
0.0000
 42
1.0000
  0
VERTEX
  8
25
 10
91.6444
 20
92.4750
 30
0.0000
  0
SEQEND
  8
0
  0
POLYLINE
  8
25
 66
1
 10
0.0000
 20
0.0000
 30
0.0000
 40
0.0508
 41
0.0508
 70
0
  0
VERTEX
  8
25
 10
91.8393
 20
92.2801
 30
0.0000
 42
1.0000
  0
VERTEX
  8
25
 10
91.8753
 20
92.3161
 30
0.0000
  0
SEQEND
  8
0
  0
POLYLINE
  8
25
 66
1
 10
0.0000
 20
0.0000
 30
0.0000
 40
0.1016
 41
0.1016
 70
0
  0
VERTEX
  8
25
 10
91.6624
 20
92.4930
 30
0.0000
  0
VERTEX
  8
25
 10
91.0777
 20
92.4930
 30
0.0000
  0
SEQEND
  8
0
  0
POLYLINE
  8
25
 66
1
 10
0.0000
 20
0.0000
 30
0.0000
 40
0.0508
 41
0.0508
 70
0
  0
VERTEX
  8
25
 10
91.0777
 20
92.5184
 30
0.0000
 42
1.0000
  0
VERTEX
  8
25
 10
91.0777
 20
92.4676
 30
0.0000
  0
SEQEND
  8
0
  0
POLYLINE
  8
25
 66
1
 10
0.0000
 20
0.0000
 30
0.0000
 40
0.0508
 41
0.0508
 70
0
  0
VERTEX
  8
25
 10
91.6624
 20
92.4676
 30
0.0000
 42
1.0000
  0
VERTEX
  8
25
 10
91.6624
 20
92.5184
 30
0.0000
  0
SEQEND
  8
0
  0
POLYLINE
  8
33
 66
1
 10
0.0000
 20
0.0000
 30
0.0000
 40
0.0762
 41
0.0762
 70
0
  0
VERTEX
  8
33
 10
86.0381
 20
92.5381
 30
0.0000
  0
VERTEX
  8
33
 10
86.0381
 20
92.9623
 30
0.0000
  0
SEQEND
  8
0
  0
POLYLINE
  8
33
 66
1
 10
0.0000
 20
0.0000
 30
0.0000
 40
0.0381
 41
0.0381
 70
0
  0
VERTEX
  8
33
 10
86.0571
 20
92.9623
 30
0.0000
 42
1.0000
  0
VERTEX
  8
33
 10
86.0191
 20
92.9623
 30
0.0000
  0
SEQEND
  8
0
  0
POLYLINE
  8
33
 66
1
 10
0.0000
 20
0.0000
 30
0.0000
 40
0.0381
 41
0.0381
 70
0
  0
VERTEX
  8
33
 10
86.0191
 20
92.5381
 30
0.0000
 42
1.0000
  0
VERTEX
  8
33
 10
86.0571
 20
92.5381
 30
0.0000
  0
SEQEND
  8
0
  0
POLYLINE
  8
33
 66
1
 10
0.0000
 20
0.0000
 30
0.0000
 40
0.0762
 41
0.0762
 70
0
  0
VERTEX
  8
33
 10
86.0381
 20
92.7502
 30
0.0000
  0
VERTEX
  8
33
 10
86.3209
 20
92.7502
 30
0.0000
  0
SEQEND
  8
0
  0
POLYLINE
  8
33
 66
1
 10
0.0000
 20
0.0000
 30
0.0000
 40
0.0381
 41
0.0381
 70
0
  0
VERTEX
  8
33
 10
86.3209
 20
92.7311
 30
0.0000
 42
1.0000
  0
VERTEX
  8
33
 10
86.3209
 20
92.7692
 30
0.0000
  0
SEQEND
  8
0
  0
POLYLINE
  8
33
 66
1
 10
0.0000
 20
0.0000
 30
0.0000
 40
0.0381
 41
0.0381
 70
0
  0
VERTEX
  8
33
 10
86.0381
 20
92.7692
 30
0.0000
 42
1.0000
  0
VERTEX
  8
33
 10
86.0381
 20
92.7311
 30
0.0000
  0
SEQEND
  8
0
  0
POLYLINE
  8
33
 66
1
 10
0.0000
 20
0.0000
 30
0.0000
 40
0.0762
 41
0.0762
 70
0
  0
VERTEX
  8
33
 10
86.3209
 20
92.9623
 30
0.0000
  0
VERTEX
  8
33
 10
86.3209
 20
92.5381
 30
0.0000
  0
SEQEND
  8
0
  0
POLYLINE
  8
33
 66
1
 10
0.0000
 20
0.0000
 30
0.0000
 40
0.0381
 41
0.0381
 70
0
  0
VERTEX
  8
33
 10
86.3018
 20
92.5381
 30
0.0000
 42
1.0000
  0
VERTEX
  8
33
 10
86.3399
 20
92.5381
 30
0.0000
  0
SEQEND
  8
0
  0
POLYLINE
  8
33
 66
1
 10
0.0000
 20
0.0000
 30
0.0000
 40
0.0381
 41
0.0381
 70
0
  0
VERTEX
  8
33
 10
86.3399
 20
92.9623
 30
0.0000
 42
1.0000
  0
VERTEX
  8
33
 10
86.3018
 20
92.9623
 30
0.0000
  0
SEQEND
  8
0
  0
POLYLINE
  8
33
 66
1
 10
0.0000
 20
0.0000
 30
0.0000
 40
0.0762
 41
0.0762
 70
0
  0
VERTEX
  8
33
 10
86.7813
 20
92.9623
 30
0.0000
  0
VERTEX
  8
33
 10
86.6399
 20
92.8916
 30
0.0000
  0
SEQEND
  8
0
  0
POLYLINE
  8
33
 66
1
 10
0.0000
 20
0.0000
 30
0.0000
 40
0.0381
 41
0.0381
 70
0
  0
VERTEX
  8
33
 10
86.6314
 20
92.9086
 30
0.0000
 42
1.0000
  0
VERTEX
  8
33
 10
86.6484
 20
92.8745
 30
0.0000
  0
SEQEND
  8
0
  0
POLYLINE
  8
33
 66
1
 10
0.0000
 20
0.0000
 30
0.0000
 40
0.0381
 41
0.0381
 70
0
  0
VERTEX
  8
33
 10
86.7898
 20
92.9452
 30
0.0000
 42
1.0000
  0
VERTEX
  8
33
 10
86.7727
 20
92.9793
 30
0.0000
  0
SEQEND
  8
0
  0
POLYLINE
  8
33
 66
1
 10
0.0000
 20
0.0000
 30
0.0000
 40
0.0762
 41
0.0762
 70
0
  0
VERTEX
  8
33
 10
86.6399
 20
92.8916
 30
0.0000
  0
VERTEX
  8
33
 10
86.4985
 20
92.7502
 30
0.0000
  0
SEQEND
  8
0
  0
POLYLINE
  8
33
 66
1
 10
0.0000
 20
0.0000
 30
0.0000
 40
0.0381
 41
0.0381
 70
0
  0
VERTEX
  8
33
 10
86.4850
 20
92.7637
 30
0.0000
 42
1.0000
  0
VERTEX
  8
33
 10
86.5120
 20
92.7367
 30
0.0000
  0
SEQEND
  8
0
  0
POLYLINE
  8
33
 66
1
 10
0.0000
 20
0.0000
 30
0.0000
 40
0.0381
 41
0.0381
 70
0
  0
VERTEX
  8
33
 10
86.6533
 20
92.8781
 30
0.0000
 42
1.0000
  0
VERTEX
  8
33
 10
86.6264
 20
92.9050
 30
0.0000
  0
SEQEND
  8
0
  0
POLYLINE
  8
33
 66
1
 10
0.0000
 20
0.0000
 30
0.0000
 40
0.0762
 41
0.0762
 70
0
  0
VERTEX
  8
33
 10
86.4985
 20
92.7502
 30
0.0000
  0
VERTEX
  8
33
 10
86.4985
 20
92.6088
 30
0.0000
  0
SEQEND
  8
0
  0
POLYLINE
  8
33
 66
1
 10
0.0000
 20
0.0000
 30
0.0000
 40
0.0381
 41
0.0381
 70
0
  0
VERTEX
  8
33
 10
86.4794
 20
92.6088
 30
0.0000
 42
1.0000
  0
VERTEX
  8
33
 10
86.5175
 20
92.6088
 30
0.0000
  0
SEQEND
  8
0
  0
POLYLINE
  8
33
 66
1
 10
0.0000
 20
0.0000
 30
0.0000
 40
0.0381
 41
0.0381
 70
0
  0
VERTEX
  8
33
 10
86.5175
 20
92.7502
 30
0.0000
 42
1.0000
  0
VERTEX
  8
33
 10
86.4794
 20
92.7502
 30
0.0000
  0
SEQEND
  8
0
  0
POLYLINE
  8
33
 66
1
 10
0.0000
 20
0.0000
 30
0.0000
 40
0.0762
 41
0.0762
 70
0
  0
VERTEX
  8
33
 10
86.4985
 20
92.6088
 30
0.0000
  0
VERTEX
  8
33
 10
86.5692
 20
92.5381
 30
0.0000
  0
SEQEND
  8
0
  0
POLYLINE
  8
33
 66
1
 10
0.0000
 20
0.0000
 30
0.0000
 40
0.0381
 41
0.0381
 70
0
  0
VERTEX
  8
33
 10
86.5557
 20
92.5246
 30
0.0000
 42
1.0000
  0
VERTEX
  8
33
 10
86.5827
 20
92.5516
 30
0.0000
  0
SEQEND
  8
0
  0
POLYLINE
  8
33
 66
1
 10
0.0000
 20
0.0000
 30
0.0000
 40
0.0381
 41
0.0381
 70
0
  0
VERTEX
  8
33
 10
86.5120
 20
92.6223
 30
0.0000
 42
1.0000
  0
VERTEX
  8
33
 10
86.4850
 20
92.5953
 30
0.0000
  0
SEQEND
  8
0
  0
POLYLINE
  8
33
 66
1
 10
0.0000
 20
0.0000
 30
0.0000
 40
0.0762
 41
0.0762
 70
0
  0
VERTEX
  8
33
 10
86.5692
 20
92.5381
 30
0.0000
  0
VERTEX
  8
33
 10
86.7106
 20
92.5381
 30
0.0000
  0
SEQEND
  8
0
  0
POLYLINE
  8
33
 66
1
 10
0.0000
 20
0.0000
 30
0.0000
 40
0.0381
 41
0.0381
 70
0
  0
VERTEX
  8
33
 10
86.7106
 20
92.5191
 30
0.0000
 42
1.0000
  0
VERTEX
  8
33
 10
86.7106
 20
92.5571
 30
0.0000
  0
SEQEND
  8
0
  0
POLYLINE
  8
33
 66
1
 10
0.0000
 20
0.0000
 30
0.0000
 40
0.0381
 41
0.0381
 70
0
  0
VERTEX
  8
33
 10
86.5692
 20
92.5571
 30
0.0000
 42
1.0000
  0
VERTEX
  8
33
 10
86.5692
 20
92.5191
 30
0.0000
  0
SEQEND
  8
0
  0
POLYLINE
  8
33
 66
1
 10
0.0000
 20
0.0000
 30
0.0000
 40
0.0762
 41
0.0762
 70
0
  0
VERTEX
  8
33
 10
86.7106
 20
92.5381
 30
0.0000
  0
VERTEX
  8
33
 10
86.7813
 20
92.6088
 30
0.0000
  0
SEQEND
  8
0
  0
POLYLINE
  8
33
 66
1
 10
0.0000
 20
0.0000
 30
0.0000
 40
0.0381
 41
0.0381
 70
0
  0
VERTEX
  8
33
 10
86.7947
 20
92.5953
 30
0.0000
 42
1.0000
  0
VERTEX
  8
33
 10
86.7678
 20
92.6223
 30
0.0000
  0
SEQEND
  8
0
  0
POLYLINE
  8
33
 66
1
 10
0.0000
 20
0.0000
 30
0.0000
 40
0.0381
 41
0.0381
 70
0
  0
VERTEX
  8
33
 10
86.6971
 20
92.5516
 30
0.0000
 42
1.0000
  0
VERTEX
  8
33
 10
86.7240
 20
92.5246
 30
0.0000
  0
SEQEND
  8
0
  0
POLYLINE
  8
33
 66
1
 10
0.0000
 20
0.0000
 30
0.0000
 40
0.0762
 41
0.0762
 70
0
  0
VERTEX
  8
33
 10
86.7813
 20
92.6088
 30
0.0000
  0
VERTEX
  8
33
 10
86.7813
 20
92.6795
 30
0.0000
  0
SEQEND
  8
0
  0
POLYLINE
  8
33
 66
1
 10
0.0000
 20
0.0000
 30
0.0000
 40
0.0381
 41
0.0381
 70
0
  0
VERTEX
  8
33
 10
86.8003
 20
92.6795
 30
0.0000
 42
1.0000
  0
VERTEX
  8
33
 10
86.7622
 20
92.6795
 30
0.0000
  0
SEQEND
  8
0
  0
POLYLINE
  8
33
 66
1
 10
0.0000
 20
0.0000
 30
0.0000
 40
0.0381
 41
0.0381
 70
0
  0
VERTEX
  8
33
 10
86.7622
 20
92.6088
 30
0.0000
 42
1.0000
  0
VERTEX
  8
33
 10
86.8003
 20
92.6088
 30
0.0000
  0
SEQEND
  8
0
  0
POLYLINE
  8
33
 66
1
 10
0.0000
 20
0.0000
 30
0.0000
 40
0.0762
 41
0.0762
 70
0
  0
VERTEX
  8
33
 10
86.7813
 20
92.6795
 30
0.0000
  0
VERTEX
  8
33
 10
86.7106
 20
92.7502
 30
0.0000
  0
SEQEND
  8
0
  0
POLYLINE
  8
33
 66
1
 10
0.0000
 20
0.0000
 30
0.0000
 40
0.0381
 41
0.0381
 70
0
  0
VERTEX
  8
33
 10
86.7240
 20
92.7637
 30
0.0000
 42
1.0000
  0
VERTEX
  8
33
 10
86.6971
 20
92.7367
 30
0.0000
  0
SEQEND
  8
0
  0
POLYLINE
  8
33
 66
1
 10
0.0000
 20
0.0000
 30
0.0000
 40
0.0381
 41
0.0381
 70
0
  0
VERTEX
  8
33
 10
86.7678
 20
92.6660
 30
0.0000
 42
1.0000
  0
VERTEX
  8
33
 10
86.7947
 20
92.6930
 30
0.0000
  0
SEQEND
  8
0
  0
POLYLINE
  8
33
 66
1
 10
0.0000
 20
0.0000
 30
0.0000
 40
0.0762
 41
0.0762
 70
0
  0
VERTEX
  8
33
 10
86.7106
 20
92.7502
 30
0.0000
  0
VERTEX
  8
33
 10
86.4985
 20
92.7502
 30
0.0000
  0
SEQEND
  8
0
  0
POLYLINE
  8
33
 66
1
 10
0.0000
 20
0.0000
 30
0.0000
 40
0.0381
 41
0.0381
 70
0
  0
VERTEX
  8
33
 10
86.4985
 20
92.7692
 30
0.0000
 42
1.0000
  0
VERTEX
  8
33
 10
86.4985
 20
92.7311
 30
0.0000
  0
SEQEND
  8
0
  0
POLYLINE
  8
33
 66
1
 10
0.0000
 20
0.0000
 30
0.0000
 40
0.0381
 41
0.0381
 70
0
  0
VERTEX
  8
33
 10
86.7106
 20
92.7311
 30
0.0000
 42
1.0000
  0
VERTEX
  8
33
 10
86.7106
 20
92.7692
 30
0.0000
  0
SEQEND
  8
0
  0
ENDSEC
  0
EOF
